<?xml version="1.0" encoding="utf-8"?>
<!-- Generator: Adobe Illustrator 15.1.0, SVG Export Plug-In . SVG Version: 6.00 Build 0)  -->
<!DOCTYPE svg PUBLIC "-//W3C//DTD SVG 1.1//EN" "http://www.w3.org/Graphics/SVG/1.1/DTD/svg11.dtd">
<svg version="1.1" id="Layer_1" xmlns="http://www.w3.org/2000/svg" xmlns:xlink="http://www.w3.org/1999/xlink" x="0px" y="0px"
	 width="213px" height="213px" viewBox="0 0 213 213" enable-background="new 0 0 213 213" xml:space="preserve">
<g>
	<path fill="none" d="M107.001,153.889c-2.535,0.047-4.538,2.145-4.538,4.767c0,2.548,2.003,4.646,4.538,4.691
		c2.532-0.046,4.534-2.144,4.537-4.691C111.538,156.033,109.535,153.936,107.001,153.889z"/>
	<path fill="none" d="M96.33,126.318c-2.575,0-4.621,2.12-4.621,4.693c0,2.652,2.046,4.771,4.621,4.771
		c2.498,0,4.621-2.119,4.617-4.771C100.947,128.438,98.828,126.318,96.33,126.318z"/>
	<path fill="none" d="M97.314,142.222c0-2.576-2.12-4.696-4.62-4.696c-2.573,0-4.62,2.12-4.62,4.696c0,2.649,2.047,4.771,4.62,4.771
		C95.194,146.992,97.314,144.871,97.314,142.222z"/>
	<path fill="none" d="M96.33,148.43c-2.575,0-4.621,2.121-4.621,4.773c0,2.572,2.046,4.693,4.621,4.693
		c2.498,0,4.621-2.12,4.617-4.693C100.947,150.551,98.828,148.43,96.33,148.43z"/>
	<path fill="none" d="M107.065,122c-0.021,0-0.044,0-0.067,0s-0.045-0.312-0.068-0.312c-2.574,0-4.617,2.148-4.617,4.723
		c0,2.172,1.373,3.589,3.286,4.589h1.399h1.4c1.914-1,3.287-2.267,3.287-4.438C111.686,123.987,109.643,122,107.065,122z"/>
	<path fill="none" d="M121.305,137.525c-2.498,0-4.619,2.12-4.619,4.696c0,2.647,2.121,4.771,4.619,4.771
		c2.574,0,4.619-2.121,4.619-4.771C125.924,139.646,123.879,137.525,121.305,137.525z"/>
	<path fill="none" d="M117.67,148.43c-2.498,0-4.621,2.121-4.621,4.773c0,2.572,2.123,4.693,4.621,4.693
		c2.574,0,4.621-2.12,4.621-4.693C122.291,150.551,120.244,148.43,117.67,148.43z"/>
	<path fill="none" d="M122.291,131.012c0-2.573-2.047-4.693-4.621-4.693c-2.498,0-4.621,2.12-4.621,4.693
		c0,2.652,2.121,4.771,4.621,4.771C120.244,135.783,122.291,133.664,122.291,131.012z"/>
	<path fill="#010101" d="M157.447,89c0-26-21.051-47-46.924-47h-3.522h-3.526c-25.871,0-46.922,21-46.922,47H50v12h6v4.229
		c0,16.227,8.559,27.637,23.625,33.084c0.004-0.018,0.146-0.033,0.148-0.051c-1.03,7.213,0.688,14.841,5.279,21.076
		c5.324,7.34,13.597,11.213,21.914,11.249c8.314-0.035,16.57-3.907,21.895-11.249c4.592-6.235,6.249-13.863,5.218-21.076
		c0.003,0.018-0.212,0.033-0.21,0.051c15.07-5.449,23.131-16.857,23.131-33.084V101h6V89H157.447z M74.191,92.608
		c0-8.409,6.816-15.223,15.221-15.223c8.409,0,15.225,6.814,15.225,15.223c0,8.406-6.815,15.222-15.225,15.222
		C81.008,107.83,74.191,101.015,74.191,92.608z M88.074,142.222c0-2.576,2.047-4.696,4.62-4.696c2.5,0,4.62,2.12,4.62,4.696
		c0,2.649-2.12,4.771-4.62,4.771C90.121,146.992,88.074,144.871,88.074,142.222z M96.33,157.896c-2.575,0-4.621-2.121-4.621-4.693
		c0-2.652,2.046-4.773,4.621-4.773c2.498,0,4.617,2.121,4.617,4.773C100.951,155.776,98.828,157.896,96.33,157.896z M96.33,135.783
		c-2.575,0-4.621-2.119-4.621-4.771c0-2.573,2.046-4.693,4.621-4.693c2.498,0,4.617,2.12,4.617,4.693
		C100.951,133.664,98.828,135.783,96.33,135.783z M107.001,163.347c-2.535-0.046-4.538-2.144-4.538-4.691
		c0-2.622,2.003-4.72,4.538-4.767c2.534,0.047,4.537,2.145,4.537,4.767C111.535,161.203,109.533,163.301,107.001,163.347z
		 M108.398,131h-1.4h-1.399c-1.913-1-3.286-2.569-3.286-4.741c0-2.574,2.043-4.476,4.617-4.476c0.023,0,0.045,0.217,0.068,0.217
		s0.046,0,0.067,0c2.577,0,4.62,1.987,4.62,4.562C111.686,128.733,110.312,130,108.398,131z M117.67,157.896
		c-2.498,0-4.621-2.121-4.621-4.693c0-2.652,2.123-4.773,4.621-4.773c2.574,0,4.621,2.121,4.621,4.773
		C122.291,155.776,120.244,157.896,117.67,157.896z M113.049,131.012c0-2.573,2.123-4.693,4.621-4.693
		c2.574,0,4.621,2.12,4.621,4.693c0,2.652-2.047,4.771-4.621,4.771C115.17,135.783,113.049,133.664,113.049,131.012z
		 M121.305,146.992c-2.498,0-4.619-2.123-4.619-4.771c0-2.576,2.121-4.696,4.619-4.696c2.574,0,4.619,2.12,4.619,4.696
		C125.924,144.871,123.879,146.992,121.305,146.992z M124.587,107.83c-8.407,0-15.224-6.815-15.224-15.222
		c0-8.409,6.816-15.223,15.224-15.223c8.406,0,15.222,6.814,15.222,15.223C139.809,101.015,132.993,107.83,124.587,107.83z"/>
</g>
</svg>
