<?xml version="1.0" encoding="utf-8"?>
<!-- Generator: Adobe Illustrator 15.1.0, SVG Export Plug-In . SVG Version: 6.00 Build 0)  -->
<!DOCTYPE svg PUBLIC "-//W3C//DTD SVG 1.1//EN" "http://www.w3.org/Graphics/SVG/1.1/DTD/svg11.dtd">
<svg version="1.1" id="Layer_1" xmlns="http://www.w3.org/2000/svg" xmlns:xlink="http://www.w3.org/1999/xlink" x="0px" y="0px"
	 width="213px" height="213px" viewBox="0 0 213 213" enable-background="new 0 0 213 213" xml:space="preserve">
<g>
	<path fill="#F2F2F2" d="M147,91.427v-0.004c-19,0-30.152-4.724-51.656-4.724C73.841,86.699,65.646,91,65.646,91h0.001l6.344,67
		h69.018L147,91.427z"/>
	<polygon points="65.646,90 71.991,156.619 65.647,90 	"/>
	<path d="M54.926,44l12.342,129h78.466l12.341-129h-6.268l-4.452,47.304L141.009,158H71.991L66,91.37c0,0,0,0.003,0,0.002L61.369,44
		H54.926z"/>
	<g>
		<g>
			<polygon points="136.299,71.702 136.299,71.702 136.299,71.702 			"/>
			<path d="M117.054,125.418c-0.413-1.697-0.671-3.441-0.785-5.26c-0.2-3.177,0.052-6.586,0.72-10.126
				c0.499-2.652,1.23-5.37,2.141-8.069c1.365-4.049,3.135-8.054,5.04-11.74c1.904-3.687,3.938-7.056,5.792-9.872
				c1.867-2.839,3.548-5.117,4.71-6.621c0.581-0.752,1.032-1.311,1.312-1.651c0.141-0.17,0.237-0.081,0.286-0.139
				c0.018-0.02,0.024,0.171,0.029,0.171h0.001c6.989-8.25,5.695-20.573-2.412-27.605C125.766,37.459,113,38.059,106,46.265v-0.001
				c0,0.433-3.994,5.111-8.998,12.712c-2.519,3.832-5.079,8.41-7.765,13.635c-2.015,3.92-3.874,8.194-5.63,12.8
				c-2.629,6.91-4.753,14.558-5.782,22.845c-0.513,4.142-0.704,8.441-0.519,12.859c0.186,4.414,0.794,8.946,1.902,13.504
				c2.542,10.448,13.076,16.856,23.523,14.316C113.18,146.393,119.594,135.865,117.054,125.418z"/>
		</g>
		<circle cx="97.416" cy="64.049" r="4.672"/>
		<circle cx="113.157" cy="125.315" r="4.673"/>
		<circle cx="113.826" cy="120.046" r="4.672"/>
		<circle cx="120.706" cy="93.115" r="4.673"/>
		<circle cx="116.678" cy="99.816" r="4.673"/>
		<circle cx="85.265" cy="93.518" r="4.673"/>
		<circle cx="90.603" cy="79.63" r="4.672"/>
		<circle cx="83.106" cy="134.762" r="4.673"/>
		<circle cx="82.329" cy="131.407" r="4.672"/>
		<circle cx="133.842" cy="69.6" r="4.673"/>
		<circle cx="80.422" cy="109.724" r="4.673"/>
		<circle cx="102.074" cy="57.676" r="4.673"/>
	</g>
</g>
</svg>
