<?xml version="1.0" encoding="utf-8"?>
<!-- Generator: Adobe Illustrator 15.1.0, SVG Export Plug-In . SVG Version: 6.00 Build 0)  -->
<!DOCTYPE svg PUBLIC "-//W3C//DTD SVG 1.1//EN" "http://www.w3.org/Graphics/SVG/1.1/DTD/svg11.dtd">
<svg version="1.1" id="Layer_1" xmlns="http://www.w3.org/2000/svg" xmlns:xlink="http://www.w3.org/1999/xlink" x="0px" y="0px"
	 width="213px" height="213px" viewBox="0 0 213 213" enable-background="new 0 0 213 213" xml:space="preserve">
<g>
	<path d="M96.686,154.549c0.033,0.072,0.071,0.14,0.105,0.21l-1.721-3.781L96.686,154.549z"/>
	<path d="M155.609,67.234l0.836-1.846c1.725-3.809,1.061-8.275-1.699-11.416c-9.105-10.367-27.639-16.807-48.363-16.807
		s-39.254,6.439-48.361,16.806c-2.758,3.14-3.424,7.606-1.699,11.416l0.697,1.54c8.801-8.069,31.894-17.156,49.363-17.156
		C123.66,49.772,146.729,59.026,155.609,67.234z"/>
	<path d="M109.844,132.359c-1.598,0-2.899,1.303-2.899,2.902c0,1.599,1.302,2.899,2.899,2.899c1.602,0,2.902-1.301,2.902-2.899
		C112.746,133.662,111.445,132.359,109.844,132.359z"/>
	<path d="M101.83,64.66c-1.599,0-2.9,1.301-2.9,2.901c0,1.599,1.302,2.9,2.9,2.9c1.602,0,2.901-1.301,2.901-2.9
		C104.731,65.961,103.432,64.66,101.83,64.66z"/>
	<path d="M117.402,93.841c1.599,0,2.9-1.301,2.9-2.9c0-1.6-1.302-2.901-2.9-2.901c-1.602,0-2.902,1.301-2.902,2.901
		C114.5,92.54,115.801,93.841,117.402,93.841z"/>
	<path d="M90.789,98.829c-1.602,0-2.901,1.302-2.901,2.901s1.3,2.9,2.901,2.9c1.6,0,2.9-1.301,2.9-2.9S92.389,98.829,90.789,98.829z
		"/>
	<path d="M106.383,54.815c-17.027,0-40.496,9.47-47.055,16.935c-0.026,0.032-0.06,0.053-0.088,0.083l23.156,51.15
		c1.344-0.775,2.9-1.227,4.564-1.227c5.053,0,9.15,4.097,9.15,9.15c0,4.023-2.601,7.432-6.209,8.658l5.156,11.391l0.012,0.022
		l1.721,3.781l9.593,21.075l9.552-20.993c0.048-0.098,0.101-0.192,0.146-0.292l37.307-82.406c-0.029-0.029-0.062-0.051-0.09-0.083
		C147.34,65.277,124.51,54.815,106.383,54.815z M76.222,79.548c0-5.054,4.097-9.151,9.151-9.151c5.053,0,9.15,4.098,9.15,9.151
		c0,5.055-4.098,9.151-9.15,9.151C80.318,88.699,76.222,84.603,76.222,79.548z M90.789,105.752c-2.218,0-4.021-1.805-4.021-4.021
		c0-2.219,1.804-4.021,4.021-4.021s4.021,1.803,4.021,4.021C94.811,103.947,93.007,105.752,90.789,105.752z M117.402,86.919
		c2.217,0,4.021,1.804,4.021,4.021c0,2.217-1.804,4.021-4.021,4.021c-2.219,0-4.021-1.804-4.021-4.021
		C113.381,88.723,115.184,86.919,117.402,86.919z M101.83,71.583c-2.217,0-4.021-1.804-4.021-4.021c0-2.218,1.804-4.022,4.021-4.022
		c2.219,0,4.022,1.804,4.022,4.022C105.853,69.779,104.049,71.583,101.83,71.583z M109.844,139.282c-2.217,0-4.02-1.804-4.02-4.021
		c0-2.219,1.803-4.021,4.02-4.021c2.219,0,4.023,1.803,4.023,4.021C113.867,137.479,112.062,139.282,109.844,139.282z
		 M117.029,120.766c-5.055,0-9.152-4.098-9.152-9.152c0-5.053,4.098-9.15,9.152-9.15c5.054,0,9.15,4.098,9.15,9.15
		C126.18,116.668,122.083,120.766,117.029,120.766z M124.312,81.475c-5.054,0-9.151-4.097-9.151-9.152
		c0-5.054,4.098-9.151,9.151-9.151s9.151,4.097,9.151,9.151C133.463,77.378,129.365,81.475,124.312,81.475z"/>
	<circle fill="#231F20" cx="80.938" cy="75.58" r="0.793"/>
	<circle fill="#231F20" cx="85.373" cy="78.16" r="0.794"/>
	<circle fill="#231F20" cx="81.731" cy="82.268" r="0.793"/>
	<circle fill="#231F20" cx="86.167" cy="84.696" r="0.793"/>
	<circle fill="#231F20" cx="90.321" cy="81.474" r="0.793"/>
	<circle fill="#231F20" cx="89.528" cy="74.786" r="0.793"/>
	<circle fill="#231F20" cx="112.593" cy="107.646" r="0.794"/>
	<circle fill="#231F20" cx="117.028" cy="110.226" r="0.794"/>
	<circle fill="#231F20" cx="113.387" cy="114.334" r="0.793"/>
	<circle fill="#231F20" cx="117.822" cy="116.762" r="0.793"/>
	<circle fill="#231F20" cx="121.979" cy="113.54" r="0.794"/>
	<circle fill="#231F20" cx="121.185" cy="106.852" r="0.794"/>
	<circle fill="#231F20" cx="86.959" cy="129.518" r="0.793"/>
	<path fill="#231F20" d="M88.547,136.055c0-0.363-0.245-0.665-0.578-0.76l0.499,1.1C88.517,136.291,88.547,136.177,88.547,136.055z"
		/>
	<circle fill="#231F20" cx="91.908" cy="132.833" r="0.794"/>
	<circle fill="#231F20" cx="91.115" cy="126.144" r="0.793"/>
	<circle fill="#231F20" cx="119.876" cy="68.354" r="0.794"/>
	<circle fill="#231F20" cx="124.312" cy="70.935" r="0.794"/>
	<circle fill="#231F20" cx="120.67" cy="75.044" r="0.793"/>
	<circle fill="#231F20" cx="125.105" cy="77.472" r="0.794"/>
	<circle fill="#231F20" cx="129.26" cy="74.25" r="0.793"/>
	<circle fill="#231F20" cx="128.467" cy="67.562" r="0.793"/>
</g>
</svg>
