<?xml version="1.0" encoding="utf-8"?>
<!-- Generator: Adobe Illustrator 15.1.0, SVG Export Plug-In . SVG Version: 6.00 Build 0)  -->
<!DOCTYPE svg PUBLIC "-//W3C//DTD SVG 1.1//EN" "http://www.w3.org/Graphics/SVG/1.1/DTD/svg11.dtd">
<svg version="1.1" id="Layer_1" xmlns="http://www.w3.org/2000/svg" xmlns:xlink="http://www.w3.org/1999/xlink" x="0px" y="0px"
	 width="213px" height="213px" viewBox="0 0 213 213" enable-background="new 0 0 213 213" xml:space="preserve">
<g>
	<path fill="none" d="M156.713,169c-1.752,3.223-5.044,6.344-9.273,8.602C151.669,175.426,154.961,172.223,156.713,169z"/>
	<path fill="none" d="M103,162.601c0,0.001,0,0.003,0,0.003c0-5.166,3.148-9.951,8.539-13.486c5.113-3.354,11.96-5.187,19.116-5.187
		c-7.156,0-14.047,1.819-19.16,5.173C106.104,152.639,103,157.433,103,162.601z"/>
	<path fill="none" d="M130.744,146c13.164,0,23.971,7,25.141,15c-1.17-8-11.977-15.057-25.141-15.057
		c-13.944,0-25.249,7.399-25.249,16.545c0,0.016,0.002,0.03,0.002,0.046C105.535,153.41,116.823,146,130.744,146z"/>
	<path fill="none" d="M111.717,176.157c0.795,0.521,1.636,0.96,2.508,1.386c-0.872-0.442-1.713-0.92-2.508-1.441
		c-4.27-2.801-7.013-6.389-7.973-10.327C104.704,169.729,107.447,173.356,111.717,176.157z"/>
	<path fill="none" d="M130.744,178.926c-2.734,0-5.364-0.281-7.83-0.795c2.466,0.521,5.096,0.805,7.83,0.805
		c11.924,0,21.91-4.936,24.557-12.936C152.654,174,142.668,178.926,130.744,178.926z"/>
	<path fill="none" d="M176,165.945c0-0.001,0-0.002,0-0.003c0-0.94-0.32-1.679-0.957-2.271c-0.002,0.002-0.044,0.005-0.046,0.007
		C175.637,164.271,176,165.004,176,165.945z"/>
	<path fill="#231F20" d="M90.237,111.047L86.854,118h0.004c-0.426,1-0.677,1.512-0.677,2.34c0,2.239,1.816,4.107,4.057,4.107
		c2.239,0,4.056-1.894,4.056-4.133c0-0.828-0.25-1.314-0.676-2.314h0.002L90.237,111.047z"/>
	<path fill="#010101" d="M81.486,107.371c0.658,0.657,1.002,1.002,1.002,1.002l-1.012,1.013c0,0,2.016,1.994,3.018,0.992
		c0.377,0.376,1.598,1.598,2.255,2.255c0.313,0.313,0.579-0.078,0.579-0.078l4.32-4.32c0,0,0.369-0.357,0.113-0.613
		c-0.657-0.658-1.879-1.879-2.255-2.256c1.002-1.002-1.035-2.974-1.035-2.974l-0.97,0.969c0,0-0.346-0.345-1.002-1.002
		c0.846-2.161,0.406-10.62-3.352-14.38c-1.756-1.754-2.35-2.348-2.664-2.662c-0.312-0.313-1.001,0.001-1.848,0.156
		c-0.408-0.406-16.635-16.633-17.197-17.197c-0.564-0.564-0.378-2.38-0.973-2.975c-0.595-0.596-4.229-4.166-6.202-5.639
		s-3.759-2.633-5.169-1.223c-1.408,1.41-2.104,3.186-2.104,3.186s-1.781-0.678-4.521,2.062c-2.741,2.74-1.966,4.426-1.966,4.426
		s-1.759,0.715-3.167,2.124c-1.41,1.409-0.262,3.185,1.211,5.159c1.473,1.973,5.164,5.477,5.76,6.072s2.531,0.277,3.096,0.841
		S64.195,99.1,64.604,99.508c-0.156,0.847-0.47,1.535-0.158,1.848c0.313,0.313,0.909,0.908,2.663,2.662
		C70.867,107.777,79.326,108.217,81.486,107.371z"/>
	<path fill="#231F20" d="M120.428,116.555c2.24,0,4.056-1.947,4.056-4.187c0-0.828-0.251-1.368-0.676-2.368h0.003l-3.383-6.953
		L117.045,110h0.004c-0.426,1-0.677,1.54-0.677,2.368C116.372,114.607,118.188,116.555,120.428,116.555z"/>
	<path fill="#010101" d="M110.134,50.358c-0.001,0.798,0.142,23.745,0.142,24.321c-0.708,0.489-1.275,0.754-1.275,1.195
		c0,0.444,0,1.285,0,3.766c0,5.316,5,11.607,8,12.538c0,0.931,0,1.821,0,1.821h-1.92c0,0-0.08,2.431,1.92,2.432
		c0,0.531,0,2.26,0,3.189c0,0.319-0.012,0.373-0.02,0.379h6.107c0,0,0.912-0.018,0.912-0.378c0-0.931,0-2.659,0-3.19
		c1,0,0.972-2.432,0.972-2.432H124c0,0,0-0.891,0-1.821c2-0.931,7-7.222,7-12.537c0-2.481,0-3.321,0-3.766c0-0.443,0-0.707-1-1.196
		c0-0.576,0-23.524,0-24.321c0-0.798,1.406-1.95,1.406-2.791s-0.049-5.937-0.403-8.372c-0.354-2.438-0.799-4.52-2.792-4.52
		c-1.994,0-3.741,0.764-3.741,0.764s-0.782-1.738-4.656-1.739c-3.877,0.001-4.521,1.74-4.521,1.74s-1.748-0.737-3.742-0.737
		c-1.993-0.001-2.436,2.068-2.791,4.505c-0.354,2.437-0.222,7.523-0.221,8.366C108.539,48.416,110.134,49.561,110.134,50.358z"/>
	<path fill="#010101" d="M116.98,100h-0.004C116.977,100,116.979,100.002,116.98,100z"/>
	<path fill="#231F20" d="M111.717,176.157c-4.27-2.801-7.191-6.428-8.15-10.383c-0.252-1.034-0.566-2.092-0.566-3.167
		c0-0.001,0-0.002,0-0.004c0,0,0-0.002,0-0.003c0-5.168,3.148-9.962,8.539-13.497c5.113-3.354,11.96-5.173,19.116-5.173
		c13.282,0,24.479,6.069,26.958,15.069h4.996c-5.365-18-24.816-31.217-48-31.217c-27.324,0-49.475,18.48-49.475,41.223
		c0,5.495,4.455,9.994,9.951,9.994h42.164c-0.803-0.404-1.578-0.765-2.338-1.125c-0.23-0.109-0.461-0.217-0.688-0.332
		C113.353,177.117,112.512,176.678,111.717,176.157z"/>
	<path fill="#231F20" d="M147.439,177.602c-0.957,0.512-1.951,0.986-2.998,1.398h9.691c5.496,0,9.951-4.308,9.951-9.803
		c0-0.115-0.01-0.197-0.011-0.197h-7.36C154.961,172.223,151.669,175.426,147.439,177.602z"/>
	<path fill="#231F20" d="M172.919,158h-0.003c0,0,0,0-0.002,0c-1.719,0-3.121,1-3.231,3h-13.798c-1.17-8-11.977-15-25.141-15
		c-13.921,0-25.209,7.41-25.247,16.534c0.03,7.332,7.327,13.468,17.417,15.597c2.466,0.514,5.096,0.795,7.83,0.795
		c11.924,0,21.91-4.926,24.557-12.926h14.396c0.192,2,1.561,3.081,3.22,3.082c1.792-0.001,3.245-1.346,3.247-3.137
		c-0.002-0.941-0.404-1.674-1.045-2.267c0.003-0.002,0.004-0.005,0.006-0.007c-0.002-0.002-0.003-0.004-0.006-0.006
		c0.641-0.594,1.045-1.452,1.045-2.395C176.164,159.479,174.711,158,172.919,158z"/>
</g>
</svg>
