<?xml version="1.0" encoding="utf-8"?>
<!-- Generator: Adobe Illustrator 15.1.0, SVG Export Plug-In . SVG Version: 6.00 Build 0)  -->
<!DOCTYPE svg PUBLIC "-//W3C//DTD SVG 1.1//EN" "http://www.w3.org/Graphics/SVG/1.1/DTD/svg11.dtd">
<svg version="1.1" id="Layer_1" xmlns="http://www.w3.org/2000/svg" xmlns:xlink="http://www.w3.org/1999/xlink" x="0px" y="0px"
	 width="213px" height="213px" viewBox="0 0 213 213" enable-background="new 0 0 213 213" xml:space="preserve">
<g>
	<g>
		<path fill="#010101" d="M163.688,73.208V47.902h-28.094H77.406H49.313v25.307l0,0c0,15.516,12.577,28.094,28.093,28.094h58.188
			C151.11,101.303,163.688,88.724,163.688,73.208L163.688,73.208"/>
	</g>
	<g>
		<g>
			<path fill="#FFFFFF" d="M95.562,74.044H75.547c-0.462,0-0.836-0.375-0.836-0.836c0-0.463,0.374-0.836,0.836-0.836h20.016
				c0.463,0,0.837,0.373,0.837,0.836C96.399,73.669,96.025,74.044,95.562,74.044z"/>
		</g>
		<g>
			<circle fill="#FFFFFF" cx="85.555" cy="73.208" r="7.78"/>
		</g>
		<g>
			<circle fill="#010101" cx="85.555" cy="73.208" r="5.268"/>
		</g>
	</g>
	<g>
		<g>
			<path fill="#FFFFFF" d="M139.04,74.044h-20.016c-0.461,0-0.836-0.375-0.836-0.836c0-0.463,0.375-0.836,0.836-0.836h20.016
				c0.463,0,0.836,0.373,0.836,0.836C139.876,73.669,139.503,74.044,139.04,74.044z"/>
		</g>
		<g>
			<circle fill="#FFFFFF" cx="129.032" cy="73.208" r="7.78"/>
		</g>
		<g>
			<circle fill="#010101" cx="129.032" cy="73.208" r="5.268"/>
		</g>
	</g>
	<g>
		<path fill="#010101" d="M137.394,140.104c0,16.623-13.477,30.1-30.1,30.1l0,0c-16.624,0-30.1-13.477-30.1-30.1V123.66
			c0-16.623,13.476-30.1,30.1-30.1l0,0c16.623,0,30.1,13.477,30.1,30.1V140.104z"/>
	</g>
	<g>
		<path fill="#FFFFFF" d="M107.294,161.842c-11.987,0-21.739-9.752-21.739-21.738V123.66c0-11.986,9.752-21.738,21.739-21.738
			c11.986,0,21.738,9.752,21.738,21.738v16.443C129.032,152.09,119.28,161.842,107.294,161.842z"/>
	</g>
	<g>
		<path fill="#010101" d="M154.391,108.053c0,8.773-7.112,15.887-15.886,15.887H74.496c-8.773,0-15.886-7.113-15.886-15.887v-5.297
			c0-8.772,7.112-15.885,15.886-15.885h64.009c8.773,0,15.886,7.113,15.886,15.885V108.053z"/>
	</g>
	<g>
		<path fill="#010101" d="M115.597,143.941c2.731,0,4.947-5.002,4.947-7.734v-8.389c0-2.732-2.216-2.439-4.947-2.439V143.941z"/>
	</g>
	<g>
		<path fill="#010101" d="M91.965,131.965v-4.088c0-1.385-1.123-2.508-2.509-2.508l0,0c-1.385,0-2.508,1.123-2.508,2.508v4.088
			H91.965z"/>
		<path fill="#010101" d="M99.101,131.965v-4.088c0-1.385-1.123-2.508-2.509-2.508l0,0c-1.386,0-2.509,1.123-2.509,2.508v4.088
			H99.101z"/>
		<path fill="#010101" d="M106.235,131.965v-4.088c0-1.385-1.124-2.508-2.509-2.508l0,0c-1.386,0-2.509,1.123-2.509,2.508v4.088
			H106.235z"/>
		<path fill="#010101" d="M113.369,131.965v-4.088c0-1.385-1.123-2.508-2.509-2.508l0,0c-1.385,0-2.507,1.123-2.507,2.508v4.088
			H113.369z"/>
		<path fill="#010101" d="M120.504,131.965v-4.088c0-1.385-1.122-2.508-2.508-2.508l0,0c-1.385,0-2.509,1.123-2.509,2.508v4.088
			H120.504z"/>
		<path fill="#010101" d="M127.64,131.965v-4.088c0-1.385-1.124-2.508-2.509-2.508l0,0c-1.386,0-2.508,1.123-2.508,2.508v4.088
			H127.64z"/>
	</g>
	<g>
		<path fill="#010101" d="M94.079,127.6c0-1.23,1.013-2.23,2.261-2.23l2.755,0.01v18.562c-2.771,0-5.016-5.002-5.016-7.734V127.6z"
			/>
	</g>
	<g>
		<path fill="#010101" d="M102.646,146.979c-1.529,0-2.769,2.799-2.769,4.328v4.697c0,1.529,1.239,1.365,2.769,1.365V146.979z"/>
	</g>
	<g>
		<path fill="#010101" d="M115.875,153.682v2.289c0,0.775,0.629,1.404,1.404,1.404l0,0c0.775,0,1.403-0.629,1.403-1.404v-2.289
			H115.875z"/>
		<path fill="#010101" d="M111.881,153.682v2.289c0,0.775,0.628,1.404,1.404,1.404l0,0c0.775,0,1.403-0.629,1.403-1.404v-2.289
			H111.881z"/>
		<path fill="#010101" d="M107.887,153.682v2.289c0,0.775,0.628,1.404,1.404,1.404l0,0c0.775,0,1.405-0.629,1.405-1.404v-2.289
			H107.887z"/>
		<path fill="#010101" d="M103.893,153.682v2.289c0,0.775,0.629,1.404,1.404,1.404l0,0c0.775,0,1.404-0.629,1.404-1.404v-2.289
			H103.893z"/>
		<path fill="#010101" d="M99.899,153.682v2.289c0,0.775,0.628,1.404,1.403,1.404l0,0c0.775,0,1.404-0.629,1.404-1.404v-2.289
			H99.899z"/>
		<path fill="#010101" d="M95.904,153.682v2.289c0,0.775,0.629,1.404,1.404,1.404l0,0c0.775,0,1.404-0.629,1.404-1.404v-2.289
			H95.904z"/>
	</g>
	<g>
		<path fill="#010101" d="M114.692,156.127c0,0.688-0.567,1.248-1.266,1.248l-1.544-0.006v-10.391c1.552,0,2.81,2.799,2.81,4.328
			V156.127z"/>
	</g>
	<g>
		<g>
			<path fill="#FFFFFF" d="M104.87,105.266L104.87,105.266c0-1.9-1.539-3.439-3.44-3.439h-5.158c-1.899,0-3.44,1.539-3.44,3.439l0,0
				c0,1.9,1.541,3.439,3.44,3.439h5.158h3.44V105.266z"/>
		</g>
		<g>
			<path fill="#FFFFFF" d="M108.13,105.266L108.13,105.266c0-1.9,1.54-3.439,3.44-3.439h5.159c1.899,0,3.439,1.539,3.439,3.439l0,0
				c0,1.9-1.54,3.439-3.439,3.439h-5.159h-3.44V105.266z"/>
		</g>
	</g>
	<g>
		<g>
			<g>
				<circle fill="#FFFFFF" cx="74.96" cy="101.176" r="0.649"/>
			</g>
			<g>
				<circle fill="#FFFFFF" cx="68.83" cy="105.404" r="0.649"/>
			</g>
			<g>
				<circle fill="#FFFFFF" cx="74.775" cy="110.469" r="0.649"/>
			</g>
		</g>
		<g>
			<g>
				<circle fill="#FFFFFF" cx="139.627" cy="101.176" r="0.649"/>
			</g>
			<g>
				<circle fill="#FFFFFF" cx="145.758" cy="105.404" r="0.65"/>
			</g>
			<g>
				<circle fill="#FFFFFF" cx="139.812" cy="110.469" r="0.649"/>
			</g>
		</g>
	</g>
	<g>
		<g>
			<path fill="#010101" d="M62.512,106.291H46.068c-0.462,0-0.836-0.373-0.836-0.836s0.374-0.836,0.836-0.836h16.443
				c0.462,0,0.836,0.373,0.836,0.836S62.974,106.291,62.512,106.291z"/>
		</g>
		<g>
			<g>
				<path fill="#010101" d="M62.256,101.814c-0.067,0-0.138-0.008-0.207-0.025L46.116,97.72c-0.446-0.115-0.717-0.57-0.603-1.018
					s0.569-0.717,1.017-0.604l15.933,4.069c0.447,0.115,0.718,0.57,0.604,1.018C62.97,101.564,62.63,101.814,62.256,101.814z"/>
			</g>
			<g>
				<path fill="#010101" d="M46.323,114.836c-0.373,0-0.713-0.25-0.81-0.629c-0.114-0.447,0.156-0.902,0.603-1.016l15.933-4.07
					c0.446-0.115,0.903,0.156,1.018,0.604s-0.156,0.902-0.604,1.018l-15.933,4.068C46.461,114.828,46.391,114.836,46.323,114.836z"
					/>
			</g>
		</g>
		<g>
			<path fill="#010101" d="M166.933,106.291h-16.444c-0.461,0-0.836-0.375-0.836-0.836c0-0.463,0.375-0.836,0.836-0.836h16.444
				c0.461,0,0.836,0.373,0.836,0.836C167.769,105.916,167.394,106.291,166.933,106.291z"/>
		</g>
		<g>
			<g>
				<path fill="#010101" d="M166.678,114.836c-0.068,0-0.139-0.008-0.208-0.025l-15.932-4.068c-0.448-0.115-0.719-0.57-0.604-1.018
					c0.113-0.447,0.568-0.719,1.018-0.604l15.932,4.068c0.446,0.115,0.718,0.57,0.604,1.018
					C167.39,114.586,167.05,114.836,166.678,114.836z"/>
			</g>
			<g>
				<path fill="#010101" d="M150.744,101.814c-0.374,0-0.713-0.25-0.81-0.629c-0.115-0.447,0.155-0.902,0.604-1.018l15.932-4.069
					c0.447-0.114,0.902,0.156,1.018,0.604c0.114,0.447-0.157,0.902-0.604,1.018l-15.932,4.069
					C150.882,101.807,150.812,101.814,150.744,101.814z"/>
			</g>
		</g>
	</g>
	<g>
		<path fill="#010101" d="M180.006,56.029L180.006,56.029c0,4.49-3.64,8.129-8.128,8.129h-16.38
			c-4.489,0.001-8.128-3.639-8.128-8.128l0,0c0-4.489,3.64-8.128,8.128-8.128h16.38h8.128V56.029z"/>
	</g>
	<g>
		<path fill="#010101" d="M32.994,56.029L32.994,56.029c0,4.49,3.64,8.129,8.129,8.129h16.379c4.489,0.001,8.128-3.639,8.128-8.128
			l0,0c0-4.489-3.639-8.128-8.128-8.128H41.123h-8.129V56.029z"/>
	</g>
</g>
</svg>
