<?xml version="1.0" encoding="utf-8"?>
<!-- Generator: Adobe Illustrator 15.1.0, SVG Export Plug-In . SVG Version: 6.00 Build 0)  -->
<!DOCTYPE svg PUBLIC "-//W3C//DTD SVG 1.1//EN" "http://www.w3.org/Graphics/SVG/1.1/DTD/svg11.dtd">
<svg version="1.1" id="Layer_1" xmlns="http://www.w3.org/2000/svg" xmlns:xlink="http://www.w3.org/1999/xlink" x="0px" y="0px"
	 width="213px" height="213px" viewBox="0 0 213 213" enable-background="new 0 0 213 213" xml:space="preserve">
<g>
	<g>
		<g>
			<path fill="#030303" d="M106.177,38.627c1.681,1.276,2.994,2.553,4.186,3.829c1.193,1.278,2.26,2.554,3.194,3.831
				c1.863,2.553,3.311,5.105,4.417,7.66c2.226,5.106,3.152,10.213,3.111,15.32c-0.051,5.106-1.022,10.214-3.264,15.32
				c-1.109,2.553-2.551,5.107-4.395,7.661c-0.467,0.638-0.942,1.276-1.48,1.915c-0.541,0.639-1.051,1.276-1.665,1.915
				c-1.177,1.276-2.461,2.553-4.104,3.829c-0.134,0.104-0.318,0.1-0.445,0c-1.644-1.276-2.929-2.553-4.104-3.829
				c-0.613-0.639-1.124-1.276-1.665-1.915c-0.538-0.639-1.014-1.277-1.479-1.915c-1.845-2.554-3.286-5.108-4.396-7.661
				c-2.241-5.106-3.213-10.214-3.264-15.32c-0.042-5.107,0.886-10.214,3.111-15.32c1.106-2.555,2.554-5.107,4.417-7.66
				c0.934-1.277,2.001-2.553,3.193-3.831c1.192-1.276,2.505-2.553,4.187-3.829C105.867,38.525,106.049,38.53,106.177,38.627z"/>
		</g>
		<g>
			<path fill="#FFFFFF" d="M105.954,100.623c-0.292,0-0.528-0.235-0.528-0.528V38.811c0-0.291,0.236-0.527,0.528-0.527
				s0.528,0.236,0.528,0.527v61.283C106.482,100.387,106.246,100.623,105.954,100.623z"/>
		</g>
		<g>
			<g>
				<path fill="#FFFFFF" d="M105.751,86.973c-0.234,0-0.468-0.09-0.646-0.269l-8.629-8.628c-0.357-0.358-0.357-0.938,0-1.296
					c0.357-0.357,0.938-0.357,1.295,0l8.629,8.628c0.357,0.358,0.357,0.938,0,1.296C106.22,86.883,105.985,86.973,105.751,86.973z"
					/>
			</g>
			<g>
				<path fill="#FFFFFF" d="M105.751,77.672c-0.234,0-0.469-0.089-0.648-0.268l-7.86-7.861c-0.357-0.357-0.357-0.938,0-1.295
					c0.358-0.357,0.938-0.357,1.296,0l7.86,7.861c0.357,0.357,0.357,0.937,0,1.295C106.22,77.583,105.985,77.672,105.751,77.672z"/>
			</g>
			<g>
				<path fill="#FFFFFF" d="M105.751,68.374c-0.234,0-0.468-0.089-0.646-0.268l-7.096-7.095c-0.357-0.358-0.357-0.938,0-1.296
					c0.357-0.357,0.938-0.357,1.295,0l7.096,7.096c0.357,0.357,0.357,0.938,0,1.295C106.22,68.285,105.985,68.374,105.751,68.374z"
					/>
			</g>
			<g>
				<path fill="#FFFFFF" d="M105.751,59.076c-0.234,0-0.468-0.09-0.646-0.269l-6.329-6.328c-0.357-0.357-0.357-0.938,0-1.295
					c0.358-0.358,0.938-0.358,1.296,0l6.328,6.328c0.357,0.357,0.357,0.938,0,1.295C106.22,58.986,105.985,59.076,105.751,59.076z"
					/>
			</g>
		</g>
	</g>
	<g>
		<g>
			<path fill="#030303" d="M43.804,53.842c2.481-0.339,4.653-0.369,6.725-0.299c2.071,0.068,4.037,0.246,5.891,0.535
				c3.704,0.578,7.061,1.506,10.129,2.719c6.15,2.417,11.212,5.924,15.46,10.24c4.239,4.328,7.708,9.424,10.112,15.587
				c1.21,3.073,2.143,6.423,2.738,10.111c0.145,0.927,0.281,1.86,0.364,2.849s0.189,1.952,0.211,3.001
				c0.083,2.058,0.076,4.206-0.229,6.655c-0.027,0.199-0.185,0.35-0.374,0.373c-2.451,0.309-4.601,0.315-6.656,0.231
				c-1.049-0.021-2.013-0.128-3.001-0.212s-1.922-0.22-2.848-0.363c-3.689-0.596-7.039-1.529-10.11-2.74
				c-6.164-2.402-11.262-5.871-15.589-10.11c-4.316-4.249-7.823-9.31-10.238-15.46c-1.215-3.069-2.144-6.425-2.723-10.13
				c-0.287-1.853-0.463-3.819-0.533-5.891c-0.07-2.07-0.039-4.242,0.299-6.724C43.458,54.016,43.614,53.868,43.804,53.842z"/>
		</g>
		<g>
			<path fill="#FFFFFF" d="M95.172,106.111c-0.134,0-0.271-0.051-0.373-0.154L43.399,54.557c-0.207-0.206-0.207-0.541,0-0.746
				c0.206-0.207,0.54-0.207,0.746,0l51.4,51.398c0.205,0.206,0.205,0.541,0,0.747C95.442,106.06,95.308,106.111,95.172,106.111z"/>
		</g>
		<g>
			<g>
				<path fill="#FFFFFF" d="M83.227,94.896H68.755c-0.506,0-0.916-0.41-0.916-0.916s0.41-0.916,0.916-0.916h14.472
					c0.505,0,0.916,0.41,0.916,0.916S83.731,94.896,83.227,94.896z"/>
			</g>
			<g>
				<path fill="#FFFFFF" d="M75.428,87.096L75.428,87.096L62.24,87.095c-0.505,0-0.916-0.41-0.916-0.916s0.411-0.916,0.916-0.916
					l0,0l13.188,0.001c0.505,0,0.916,0.41,0.916,0.916S75.933,87.096,75.428,87.096z"/>
			</g>
			<g>
				<path fill="#FFFFFF" d="M67.629,79.297h-11.9c-0.507,0-0.916-0.41-0.916-0.916s0.409-0.916,0.916-0.916h11.9
					c0.506,0,0.916,0.41,0.916,0.916S68.135,79.297,67.629,79.297z"/>
			</g>
			<g>
				<path fill="#FFFFFF" d="M59.829,71.498H49.214c-0.506,0-0.916-0.41-0.916-0.916s0.41-0.916,0.916-0.916h10.615
					c0.506,0,0.916,0.41,0.916,0.916S60.335,71.498,59.829,71.498z"/>
			</g>
		</g>
	</g>
	<g>
		<g>
			
				<rect x="90.515" y="136.877" transform="matrix(-0.7071 -0.7071 0.7071 -0.7071 135.7316 337.5433)" fill="#010101" width="94.516" height="7.568"/>
		</g>
		<g>
			
				<rect x="149.255" y="161.207" transform="matrix(-0.7071 -0.7071 0.7071 -0.7071 160.0562 396.2824)" fill="#010101" width="25.698" height="7.568"/>
		</g>
		<g>
			
				<rect x="151.666" y="151.561" transform="matrix(-0.7071 -0.7071 0.7071 -0.7071 150.4169 372.9962)" fill="#FFFFFF" width="1.585" height="7.569"/>
		</g>
		<g>
			<circle fill="#231F20" cx="99.737" cy="106.591" r="0.363"/>
		</g>
		<g>
			<circle fill="#231F20" cx="100.391" cy="105.939" r="0.363"/>
		</g>
		<g>
			<circle fill="#231F20" cx="101.044" cy="105.285" r="0.363"/>
		</g>
		<g>
			<circle fill="#231F20" cx="101.697" cy="104.632" r="0.363"/>
		</g>
		<g>
			<circle fill="#231F20" cx="102.351" cy="103.979" r="0.363"/>
		</g>
		<g>
			<circle fill="#231F20" cx="103.004" cy="103.325" r="0.363"/>
		</g>
		<g>
			<circle fill="#231F20" cx="103.657" cy="102.672" r="0.364"/>
		</g>
		<g>
			<circle fill="#231F20" cx="100.414" cy="107.269" r="0.363"/>
		</g>
		<g>
			<circle fill="#231F20" cx="101.067" cy="106.616" r="0.363"/>
		</g>
		<g>
			<circle fill="#231F20" cx="101.721" cy="105.962" r="0.363"/>
		</g>
		<g>
			<circle fill="#231F20" cx="102.375" cy="105.309" r="0.363"/>
		</g>
		<g>
			<circle fill="#231F20" cx="103.027" cy="104.656" r="0.363"/>
		</g>
		<g>
			<circle fill="#231F20" cx="103.681" cy="104.002" r="0.362"/>
		</g>
		<g>
			<circle fill="#231F20" cx="104.334" cy="103.349" r="0.363"/>
		</g>
		<g>
			<circle fill="#231F20" cx="101.176" cy="108.03" r="0.363"/>
		</g>
		<g>
			<circle fill="#231F20" cx="101.83" cy="107.377" r="0.362"/>
		</g>
		<g>
			<circle fill="#231F20" cx="102.481" cy="106.723" r="0.363"/>
		</g>
		<g>
			<circle fill="#231F20" cx="103.135" cy="106.07" r="0.363"/>
		</g>
		<g>
			<circle fill="#231F20" cx="103.789" cy="105.417" r="0.363"/>
		</g>
		<g>
			<circle fill="#231F20" cx="104.442" cy="104.763" r="0.363"/>
		</g>
		<g>
			<circle fill="#231F20" cx="105.095" cy="104.11" r="0.363"/>
		</g>
		<g>
			<circle fill="#231F20" cx="101.853" cy="108.706" r="0.363"/>
		</g>
		<g>
			<circle fill="#231F20" cx="102.506" cy="108.054" r="0.363"/>
		</g>
		<g>
			<circle fill="#231F20" cx="103.158" cy="107.399" r="0.363"/>
		</g>
		<g>
			<circle fill="#231F20" cx="103.812" cy="106.747" r="0.363"/>
		</g>
		<g>
			<circle fill="#231F20" cx="104.466" cy="106.093" r="0.363"/>
		</g>
		<g>
			<circle fill="#231F20" cx="105.119" cy="105.439" r="0.363"/>
		</g>
		<g>
			<circle fill="#231F20" cx="105.772" cy="104.787" r="0.363"/>
		</g>
		<g>
			<circle fill="#231F20" cx="99.435" cy="105.542" r="0.363"/>
		</g>
		<g>
			<circle fill="#231F20" cx="100.087" cy="104.888" r="0.363"/>
		</g>
		<g>
			<circle fill="#231F20" cx="100.741" cy="104.235" r="0.363"/>
		</g>
		<g>
			<circle fill="#231F20" cx="101.394" cy="103.582" r="0.363"/>
		</g>
		<g>
			<circle fill="#231F20" cx="102.047" cy="102.928" r="0.362"/>
		</g>
		<g>
			<circle fill="#231F20" cx="102.701" cy="102.275" r="0.363"/>
		</g>
	</g>
</g>
</svg>
