<?xml version="1.0" encoding="utf-8"?>
<!-- Generator: Adobe Illustrator 15.1.0, SVG Export Plug-In . SVG Version: 6.00 Build 0)  -->
<!DOCTYPE svg PUBLIC "-//W3C//DTD SVG 1.1//EN" "http://www.w3.org/Graphics/SVG/1.1/DTD/svg11.dtd">
<svg version="1.1" id="Layer_1" xmlns="http://www.w3.org/2000/svg" xmlns:xlink="http://www.w3.org/1999/xlink" x="0px" y="0px"
	 width="472.969px" height="61.891px" viewBox="0 0 472.969 61.891" enable-background="new 0 0 472.969 61.891"
	 xml:space="preserve">
<rect x="-1254.734" y="-1501.556" fill="#274FA3" width="960" height="640"/>
<g>
	<defs>
		<rect id="SVGID_1_" x="-1254.734" y="-1501.556" width="960" height="640"/>
	</defs>
	<clipPath id="SVGID_2_">
		<use xlink:href="#SVGID_1_"  overflow="visible"/>
	</clipPath>
	<path clip-path="url(#SVGID_2_)" fill="none" d="M-700.49-1070.44c10.58-12.034,36.3-20.76,66.292-21.199
		c31.363-0.458,89.087,16.226,115.534,24.442c-1.119-0.646-2.306-1.327-3.547-2.034c-27.289-13.008-82.666-37.477-112.202-37.043
		C-668.784-1105.769-693.618-1088.797-700.49-1070.44z"/>
	<path clip-path="url(#SVGID_2_)" fill="none" d="M-1114.18-1298.698c0.949-1.3,2.466-1.857,4.264-1.857c0.002,0,0.182,0,0.182,0
		v-0.705C-1111.734-1301.259-1113.252-1300.094-1114.18-1298.698z"/>
	<path clip-path="url(#SVGID_2_)" fill="none" d="M-701.923-1061.606c1.03,0.473,2.576,0.974,4.609,1.478
		c-1.349-1.322-2.53-2.688-3.576-4.079C-701.332-1063.343-701.678-1062.474-701.923-1061.606z"/>
	<path clip-path="url(#SVGID_2_)" fill="none" d="M-634.245-1052.39c-18.795,0.274-36.407-0.493-49.808-2.16
		c0.238,0.13,0.466,0.265,0.708,0.394c13.233,7.022,30.938,10.736,49.85,10.457c29.104-0.423,82.483-10.146,110.129-15.564
		C-551.328-1056.959-604.934-1052.819-634.245-1052.39z"/>
	<path clip-path="url(#SVGID_2_)" fill="none" d="M-529.561-1067.06c-28.966-8.631-77.509-21.702-104.59-21.308
		c-30.696,0.451-53.81,9.232-63.386,19.488c14.962-4.379,44.829-6.076,62.956-6.344
		C-607.262-1075.622-558.777-1070.507-529.561-1067.06z"/>
	<path clip-path="url(#SVGID_2_)" fill="none" d="M-909-1309.269c-0.24,0-0.466-0.062-0.668-0.16l-9.652,14.109l-0.227-0.169
		l-0.013,0.019l0.239,0.166l9.652-14.116c0.202,0.098,0.428,0.159,0.668,0.159c0.848,0,1.539-0.682,1.543-1.531l7.182-7.174
		l-0.009-0.009l-7.173,7.173C-907.461-1309.953-908.152-1309.269-909-1309.269z"/>
	<path clip-path="url(#SVGID_2_)" fill="none" d="M-1114.684-1293.771c0.758,1.929,1.949,3.045,4.949,3.048v0.168
		c0,0-0.18,0-0.182,0C-1112.086-1290.556-1113.881-1291.97-1114.684-1293.771z"/>
	<path clip-path="url(#SVGID_2_)" fill="none" d="M-1089.805-1270.737c-1.274,0.966-2.325,2.437-2.325,4.086
		c0,1.259,0.612,2.413,1.468,3.319c-0.651-0.923-1.042-2.044-1.042-3.22C-1091.704-1268.178-1090.965-1269.706-1089.805-1270.737z"
		/>
	<path clip-path="url(#SVGID_2_)" fill="none" d="M-684.549-1035.993c-5.1-2.253-9.365-4.841-12.705-7.641
		c3.343,5.308,8.229,10.267,14.432,14.504c13.228,9.037,30.891,13.861,49.739,13.585c25.405-0.372,69.372-19.715,98.293-33.901
		c-29.133,9.436-72.592,22.001-98.461,22.379C-652.665-1026.784-670.882-1029.954-684.549-1035.993z"/>
	<path clip-path="url(#SVGID_2_)" fill="none" d="M-634.461-1109.543c18.359-0.269,45.734,8.493,70.627,18.386
		c-25.031-12.003-52.688-22.813-70.688-22.549c-40.764,0.596-68.146,18.981-68.146,35.777c0.017,1.153,0.161,2.304,0.414,3.447
		C-693.482-1092.831-668.426-1109.045-634.461-1109.543z"/>
	<path clip-path="url(#SVGID_2_)" fill="none" d="M-634.293-1055.661c30.173-0.441,86.234-4.831,113.294-7.081
		c-27.08-3.308-83.367-9.65-113.532-9.21c-32.066,0.469-53.573,3.659-63.191,6.499c1.854,2.329,4.211,4.562,7.018,6.659
		C-679.211-1056.871-660.151-1055.282-634.293-1055.661z"/>
	<path clip-path="url(#SVGID_2_)" fill="none" d="M-1101.093-1325.55c0-0.116,0.01-0.23,0.018-0.346
		c-0.02,0.187-0.055,0.369-0.055,0.561c0,2.376,1.521,4.357,3.706,5.016C-1099.551-1321.053-1101.093-1323.196-1101.093-1325.55z"/>
	<path clip-path="url(#SVGID_2_)" fill="none" d="M-684.879-1051.27c-2.633-1.397-5.036-2.9-7.213-4.484
		c-4.846-0.879-8.078-1.809-10.236-2.706c0.056,0.825,0.142,1.649,0.271,2.472c1.498,6.252,8.18,12.299,18.83,17.006
		c13.247,5.852,30.977,8.925,49.926,8.646c27.24-0.396,75.79-15.057,104.428-24.529c-28.939,5.557-77.271,14.037-104.575,14.436
		C-652.902-1040.145-671.164-1043.993-684.879-1051.27z"/>
	<path clip-path="url(#SVGID_2_)" fill="#231F20" d="M-722.877-879.613c-13.561-8.864-27.178-17.656-40.453-26.886
		c-6.636-4.613-13.222-9.288-19.967-13.766c-3.393-2.217-6.664-4.579-9.709-7.229c-0.708-0.737-1.646-1.174-2.154-2.16
		c-0.057-0.748,0.272-1.981,0.266-2.783c-0.059-0.741-0.479-0.954-0.752-1.423c-1.287-1.623-2.743-2.992-4.812-3.597l-1.11,1.414
		l-157.817-124.129c0,0-2.427-1.649-4.06,0.424c-1.631,2.073-3.254,6.984-1.585,12.214c1.669,5.227,16.73,40.61,63.631,77.5
		c46.896,36.887,64.294,50.572,64.294,50.572s4.383,2.322,11.061-1.187c6.682-3.515,11.143-1.678,12.713-0.443l-1.447,1.843
		c1.076,1.868,2.744,2.966,4.627,3.832c0.52,0.158,0.844,0.529,1.576,0.411c0.783-0.185,1.894-0.799,2.634-0.919
		c1.077,0.262,1.72,1.063,2.603,1.575c3.294,2.336,6.358,4.961,9.311,7.733c5.943,5.5,12.037,10.797,18.082,16.164
		c12.098,10.725,23.849,21.889,35.657,32.977c11.788,11.116,23.714,22.057,36.237,32.233c6.229,5.135,12.648,10.024,19.113,14.86
		c3.265,2.379,6.521,4.762,9.832,7.076c1.721,1.072,4.228,1.507,7.182,1.012c3.066-0.635,6.781-1.719,11.975-5.086l1.631-2.075
		c2.053-5.842,2.229-9.705,2.123-12.832c-0.217-2.993-1.141-5.257-2.592-6.677c-3.031-2.672-6.156-5.309-9.236-7.922
		c-6.225-5.142-12.508-10.247-18.964-15.089C-695.828-861.752-709.297-870.777-722.877-879.613z"/>
	<path clip-path="url(#SVGID_2_)" fill="#231F20" d="M-1123.974-1171.691c-0.651-0.473-1.011-1.26-2.092-1.275
		c-0.997-0.106-2.084-0.111-3.131-0.17l-6.309-0.275c-4.178-0.219-8.477-0.309-12.579-0.608l-3.075-0.225
		c-0.993-0.106-2.155-0.036-2.888-0.424c-1.289-0.962-2.358-2.155-3.551-3.224l-13.94-13.156
		c-9.312-8.757-18.394-17.759-27.053-27.208c-8.781-9.323-17.205-19.022-25.612-28.739c-16.751-19.512-32.959-39.592-50.201-58.574
		c-8.63-9.481-17.603-18.601-26.84-27.434c-4.585-4.451-9.325-8.741-14.065-13.034c-2.495-2.01-5.865-3.403-9.998-3.67
		c-4.241-0.154-8.663,0.749-16.304,3.046l-2.41,2.566c-1.805,7.77-2.423,12.237-2.007,16.465c0.535,4.102,2.057,7.306,4.223,9.665
		c4.576,4.466,9.205,8.956,13.938,13.251c9.396,8.661,19.089,17.055,29.094,25.07c20.039,16,41.117,30.915,61.648,46.398
		c10.23,7.773,20.452,15.57,30.309,23.744c9.979,8.043,19.542,16.538,28.873,25.272l14.011,13.086
		c1.14,1.122,2.407,2.109,3.446,3.335c0.431,0.711,0.438,1.873,0.604,2.858l0.418,3.059c0.561,4.072,0.928,8.351,1.404,12.512
		l0.678,6.278c0.127,1.036,0.201,2.122,0.365,3.115c0.083,1.077,0.895,1.387,1.406,2.004l6.863,6.695
		c4.574,4.391,9.199,8.729,13.973,12.908c0.035,0.036,0.064,0.078,0.103,0.113l64.22,58.062c0.409,0.365,1.037,0.352,1.428-0.05
		c0.394-0.402,0.383-1.05-0.022-1.448l-57.899-56.408c-1.642-1.642-1.699-4.297-0.102-6.002c1.536-1.636,4.029-1.791,5.769-0.456
		l60.175,54.402c0.406,0.37,1.039,0.353,1.424-0.046c0.399-0.406,0.387-1.054-0.021-1.445l-58.445-56.942
		c-1.143-1.639-1.023-3.905,0.4-5.421c1.633-1.741,4.367-1.827,6.105-0.194l0.03-0.025l59.853,54.114
		c0.41,0.369,1.04,0.354,1.427-0.045c0.397-0.406,0.385-1.053-0.022-1.449l-58.034-56.54c-1.509-1.651-1.534-4.199,0.024-5.858
		c1.572-1.674,4.159-1.803,5.902-0.352l60.051,54.287c0.408,0.368,1.039,0.354,1.427-0.047c0.394-0.403,0.419-1.022,0.013-1.418
		l-61.978-60.382l0.038-0.041c-4.223-4.273-9.199-8.948-13.909-13.267L-1123.974-1171.691z"/>
	<g clip-path="url(#SVGID_2_)">
		<path fill="#231F20" d="M-1285.15-778.342c2.326-0.55,4.223-1.393,5.737-3.062l289.498-317.579
			c0.397-0.439,0.421-1.165-0.005-1.584c-0.443-0.437-1.229-0.545-1.662-0.105l-301.386,306.133c-0.068,0.07-0.17,0.179-0.244,0.257
			c-1.464,1.545-1.971,3.687-2.452,5.986L-1285.15-778.342z"/>
		<path fill="#231F20" d="M-1277.031-770.651l10.515,9.958c2.324-0.555,4.22-1.397,5.738-3.062l289.494-317.584
			c0.396-0.44,0.426-1.16-0.005-1.584c-0.439-0.432-1.126-0.449-1.562-0.01l-301.291,306.24c-0.068,0.07-0.316,0.331-0.389,0.411
			C-1275.963-774.708-1276.552-772.952-1277.031-770.651z"/>
	</g>
	<path clip-path="url(#SVGID_2_)" fill="#231F20" d="M-862.989-1412.614c0.855-7.433,0.685-15.18-0.885-23.379l-0.294-1.539
		l-0.352-1.549c-0.223-1.038-0.516-2.095-0.789-3.14c-0.604-2.117-1.26-4.255-2.064-6.437c-0.815-2.184-1.709-4.394-2.822-6.672
		l-0.793-1.629c-0.704-0.496-3.737-2.279-3.846,3.371c-0.115,6.396-0.438,12.036-2.271,11.108c-1.835-0.935-2.306-1.084-2.306-1.084
		s-1.58-0.503-1.379-3.307c0.193-2.812-0.327-14.03-0.852-17.851c-0.529-3.824-3.466-3.1-4.277-1.36
		c-0.816,1.747-5.548,15.815-6.449,16.748c-0.906,0.925-2.275,0.583-3.463,0.205c-1.184-0.376-2.501-0.889-2.707-2.167
		c-0.2-1.282,4.062-15.501,4.402-17.398c0.349-1.887-1.629-4.174-4.264-1.356c-2.641,2.814-9.547,11.671-11.003,14.081
		c-1.464,2.403-3.042,1.901-3.042,1.901s-0.471-0.149-2.512-0.448c-2.025-0.299,0.965-5.092,4.564-10.379
		c3.171-4.676-0.333-4.972-1.198-4.975l-1.583,0.873c-2.223,1.218-4.228,2.506-6.158,3.816c-1.918,1.315-3.686,2.684-5.394,4.065
		c-0.827,0.694-1.681,1.388-2.46,2.106l-1.186,1.061l-1.136,1.084c-6.015,5.788-10.625,12.015-14.218,18.577
		c-3.571,6.562-6.127,13.443-7.73,20.64c-1.549,7.202-1.584,14.893-0.217,23.024c0.652,4.06,1.625,8.214,2.779,12.431
		c0.53,2.093,1.165,4.222,1.757,6.335l1.761,6.333c2.358,8.446,4.643,16.875,4.326,24.471l-47.297,148.741
		c-1.924,6.052,1.427,12.51,7.478,14.435c6.05,1.923,12.518-1.413,14.442-7.465l47.296-148.74
		c5.081-6.082,10.913-11.93,17.716-17.463l5.145-4.137c1.691-1.388,3.44-2.758,5.089-4.158c3.38-2.775,6.575-5.605,9.459-8.539
		c5.81-5.851,10.22-12.149,13.12-18.922C-865.758-1398.102-863.866-1405.195-862.989-1412.614z"/>
	<path clip-path="url(#SVGID_2_)" fill="#231F20" d="M-902.65-1124.029c5.856,24.168,30.194,39.011,54.362,33.154
		c15.253-3.696,26.783-14.758,31.747-28.487l0.03,0.055c6.016-18.042,19.093-20.5,19.093-20.5l64.508-15.632l22.353-1.3
		l132.959-32.22c0,0,5.672-14.751-6.595-27.212l-132.959,32.219l-20.232,10.047l-64.254,15.632c0,0-13.096,3.853-26.096-9.437v0.066
		c-11-9.934-26.262-14.467-41.514-10.771C-893.416-1172.557-908.506-1148.194-902.65-1124.029z M-584.521-1201.119
		c0.428,1.764-0.656,3.541-2.418,3.968c-1.765,0.428-3.537-0.657-3.965-2.421c-0.428-1.762,0.653-3.537,2.418-3.965
		C-586.725-1203.964-584.949-1202.881-584.521-1201.119z"/>
	<g clip-path="url(#SVGID_2_)">
		<path fill="#231F20" d="M-1144.606-1258.88c7.373-0.859,12.712-7.541,11.853-14.91l-9.297-79.752l1.987-0.232l12.016,103.07
			c0.858,7.367,7.589,12.641,14.963,11.78c7.374-0.859,12.714-7.539,11.855-14.906l-12.016-103.071l2.979-0.347l13.646,117.057
			c0.858,7.369,7.095,12.7,14.47,11.841c7.372-0.859,12.214-7.482,11.354-14.852l-13.646-117.057l2.979-0.348l10.928,93.744
			c0.859,7.369,7.592,12.64,14.966,11.779c7.372-0.859,12.712-7.537,11.853-14.906l-10.894-93.449l-1.355-10.207l2.15-0.251
			l3.113,26.702c0.858,7.365,7.505,12.33,14.879,11.471l4.078-0.475c2.34-0.273,4.229-2.098,3.956-4.441l-5.541-47.525
			c0,0-4.013-34.422-25.042-33.459l-0.008-0.066l-2.98,0.348l-0.556-4.764l-1.876-16.095l-36.478,4.253
			c-3.474,7.452-10.671,13.195-19.517,14.227s-17.172-2.902-22.267-9.355l-35.966,4.191l3.049,26.156l0.469,4.02l5.664,48.588
			l9.263,79.459C-1158.713-1263.296-1151.978-1258.02-1144.606-1258.88z M-1036.626-1380.935l2.583-0.301
			c0.323-0.037,0.603,0.107,0.641,0.432c0.037,0.318-0.202,0.523-0.525,0.562l-2.583,0.302c-0.319,0.037-0.603-0.107-0.64-0.428
			C-1037.188-1380.692-1036.945-1380.897-1036.626-1380.935z M-1036.395-1378.948l2.583-0.301c0.323-0.037,0.603,0.104,0.641,0.428
			c0.037,0.322-0.202,0.527-0.525,0.565l-2.583,0.302c-0.319,0.037-0.603-0.107-0.64-0.43
			C-1036.957-1378.708-1036.714-1378.911-1036.395-1378.948z M-1034.497-1355.007l3.284-0.383l1.485,14.055
			c0.192,1.646-0.779,3.273-2.767,3.504L-1034.497-1355.007z M-1073.596-1333.333c-0.319,0.037-0.602-0.109-0.639-0.432
			c-0.038-0.319,0.203-0.525,0.523-0.562l17.371-2.024c0.322-0.038,0.604,0.106,0.642,0.427c0.037,0.322-0.203,0.529-0.525,0.566
			 M-1073.479-1332.341l17.372-2.024c0.322-0.038,0.661,0.604,0.698,0.925s-0.145,1.023-0.467,1.062l-17.372,2.024
			c-0.319,0.037-0.66-0.604-0.697-0.925S-1073.799-1332.304-1073.479-1332.341z M-1066.551-1302.944
			c-0.323,0.037-0.662-0.605-0.699-0.928c-0.037-0.317,0.145-1.021,0.468-1.059l10.465-1.221c0.323-0.037,0.66,0.605,0.697,0.924
			c0.037,0.322-0.143,1.025-0.466,1.062 M-1066.319-1300.958c-0.323,0.038-0.604-0.106-0.641-0.427
			c-0.038-0.324,0.201-0.528,0.524-0.565l10.465-1.221c0.323-0.037,0.603,0.105,0.641,0.43c0.037,0.32-0.201,0.525-0.524,0.563
			 M-1068.335-1273.921c-0.136-1.165,0.857-1.733,2.101-1.879l2.678-0.312l0.023-0.003l0.108-0.012l10.465-1.221l0.307-0.035
			l0.022-0.004l2.402-0.279c1.441-0.168,2.724,0.689,2.839,1.684l-0.043,0.005l0.739,6.335c0.68,5.833-3.36,11.117-9.198,11.798
			c-5.835,0.681-10.98-3.533-11.661-9.366L-1068.335-1273.921z M-1101.234-1317.024l17.368-2.023
			c0.324-0.039,0.605,0.109,0.643,0.428c0.037,0.322-0.202,0.527-0.526,0.566l-17.368,2.023c-0.317,0.037-0.602-0.107-0.639-0.43
			C-1101.794-1316.778-1101.552-1316.987-1101.234-1317.024z M-1101.002-1315.036l17.368-2.025c0.324-0.037,0.662,0.605,0.7,0.928
			c0.037,0.32-0.145,1.021-0.469,1.059l-17.368,2.025c-0.317,0.037-0.659-0.603-0.696-0.923
			C-1101.505-1314.295-1101.319-1314.999-1101.002-1315.036z M-1082.567-1277.922l-10.467,1.22c-0.32,0.038-0.601-0.107-0.638-0.428
			c-0.038-0.322,0.201-0.527,0.521-0.564l10.467-1.221c0.322-0.037,0.602,0.107,0.64,0.43
			C-1082.007-1278.165-1082.245-1277.96-1082.567-1277.922z M-1081.697-1275.507c0.037,0.32-0.2,0.527-0.522,0.564l-10.467,1.221
			c-0.32,0.037-0.602-0.109-0.639-0.43s0.202-0.526,0.522-0.564l10.467-1.22
			C-1082.014-1275.974-1081.734-1275.827-1081.697-1275.507z M-1095.416-1247.135c0.857-1.277,1.46-2.275,2.7-2.42l2.808-0.328
			l0.21-0.023l9.933-1.158l0.324-0.038l2.731-0.318c1.442-0.168,2.728,0.688,2.959,2.675l0.293-0.033l0.677,5.811
			c0.681,5.832-3.858,11.176-9.693,11.855c-5.84,0.681-11.479-3.476-12.158-9.309L-1095.416-1247.135z M-1130.956-1318.593
			l17.369-2.023c0.322-0.039,0.603,0.107,0.64,0.426c0.037,0.322-0.202,0.529-0.524,0.566l-17.369,2.025
			c-0.318,0.037-0.603-0.109-0.64-0.432C-1131.518-1318.348-1131.274-1318.556-1130.956-1318.593z M-1130.609-1315.612l17.369-2.025
			c0.322-0.037,0.603,0.109,0.641,0.43c0.037,0.322-0.202,0.525-0.524,0.564l-17.369,2.023c-0.318,0.037-0.603-0.104-0.64-0.427
			C-1131.171-1315.368-1130.928-1315.575-1130.609-1315.612z M-1113.335-1288.431l-10.464,1.221c-0.32,0.037-0.6-0.109-0.637-0.43
			c-0.038-0.32,0.2-0.527,0.521-0.564l10.464-1.219c0.325-0.039,0.604,0.107,0.643,0.428
			C-1112.771-1288.675-1113.01-1288.468-1113.335-1288.431z M-1112.462-1286.015c0.037,0.318-0.2,0.527-0.525,0.564l-10.464,1.221
			c-0.32,0.037-0.601-0.111-0.638-0.43c-0.037-0.324,0.201-0.527,0.521-0.564l10.464-1.219
			C-1112.778-1286.481-1112.499-1286.339-1112.462-1286.015z M-1125.852-1257.768c-0.136-1.16,1.133-1.76,2.372-1.904l2.362,0.117
			h0.002l0.442-0.443l10.464-1.387l0.016-0.169h0.002l2.717-0.346c1.444-0.168,2.727,0.674,2.958,2.661l-0.361,0.036l0.668,5.725
			c0.68,5.83-3.361,11.115-9.2,11.795c-5.838,0.681-10.979-3.536-11.658-9.366L-1125.852-1257.768z M-1156.646-1315.597
			l10.463-1.221c0.322-0.037,0.602,0.107,0.64,0.426c0.037,0.324-0.202,0.529-0.524,0.568l-10.463,1.219
			c-0.321,0.037-0.604-0.106-0.641-0.431C-1157.209-1315.354-1156.967-1315.56-1156.646-1315.597z M-1156.299-1312.618l10.463-1.219
			c0.322-0.039,0.603,0.105,0.64,0.426c0.038,0.324-0.201,0.529-0.523,0.566l-10.463,1.221c-0.321,0.037-0.604-0.107-0.642-0.431
			C-1156.861-1312.375-1156.62-1312.581-1156.299-1312.618z M-1157.372-1277.708c-0.137-1.172,0.721-2.652,1.969-2.797l2.702-0.315
			l0.109-0.013l10.461-1.219l0.356-0.042l2.378-0.277c1.443-0.169,2.84,1.683,2.955,2.675l-0.021,0.003l0.729,6.251
			c0.681,5.832-3.357,11.118-9.197,11.799c-5.839,0.682-10.98-3.535-11.661-9.367L-1157.372-1277.708z"/>
		<path fill="#231F20" d="M-1125.553-1473.198c7.566-0.883,14.798,2.242,19.859,6.686l38.546-4.493l-12.043-103.301l-114.227,13.315
			l12.043,103.301l38.036-4.434C-1139.436-1467.612-1133.119-1472.316-1125.553-1473.198z"/>
		<path fill="#231F20" d="M-1098.25-1451.308c0.421,3.605,0.022,7.08-1.04,10.225l35.152-4.098l-2.663-22.846l-36.729,4.281
			C-1100.677-1460.05-1098.808-1456.093-1098.25-1451.308z"/>
		<path fill="#231F20" d="M-1147.086-1445.615c-0.558-4.785,0.353-9.065,2.276-13.317l-36.218,4.223l2.663,22.846l34.643-4.039
			C-1145.479-1438.72-1146.665-1442.009-1147.086-1445.615z"/>
		<path fill="#231F20" d="M-1120.096-1426.39c12.075-1.407,20.757-12.379,19.349-24.457c-1.407-12.077-12.38-20.757-24.455-19.35
			c-12.077,1.408-20.758,12.379-19.351,24.456C-1143.145-1433.662-1132.173-1424.981-1120.096-1426.39z M-1130.786-1456.128
			l0.01,0.008l0.007-0.01l7.957,6.301c0.845-0.094,1.603,0.514,1.7,1.356c0.028,0.238-0.007,0.47-0.08,0.682l15.138,7.952
			l-0.137,0.258l-0.02-0.011l-0.008,0.015l-15.154-7.94c-0.084,0.147-0.387,0.306-0.375,0.401l1.921,16.482l-0.993,0.115
			l-1.9-16.303c-1.018-0.096-1.252-0.639-1.33-1.309c-0.002-0.021-0.131-0.027-0.132-0.051l-7.929-6.273L-1130.786-1456.128z"/>
	</g>
	<path clip-path="url(#SVGID_2_)" fill="#231F20" d="M-456.689-1417.678c-2.543,3.029-4.773,6.498-6.708,10.398
		c-1.897,3.953-3.542,8.273-4.335,13.816c-0.549,3.918,2.002,7.686,5.93,8.546c5.467,1.194,10.092,1.169,14.458,0.774
		c4.333-0.443,8.363-1.318,12.089-2.643c3.736-1.301,7.199-2.999,10.439-5.018c1.596-1.041,3.23-2.029,4.635-3.355
		c1.393-1.332,2.447-3.158,3.268-5.318c1.66-4.293,2.084-10.367,3.48-15.049c0.695-2.339,1.582-4.411,2.762-6.052
		c1.195-1.62,2.662-2.847,4.023-4.237c6.25-4.977,11.839-9.679,18.393-13.613c13.262-7.642,25.777-16.348,39.68-23.07
		c6.895-3.437,13.829-6.818,20.354-10.787c3.266-1.983,6.468-4.062,9.562-6.291c3.258-1.99,6.006-4.713,5.258-12.479
		c-0.116-1.208-0.846-2.333-2.018-2.908c-7.012-3.419-10.525-1.799-13.53,0.556c-3.17,2.119-6.238,4.391-9.239,6.754
		c-6.002,4.726-11.6,10.034-17.23,15.291c-11.162,10.672-23.701,19.346-35.502,29.092c-5.981,4.761-12.504,8.442-19.191,12.463
		c-1.782,0.785-3.443,1.73-5.377,2.287c-1.952,0.527-4.201,0.635-6.637,0.466c-4.873-0.329-10.715-2.062-15.314-2.007
		c-2.312,0.01-4.391,0.359-6.126,1.197c-1.733,0.854-3.233,2.035-4.765,3.168C-451.359-1423.372-454.16-1420.718-456.689-1417.678z"
		/>
	<path clip-path="url(#SVGID_2_)" fill="#231F20" d="M-1197.756-988.469c2.58,2.998,5.645,5.758,9.184,8.295
		c3.596,2.51,7.594,4.828,12.938,6.503c3.779,1.173,7.908-0.738,9.389-4.477c2.06-5.203,2.779-9.771,3.093-14.145
		c0.261-4.348,0.045-8.466-0.661-12.356c-0.682-3.897-1.802-7.588-3.271-11.111c-0.771-1.742-1.483-3.515-2.566-5.114
		c-1.09-1.589-2.723-2.924-4.723-4.081c-3.97-2.33-9.896-3.727-14.292-5.858c-2.196-1.062-4.099-2.271-5.528-3.7
		c-1.406-1.44-2.381-3.085-3.533-4.653c-3.906-6.97-7.646-13.242-10.476-20.345c-5.405-14.318-11.983-28.072-16.38-42.876
		c-2.281-7.357-4.502-14.746-7.369-21.825c-1.432-3.543-2.969-7.038-4.67-10.449c-1.439-3.537-3.684-6.688-11.469-7.199
		c-1.211-0.08-2.439,0.458-3.196,1.523c-4.503,6.369-3.47,10.098-1.63,13.442c1.582,3.47,3.328,6.864,5.179,10.207
		c3.697,6.684,8.036,13.063,12.316,19.467c8.736,12.734,15.278,26.507,22.997,39.723c3.734,6.67,6.318,13.7,9.209,20.947
		c0.489,1.886,1.154,3.678,1.393,5.676c0.206,2.012-0.051,4.249-0.608,6.625c-1.11,4.757-3.761,10.243-4.447,14.791
		c-0.362,2.284-0.352,4.392,0.195,6.239c0.563,1.848,1.488,3.519,2.36,5.213C-1202.518-994.646-1200.35-991.454-1197.756-988.469z"
		/>
	<polygon clip-path="url(#SVGID_2_)" fill="#231F20" points="-574.601,-1429.395 -573.845,-1429.155 -571.827,-1429.866 
		-571.805,-1429.899 -475.211,-1461.021 -479.69,-1474.925 -577.295,-1443.48 -577.278,-1443.433 -578.724,-1442.923 
		-580.003,-1440.979 -582.499,-1441.222 -584.323,-1440.094 -585.161,-1437.937 -587.65,-1437.649 -589.201,-1436.167 
		-589.566,-1433.876 -591.942,-1433.073 -593.146,-1431.293 -593.022,-1428.977 -595.181,-1427.689 -595.976,-1425.708 
		-595.37,-1423.465 -597.206,-1421.76 -597.575,-1419.645 -596.506,-1417.589 -597.946,-1415.53 -597.859,-1413.39 
		-596.387,-1411.59 -597.36,-1409.281 -596.833,-1407.204 -595.011,-1405.761 -595.474,-1403.301 -594.526,-1401.383 
		-592.444,-1400.351 -592.378,-1397.843 -591.044,-1396.171 -588.79,-1395.599 -588.206,-1393.166 -586.549,-1391.805 
		-584.269,-1391.642 -583.216,-1389.306 -581.815,-1388.588 -581.313,-1388.33 -279.37,-1233.54 -272.526,-1246.887 
		-574.471,-1401.678 -574.974,-1401.936 -576.373,-1402.653 -577.062,-1402.441 -577.273,-1403.168 -578.946,-1404.493 
		-579.603,-1404.507 -579.628,-1405.296 -580.962,-1406.969 -581.593,-1407.124 -581.447,-1407.898 -582.403,-1409.812 
		-582.985,-1410.101 -582.677,-1410.834 -583.208,-1412.912 -583.716,-1413.315 -583.265,-1413.963 -583.353,-1416.101 
		-583.765,-1416.604 -583.184,-1417.146 -582.816,-1419.25 -583.114,-1419.827 -582.431,-1420.234 -581.63,-1422.22 
		-581.802,-1422.852 -581.052,-1423.104 -579.85,-1424.878 -579.884,-1425.526 -579.093,-1425.618 -577.546,-1427.098 
		-577.444,-1427.739 -576.659,-1427.664 -574.837,-1428.785 	"/>
	<polygon clip-path="url(#SVGID_2_)" fill="#231F20" points="-322.578,-987.71 -318.598,-1059.251 -318.631,-1059.253 
		-318.601,-1060.324 -319.547,-1061.648 -318.764,-1063.216 -319.038,-1064.686 -320.238,-1065.776 -319.801,-1067.469 
		-320.379,-1068.854 -321.779,-1069.667 -321.707,-1071.419 -322.566,-1072.647 -324.108,-1073.149 -324.408,-1074.879 
		-325.502,-1075.895 -327.113,-1076.065 -327.766,-1077.688 -329.053,-1078.459 -330.661,-1078.28 -331.641,-1079.734 
		-333.061,-1080.215 -334.602,-1079.706 -335.865,-1080.921 -337.352,-1081.096 -338.749,-1080.272 -340.237,-1081.191 
		-341.727,-1081.052 -342.923,-1079.954 -344.574,-1080.542 -346,-1080.091 -346.939,-1078.762 -348.674,-1078.992 
		-349.973,-1078.252 -350.479,-1076.608 -352.09,-1076.313 -352.908,-1075.581 -353.201,-1075.317 -542.249,-906.206 
		-535.582,-898.753 -346.534,-1067.864 -346.24,-1068.128 -345.422,-1068.86 -345.403,-1069.38 -344.885,-1069.344 
		-343.604,-1070.106 -343.434,-1070.535 -342.913,-1070.355 -341.486,-1070.807 -341.227,-1071.18 -340.758,-1070.891 
		-339.271,-1071.032 -338.938,-1071.34 -338.535,-1070.953 -337.047,-1070.779 -336.656,-1071.009 -336.349,-1070.553 
		-334.932,-1070.073 -334.501,-1070.214 -334.295,-1069.7 -333.014,-1068.931 -332.561,-1068.981 -332.466,-1068.436 
		-331.373,-1067.413 -330.918,-1067.367 -330.941,-1066.816 -330.087,-1065.588 -329.656,-1065.446 -329.793,-1064.909 
		-329.217,-1063.526 -328.823,-1063.3 -329.068,-1062.809 -328.797,-1061.339 -328.457,-1061.03 -328.805,-1060.597 
		-328.848,-1059.103 -328.828,-1059.076 -332.773,-988.276 	"/>
	<path clip-path="url(#SVGID_2_)" fill="#231F20" d="M-793.17-1475.866c-10.835,10.375-22.259,25.07-27.806,33.533
		c-5.547,8.462-14.467,24.802-19.66,38.876c-5.19,14.074,7.022,20.738,7.022,20.738s98.894,33.721,114.004,38.698
		c15.113,4.978,18.06-0.889,18.06-0.889l221.928,145.479l2.813-1.188l7.384-11.265l7.385-11.266l-0.039-3.045l-221.926-145.479
		c0,0,4.203-5.045-6.387-16.918c-10.592-11.874-80.901-89.2-80.901-89.2S-782.335-1486.24-793.17-1475.866z M-731.002-1364.298
		c0.63,0.878,0.621,2.018,0.065,2.866c-0.166,0.252-0.38,0.48-0.641,0.663c-1.133,0.82-2.717,0.56-3.531-0.575
		c-0.057-0.078-6.078-8.264-20.473-17.701c-7.578-4.968-14.439-6.838-21.075-8.647c-6.306-1.722-12.265-3.347-18.396-7.366
		c-12.359-8.102-23.879-20.908-24.362-21.451c-0.932-1.038-0.843-2.639,0.195-3.569c1.044-0.932,2.642-0.843,3.576,0.197
		c0.113,0.128,11.568,12.86,23.363,20.593c5.463,3.58,11.045,5.104,16.954,6.717c6.69,1.823,14.271,3.89,22.52,9.296
		C-737.542-1373.271-731.261-1364.656-731.002-1364.298z M-479.396-1225.589c2.729,1.788,3.436,5.526,1.648,8.253
		s-5.499,3.57-8.226,1.783l-35.263-23.115c-2.728-1.788-3.435-5.53-1.647-8.256c1.787-2.727,5.499-3.568,8.226-1.78
		L-479.396-1225.589z M-536.052-1262.728c2.728,1.787,3.436,5.526,1.648,8.254c-1.787,2.725-5.5,3.57-8.227,1.782l-35.264-23.116
		c-2.727-1.787-3.434-5.53-1.646-8.256s5.499-3.567,8.225-1.779L-536.052-1262.728z M-720.766-1379.913
		c0.63,0.876,0.621,2.017,0.066,2.864c-0.168,0.257-0.382,0.483-0.644,0.67c-1.133,0.816-2.716,0.555-3.529-0.58
		c-0.057-0.076-6.078-8.265-20.473-17.701c-7.578-4.969-14.439-6.839-21.074-8.646c-6.309-1.722-12.267-3.348-18.396-7.366
		c-12.359-8.103-23.88-20.909-24.363-21.452c-0.932-1.038-0.843-2.638,0.197-3.57c1.043-0.93,2.64-0.842,3.573,0.199
		c0.115,0.127,11.569,12.861,23.366,20.594c5.461,3.58,11.044,5.1,16.955,6.712c6.689,1.825,14.27,3.894,22.517,9.3
		C-727.307-1388.885-721.023-1380.273-720.766-1379.913z M-710.528-1395.529c0.628,0.877,0.62,2.018,0.064,2.867
		c-0.166,0.252-0.381,0.482-0.641,0.665c-1.133,0.818-2.717,0.558-3.532-0.576c-0.055-0.08-6.078-8.264-20.474-17.701
		c-7.577-4.968-14.438-6.839-21.073-8.648c-6.307-1.72-12.268-3.346-18.397-7.364c-12.359-8.102-23.879-20.908-24.361-21.451
		c-0.932-1.037-0.844-2.639,0.196-3.572c1.044-0.932,2.643-0.844,3.576,0.197c0.114,0.128,11.567,12.861,23.364,20.593
		c5.461,3.58,11.044,5.103,16.954,6.714c6.689,1.826,14.27,3.895,22.516,9.302C-717.072-1404.5-710.789-1395.887-710.528-1395.529z"
		/>
	<path clip-path="url(#SVGID_2_)" fill="#231F20" d="M-951.933-937.207c-14.23-4.744-32.557-7.994-42.632-8.955
		c-10.071-0.957-28.685-1.227-43.558,0.744c-14.87,1.974-15.067,15.886-15.067,15.886s16.3,103.205,18.944,118.893
		c2.647,15.69,9.211,15.559,9.211,15.559l-25.167,264.164l2.361,1.935l13.409,1.277l13.41,1.279l2.673-1.457l25.172-264.161
		c0,0,6.42,1.365,11.985-13.54c5.561-14.908,41.165-113.168,41.165-113.168S-937.7-932.461-951.933-937.207z M-1021.622-830.176
		c-0.483,0.967-1.494,1.489-2.505,1.396c-0.301-0.028-0.603-0.112-0.886-0.258c-1.254-0.619-1.762-2.142-1.137-3.393
		c0.042-0.086,4.475-9.229,6.106-26.365c0.859-9.021-0.685-15.962-2.181-22.676c-1.417-6.381-2.76-12.409-2.063-19.706
		c1.4-14.714,7.354-30.875,7.61-31.557c0.484-1.31,1.941-1.977,3.248-1.492c1.312,0.487,1.979,1.943,1.492,3.255
		c-0.059,0.159-5.979,16.232-7.315,30.273c-0.62,6.501,0.638,12.148,1.966,18.128c1.508,6.769,3.216,14.438,2.282,24.257
		C-1016.734-840.144-1021.425-830.57-1021.622-830.176z M-1026.958-542.917c-0.309,3.25-3.285,5.617-6.531,5.308
		c-3.246-0.309-5.724-3.198-5.415-6.445l4.001-41.973c0.309-3.247,3.289-5.617,6.534-5.309c3.244,0.31,5.721,3.2,5.411,6.445
		L-1026.958-542.917z M-1020.534-610.356c-0.307,3.246-3.285,5.617-6.531,5.31c-3.243-0.311-5.723-3.2-5.413-6.445l3.999-41.977
		c0.31-3.245,3.29-5.617,6.535-5.309c3.244,0.312,5.72,3.203,5.41,6.447L-1020.534-610.356z M-1003.034-828.404
		c-0.482,0.965-1.494,1.49-2.503,1.395c-0.307-0.028-0.606-0.113-0.894-0.257c-1.25-0.621-1.758-2.144-1.133-3.392
		c0.041-0.088,4.475-9.232,6.109-26.367c0.86-9.021-0.688-15.963-2.182-22.674c-1.421-6.383-2.762-12.413-2.065-19.707
		c1.4-14.713,7.356-30.877,7.61-31.558c0.484-1.31,1.941-1.976,3.252-1.492c1.307,0.49,1.975,1.941,1.489,3.255
		c-0.06,0.161-5.979,16.232-7.317,30.272c-0.619,6.503,0.641,12.149,1.971,18.13c1.507,6.769,3.212,14.438,2.276,24.254
		C-998.15-838.374-1002.836-828.802-1003.034-828.404z M-984.446-826.635c-0.483,0.966-1.496,1.492-2.506,1.396
		c-0.3-0.03-0.605-0.113-0.888-0.257c-1.253-0.62-1.76-2.143-1.138-3.394c0.045-0.085,4.475-9.231,6.109-26.366
		c0.858-9.02-0.687-15.962-2.18-22.675c-1.422-6.381-2.764-12.411-2.068-19.708c1.401-14.712,7.356-30.875,7.611-31.556
		c0.482-1.307,1.939-1.976,3.25-1.492c1.312,0.488,1.981,1.944,1.496,3.255c-0.061,0.161-5.982,16.232-7.318,30.272
		c-0.619,6.501,0.639,12.149,1.97,18.128c1.505,6.77,3.21,14.439,2.274,24.255C-979.563-836.607-984.251-827.031-984.446-826.635z"
		/>
	<path clip-path="url(#SVGID_2_)" fill="#231F20" d="M-518.649-1069.447c-2.054,0.45-3.257,0.359-4.927,0.495
		c-31.681,0.271-94.973,3.014-121.228,18.861c-33.692,20.344-52.507,51.615-41.797,69.952c1.378,2.28,3.255,4.259,5.536,5.933
		c0.333,1.482,0.758,2.918,1.271,4.3c-0.402,1.181-0.408,2.197,0.066,3.009c0.263,0.438,0.688,1.133,2.021,1.47
		c0.026,0.046,0.049,0.095,0.075,0.142l0.226,0.381c0.176,0.293,0.376,0.572,0.562,0.857c0.084,0.156,0.152,0.32,0.242,0.475
		c0.553,0.914,1.215,1.761,1.975,2.541c6.911,8.237,18.363,13.412,32.215,14.395c16.65,1.186,35.234-3.846,51.941-13.937
		c27.609-16.665,63.588-71.407,79.393-95.901l0.008,0.012l17.573-10.262l9.952,3.453l126.877-74.082
		c7.753-4.526,10.498-14.261,5.971-22.013c-4.527-7.755-14.354-10.147-22.105-5.621l-126.877,74.082l-1.381,11.228l-17.573,10.261
		L-518.649-1069.447z M-683.921-982.032c-8.469-14.504,5.907-44.189,40.81-65.257c15.41-9.304,44.745-13.915,72.414-16.171
		c-26.485,4.01-54.543,10.246-70.263,19.735c-29.08,17.556-42.543,44.192-40.865,64.462
		C-682.62-980.124-683.325-981.044-683.921-982.032z M-630.015-1025.594c23.188-13.996,71.698-27.186,101.064-34.337
		c-26.968,11.756-71.417,31.785-94.808,45.904c-15.52,9.371-40.455,25.896-51.168,37.223
		C-671.828-990.49-656.296-1009.727-630.015-1025.594z M-675.047-968.311c-0.227-0.873-0.365-1.797-0.42-2.768
		c1.605,0.674,3.314,1.258,5.145,1.719C-672.332-968.77-673.919-968.423-675.047-968.311z M-673.359-973.751
		c6.874-7.303,23.838-20.902,51.293-37.477c25.828-15.59,77.634-38.494,102.688-49.291c-22.234,15.586-68.434,47.645-94.268,63.24
		c-22.139,13.365-39.399,21.604-50.295,25.739C-667.423-971.935-670.584-972.676-673.359-973.751z M-592.374-963.245
		c-16.138,9.742-33.823,14.482-49.803,13.348c-7.493-0.531-14.214-2.35-19.776-5.248c4.296,0.734,9.285,0.818,14.824,0.191
		c14.848-1.676,32.178-8.123,48.801-18.157c22.148-13.37,53.344-46.135,73.744-68.972
		C-542.406-1015.25-570.622-976.377-592.374-963.245z M-600.021-975.909c-16.224,9.795-33.083,16.08-47.474,17.707
		c-11.57,1.305-20.391-0.548-24.836-5.191c-0.527-0.645-1.018-1.312-1.48-1.998c2.316-0.312,5.576-1.14,10.203-2.824
		c2.68,0.271,5.512,0.356,8.49,0.235c15.514-0.63,33.224-6.517,49.881-16.571c23.377-14.111,60.839-45.805,83.028-65.195
		C-542.162-1027.128-576.696-989.987-600.021-975.909z M-606.926-987.352c-16.19,9.777-33.354,15.498-48.322,16.105
		c-0.273,0.012-0.538,0.01-0.809,0.018c12.412-5.317,28.009-13.535,44.101-23.249c25.097-15.149,69.302-45.754,92.286-61.845
		C-540.812-1037.704-582.006-1002.392-606.926-987.352z M-359.599-1154.352c1.536,2.631,0.647,6.012-1.983,7.547
		c-2.63,1.535-6.013,0.65-7.549-1.98s-0.646-6.014,1.984-7.549C-364.516-1157.871-361.135-1156.983-359.599-1154.352z
		 M-523.697-1065.512c1.428-0.016,2.797-0.024,4.088-0.031c-26.982,6.239-85.242,20.938-112.096,37.148
		c-25.68,15.502-43.49,36.006-46.559,51.732c-3.322-19.316,9.566-46.496,38.993-64.264
		C-613.982-1056.193-553.822-1062.985-523.697-1065.512z"/>
</g>
<text transform="matrix(1 0 0 1 -869.3477 -1272.2402)"><tspan x="0" y="0" fill="#FFFFFF" font-family="'EuclidBPtestFont-Bold'" font-size="113.7852" letter-spacing="-1">Too </tspan><tspan x="-47.902" y="107.796" fill="#FFFFFF" font-family="'EuclidBPtestFont-Bold'" font-size="113.7852" letter-spacing="-1">Many </tspan><tspan x="-64.061" y="215.593" fill="#FFFFFF" font-family="'EuclidBPtestFont-Bold'" font-size="113.7852" letter-spacing="-1">Cooks</tspan></text>
<text transform="matrix(1 0 0 1 -938.832 -955.5557)"><tspan x="0" y="0" fill="#FFFFFF" font-family="'EuclidBPtestFont-Bold'" font-size="40">A culinary journey </tspan><tspan x="41.699" y="46" fill="#FFFFFF" font-family="'EuclidBPtestFont-Bold'" font-size="40">from Method </tspan></text>
<text transform="matrix(1 0 0 1 -1186.6328 -1191.0498)"><tspan x="0" y="0" fill="#FFFFFF" font-family="'EuclidBPtestFont-Bold'" font-size="40">Slot  </tspan><tspan x="-39.16" y="46" fill="#FFFFFF" font-family="'EuclidBPtestFont-Bold'" font-size="40">Machine</tspan></text>
<text transform="matrix(1 0 0 1 -455.9336 -1191.0498)"><tspan x="0" y="0" fill="#FFFFFF" font-family="'EuclidBPtestFont-Bold'" font-size="40">Recipe </tspan><tspan x="10.459" y="46" fill="#FFFFFF" font-family="'EuclidBPtestFont-Bold'" font-size="40">Index</tspan></text>
<g>
	<path fill="none" stroke="#FFFFFF" stroke-width="10" stroke-miterlimit="10" d="M-1145.375-1273.253
		c-7.14-7.14-18.709-7-25.85,0.141l-33.075,33.075"/>
	<polygon fill="none" stroke="#FFFFFF" stroke-width="10" stroke-miterlimit="10" points="-1164.745,-1240.079 -1205.344,-1239.847 
		-1205.112,-1280.446 	"/>
</g>
<g>
	<path fill="none" stroke="#FFFFFF" stroke-width="10" stroke-miterlimit="10" d="M-403.344-1273.253
		c7.14-7.14,18.709-7,25.85,0.141l33.075,33.075"/>
	<polygon fill="none" stroke="#FFFFFF" stroke-width="10" stroke-miterlimit="10" points="-383.974,-1240.079 -343.375,-1239.847 
		-343.606,-1280.446 	"/>
</g>
<g>
	<rect x="724.266" y="-1500.556" fill="#EFDC56" width="640" height="960"/>
	<g>
		<path fill="#FFFFFF" d="M1195.812-927.556c-0.002,0-0.002,0-0.003,0c-70.713,0-112.686-16.801-192.582-16.801
			c-79.893,0-111.001,16.707-111.001,16.707l0.007-0.181l23.568,247.274h256.435L1195.812-927.556z"/>
		<polygon fill="#EA6867" points="892.226,-927.68 915.801,-680.16 892.232,-927.683 		"/>
		<path fill="#EA6867" d="M852.394-1103.556l45.856,481h291.541l45.853-481h-23.29c0,0-16.544,175.473-16.542,175.473
			l-23.576,247.527H915.801l-23.575-247.321c0,0,0.005,0.175,0.007,0.175l-15.895-175.854H852.394z"/>
		<g>
			<g>
				<polygon fill="#EA6867" points="1042.162,-955.539 1042.163,-955.54 1042.162,-955.54 				"/>
				<path fill="#EA6867" d="M1003.902-848.753c-0.82-3.372-1.334-6.843-1.56-10.456c-0.397-6.314,0.103-13.093,1.43-20.13
					c0.993-5.273,2.445-10.676,4.257-16.041c2.713-8.052,6.231-16.013,10.02-23.34c3.784-7.33,7.83-14.027,11.513-19.625
					c3.712-5.646,7.054-10.174,9.364-13.164c1.155-1.496,2.053-2.605,2.608-3.281c0.278-0.339,0.472-0.527,0.569-0.643
					c0.033-0.04,0.047-0.026,0.059-0.026c0,0,0,0,0.001,0c13.895-16.052,11.989-40.534-4.126-54.515
					c-16.143-14.007-40.771-12.431-54.771,3.883v-0.011c-1,0.86-8.607,10.155-18.554,25.267
					c-5.011,7.619-10.435,16.717-15.776,27.104c-4.004,7.792-7.865,16.291-11.356,25.446c-5.227,13.735-9.533,28.938-11.579,45.414
					c-1.019,8.235-1.443,16.782-1.072,25.562c0.369,8.778,1.555,17.788,3.76,26.85c5.051,20.769,25.986,33.509,46.754,28.457
					C996.21-807.053,1008.953-827.984,1003.902-848.753z"/>
			</g>
			<circle fill="#EA6867" cx="964.862" cy="-970.754" r="9.289"/>
			<circle fill="#EA6867" cx="996.157" cy="-848.958" r="9.288"/>
			<circle fill="#EA6867" cx="997.485" cy="-859.431" r="9.289"/>
			<circle fill="#EA6867" cx="1011.163" cy="-912.971" r="9.29"/>
			<circle fill="#EA6867" cx="1003.155" cy="-899.649" r="9.289"/>
			<circle fill="#EA6867" cx="940.706" cy="-912.169" r="9.29"/>
			<circle fill="#EA6867" cx="951.317" cy="-939.78" r="9.289"/>
			<circle fill="#EA6867" cx="936.416" cy="-830.176" r="9.29"/>
			<circle fill="#EA6867" cx="934.87" cy="-836.845" r="9.29"/>
			<circle fill="#EA6867" cx="1037.278" cy="-959.718" r="9.289"/>
			<circle fill="#EA6867" cx="931.078" cy="-879.951" r="9.288"/>
			<circle fill="#EA6867" cx="974.123" cy="-983.423" r="9.29"/>
		</g>
		<g>
			<g>
				<polygon fill="#EA6867" points="1091.271,-884.332 1091.27,-884.331 1091.271,-884.331 				"/>
				<path fill="#EA6867" d="M1075.963-996.728c2.283,2.613,4.34,5.456,6.207,8.559c3.265,5.418,5.947,11.664,8.016,18.52
					c1.551,5.137,2.755,10.6,3.622,16.195c1.307,8.396,1.856,17.083,1.875,25.331c0.023,8.249-0.478,16.058-1.163,22.723
					c-0.689,6.722-1.565,12.28-2.236,15.999c-0.335,1.861-0.62,3.26-0.802,4.115c-0.09,0.429-0.175,0.686-0.208,0.832
					c-0.012,0.051-0.029,0.045-0.04,0.051c0,0,0,0-0.001,0c-4.924,20.651,8.182,41.432,28.929,46.403
					c20.783,4.981,42.032-7.841,46.929-28.772l0.006,0.01c0.49-1.225,2.83-12.917,4.686-30.912
					c0.931-9.072,1.485-19.613,1.435-31.295c-0.042-8.76-0.566-18.066-1.692-27.799c-1.698-14.598-4.904-30.066-10.688-45.628
					c-2.895-7.776-6.469-15.552-10.848-23.171c-4.376-7.619-9.589-15.064-15.725-22.088c-14.061-16.098-38.514-17.744-54.61-3.683
					C1063.556-1037.276,1061.902-1012.825,1075.963-996.728z"/>
			</g>
			<circle fill="#EA6867" cx="1166.875" cy="-906.486" r="9.289"/>
			<circle fill="#EA6867" cx="1082.93" cy="-1000.118" r="9.289"/>
			<circle fill="#EA6867" cx="1086.582" cy="-990.213" r="9.289"/>
			<circle fill="#EA6867" cx="1099.142" cy="-936.399" r="9.29"/>
			<circle fill="#EA6867" cx="1100.101" cy="-951.914" r="9.289"/>
			<circle fill="#EA6867" cx="1161.286" cy="-969.609" r="9.289"/>
			<circle fill="#EA6867" cx="1164.606" cy="-940.216" r="9.289"/>
			<circle fill="#EA6867" cx="1127.274" cy="-1044.338" r="9.29"/>
			<circle fill="#EA6867" cx="1131.722" cy="-1039.134" r="9.29"/>
			<circle fill="#EA6867" cx="1097.531" cy="-882.876" r="9.289"/>
			<circle fill="#EA6867" cx="1154.968" cy="-1002.637" r="9.288"/>
			<circle fill="#EA6867" cx="1164.501" cy="-890.974" r="9.29"/>
		</g>
		<g>
			<g>
				<polygon fill="#EA6867" points="978.708,-787.928 978.707,-787.929 978.707,-787.927 				"/>
				<path fill="#EA6867" d="M1091.104-803.235c-2.613,2.283-5.456,4.34-8.559,6.207c-5.418,3.265-11.664,5.947-18.52,8.016
					c-5.137,1.551-10.6,2.755-16.195,3.622c-8.396,1.307-17.083,1.856-25.331,1.875c-8.249,0.023-16.058-0.478-22.723-1.163
					c-6.722-0.689-12.28-1.565-15.999-2.236c-1.861-0.335-3.26-0.62-4.115-0.802c-0.429-0.09-0.686-0.175-0.832-0.208
					c-0.051-0.012-0.045-0.029-0.051-0.04c0,0,0,0,0-0.001c-20.651-4.924-41.432,8.182-46.403,28.929
					c-4.981,20.783,7.841,42.032,28.772,46.929l-0.01,0.006c1.225,0.49,12.917,2.83,30.912,4.686
					c9.072,0.931,19.613,1.485,31.295,1.435c8.76-0.042,18.066-0.566,27.799-1.692c14.598-1.698,30.066-4.904,45.628-10.688
					c7.776-2.895,15.552-6.469,23.171-10.848c7.619-4.376,15.064-9.589,22.088-15.725c16.098-14.061,17.744-38.514,3.683-54.61
					C1131.652-815.643,1107.201-817.296,1091.104-803.235z"/>
			</g>
			<circle fill="#EA6867" cx="1000.862" cy="-712.324" r="9.289"/>
			<circle fill="#EA6867" cx="1094.494" cy="-796.269" r="9.289"/>
			<circle fill="#EA6867" cx="1084.589" cy="-792.616" r="9.289"/>
			<circle fill="#EA6867" cx="1030.775" cy="-780.057" r="9.29"/>
			<circle fill="#EA6867" cx="1046.29" cy="-779.097" r="9.289"/>
			<circle fill="#EA6867" cx="1063.985" cy="-717.913" r="9.289"/>
			<circle fill="#EA6867" cx="1034.592" cy="-714.592" r="9.289"/>
			<circle fill="#EA6867" cx="1138.714" cy="-751.924" r="9.29"/>
			<circle fill="#EA6867" cx="1133.51" cy="-747.477" r="9.29"/>
			<circle fill="#EA6867" cx="977.252" cy="-781.667" r="9.289"/>
			<circle fill="#EA6867" cx="1097.013" cy="-724.23" r="9.288"/>
			<circle fill="#EA6867" cx="985.35" cy="-714.697" r="9.29"/>
		</g>
	</g>
	<text transform="matrix(1 0 0 1 884.0176 -1424.6455)"><tspan x="0" y="0" fill="#274FA3" font-family="'EuclidBPtestFont-Bold'" font-size="28">Appetizers </tspan><tspan x="145.766" y="0" fill="#274FA3" font-family="'Eagle-Book'" font-size="28">&amp;</tspan><tspan x="164.582" y="0" fill="#274FA3" font-family="'EuclidBPtestFont-Bold'" font-size="28"> Beverages</tspan></text>
	<g>
		<text transform="matrix(1 0 0 1 901.668 -946.5557)"><tspan x="0" y="0" fill="#274FA3" font-family="'EuclidBPtestFont-Bold'" font-size="32">A New York classic. </tspan><tspan x="-40.926" y="42" fill="#274FA3" font-family="'EuclidBPtestFont-Bold'" font-size="32">Not for the faint hearted</tspan></text>
	</g>
	<rect x="772.018" y="-1322.556" fill="none" width="534" height="181"/>
	<text transform="matrix(1 0 0 1 929.3555 -1257.2363)"><tspan x="0" y="0" fill="#274FA3" font-family="'EuclidBPtestFont-Bold'" font-size="92">Spicy  </tspan><tspan x="-146.139" y="104" fill="#274FA3" font-family="'EuclidBPtestFont-Bold'" font-size="92">Pickle Backs</tspan></text>
	<rect x="1032.266" y="-1398.556" fill="#274FA3" width="23" height="6"/>
</g>
<rect x="724.266" y="-488.556" fill="#83D3EA" width="640" height="960"/>
<text transform="matrix(1 0 0 1 884.0176 -412.6455)"><tspan x="0" y="0" fill="#274FA3" font-family="'EuclidBPtestFont-Bold'" font-size="28">Appetizers </tspan><tspan x="145.766" y="0" fill="#274FA3" font-family="'Eagle-Book'" font-size="28">&amp;</tspan><tspan x="164.582" y="0" fill="#274FA3" font-family="'EuclidBPtestFont-Bold'" font-size="28"> Beverages</tspan></text>
<g>
	<path fill="#83D3EA" d="M929.506,12.444h8.468c1.554,15,13.855,25.861,28.806,25.861c14.951,0,27.252-10.861,28.807-25.861h8.465
		c1.722,0,3.116-1.283,3.116-3c0-1.721-1.395-3-3.116-3h-8.465c-1.553-15-13.854-25.863-28.807-25.863
		c-14.95,0-27.252,10.863-28.806,25.863h-8.468c-1.72,0-3.112,1.279-3.112,3C926.394,11.161,927.786,12.444,929.506,12.444z
		 M966.779-10.045c10.837,0,19.617,8.782,19.617,19.617c0,10.839-8.78,19.619-19.617,19.619c-10.835,0-19.619-8.78-19.619-19.619
		C947.16-1.263,955.944-10.045,966.779-10.045z"/>
	<path fill="#FFFFFF" d="M966.779,29.191c10.837,0,19.617-8.78,19.617-19.619c0-10.835-8.78-19.617-19.617-19.617
		c-10.835,0-19.619,8.782-19.619,19.617C947.16,20.411,955.944,29.191,966.779,29.191z"/>
	<path fill="#83D3EA" d="M1091.428,12.444h8.467c1.554,15,13.858,25.861,28.806,25.861c14.953,0,27.254-10.861,28.808-25.861h8.465
		c1.722,0,3.112-1.283,3.112-3c0-1.721-1.391-3-3.112-3h-8.465c-1.553-15-13.854-25.863-28.808-25.863
		c-14.948,0-27.252,10.863-28.806,25.863h-8.467c-1.719,0-3.113,1.279-3.113,3C1088.314,11.161,1089.709,12.444,1091.428,12.444z
		 M1128.7-10.045c10.837,0,19.618,8.782,19.618,19.617c0,10.839-8.781,19.619-19.618,19.619c-10.834,0-19.617-8.78-19.617-19.619
		C1109.083-1.263,1117.866-10.045,1128.7-10.045z"/>
	<path fill="#FFFFFF" d="M1128.7,29.191c10.837,0,19.618-8.78,19.618-19.619c0-10.835-8.781-19.617-19.618-19.617
		c-10.834,0-19.617,8.782-19.617,19.617C1109.083,20.411,1117.866,29.191,1128.7,29.191z"/>
	<path fill="#83D3EA" d="M966.266,258.708c0,44.643,35.858,80.963,80.5,80.963c44.643,0,80.5-36.32,80.5-80.963v-60.264h-161
		V258.708z M1089.266,317.798c0,2.889-2.609,5.229-5.5,5.229c-2.886,0-5.5-2.341-5.5-5.229v-8.354h11V317.798z M1104.266,213.173
		c0-5.154,3.84-9.344,9.002-9.344c5.156,0,8.998,4.189,8.998,9.344v15.271h-18V213.173z M1077.266,213.173c0-0.945,0-1.857,0-2.718
		v-6.587c2,0,6.238-0.085,8.645,0.015c0.324-0.034,1.004-0.054,1.338-0.054c1.032,0,1.785,0.173,2.713,0.482
		c3.998,0.82,6.305,2.994,6.305,8.638v31.246c0,10.174-8,28.802-19,28.802v-44.283l0,0V213.173z M1074.266,318.379
		c0,2.565-1.6,4.648-4.201,4.648l-0.249-0.003c-0.007,0,0.116,0.003,0.11,0.003c-0.007,0-0.23-0.003-0.236-0.003l-5.424-0.018
		v-5.153c0-0.02,0-0.038,0-0.056v-8.473l0,0V284.31c5,0,10,10.428,10,16.123V318.379z M1050.266,213.173
		c0-5.154,4.339-9.344,9.498-9.344c5.16,0,9.502,4.189,9.502,9.344v15.271h-19V213.173z M1048.266,309.444h11v8.354
		c0,2.889-2.612,5.229-5.501,5.229c-2.892,0-5.499-2.341-5.499-5.229V309.444z M1014.266,317.798c0,2.889-2.111,5.229-5,5.229
		s-5-2.341-5-5.229v-8.354h10V317.798z M1044.266,317.798c0,2.889-2.111,5.229-5.001,5.229c-2.886,0-4.999-2.341-4.999-5.229v-8.354
		h10V317.798z M1023.266,213.173c0-5.154,4.84-9.344,10.001-9.344c5.158,0,9.999,4.189,9.999,9.344v15.271h-20V213.173z
		 M1019.266,300.433c0-5.695,4-16.123,10-16.123v25.016l0,0v8.473c0,0.504,0,0.982,0,1.443v3.766c-1,0-2.645,0.05-4.034-0.019
		c-0.131,0.009,0.037,0.039-0.096,0.039c-0.511,0-1.275-0.098-1.742-0.233c-2.345-0.429-4.128-1.623-4.128-4.871V300.433z
		 M997.266,212.136c0-4.583,4.401-8.307,9.05-8.307l1.187,0.004c0.022,0,0.201-0.004,0.223-0.004c0.026,0-0.34,0.004-0.313,0.005
		l8.854,0.034v8.904c0,0.134,0,0.266,0,0.4v15.541l0,0v44.283c-10,0-19-18.628-19-28.802V212.136z M979.765,203.829
		c5.159,0,9.501,4.189,9.501,9.344v15.271h-19v-15.271C970.266,208.019,974.607,203.829,979.765,203.829z"/>
	<path fill="#FFFFFF" d="M1077.266,272.997c11,0,19-18.628,19-28.802v-31.246c0-5.644-2.132-7.817-6.13-8.638
		c-0.929-0.31-1.712-0.482-2.743-0.482c-0.334,0-1.261,0.02-1.586,0.054c-2.405-0.1-6.541-0.015-8.541-0.015v6.587
		c0,0.86,0,1.772,0,2.718v15.541l0,0V272.997z"/>
	<path fill="#FFFFFF" d="M989.266,228.444v-15.271c0-5.154-4.342-9.344-9.501-9.344c-5.157,0-9.499,4.189-9.499,9.344v15.271
		H989.266z"/>
	<path fill="#FFFFFF" d="M1043.266,213.173c0-5.154-4.841-9.344-9.999-9.344c-5.161,0-10.001,4.189-10.001,9.344v15.271h20V213.173z
		"/>
	<path fill="#FFFFFF" d="M1069.266,213.173c0-5.154-4.342-9.344-9.502-9.344c-5.159,0-9.498,4.189-9.498,9.344v15.271h19V213.173z"
		/>
	<path fill="#FFFFFF" d="M1122.266,213.173c0-5.154-3.842-9.344-8.998-9.344c-5.162,0-9.002,4.189-9.002,9.344v15.271h18V213.173z"
		/>
	<path fill="#FFFFFF" d="M1016.266,272.997v-44.283l0,0v-15.541c0-0.135,0-0.267,0-0.4v-8.904l-8.776-0.034
		c-0.024-0.001,0.185-0.005,0.158-0.005c-0.022,0,0.073,0.004,0.051,0.004l-1.441-0.004c-4.649,0-8.991,3.724-8.991,8.307v32.06
		C997.266,254.369,1006.266,272.997,1016.266,272.997z"/>
	<path fill="#FFFFFF" d="M1023.539,322.794c0.467,0.136,1.164,0.233,1.675,0.233c0.133,0-0.22-0.03-0.089-0.039
		c1.391,0.068,3.141,0.019,4.141,0.019v-3.766c0-0.461,0-0.939,0-1.443v-8.473l0,0V284.31c-6,0-10,10.428-10,16.123v17.49
		C1019.266,321.171,1021.194,322.365,1023.539,322.794z"/>
	<path fill="#FFFFFF" d="M1078.266,317.798c0,2.889,2.614,5.229,5.5,5.229c2.891,0,5.5-2.341,5.5-5.229v-8.354h-11V317.798z"/>
	<path fill="#FFFFFF" d="M1053.765,323.027c2.889,0,5.501-2.341,5.501-5.229v-8.354h-11v8.354
		C1048.266,320.687,1050.873,323.027,1053.765,323.027z"/>
	<path fill="#FFFFFF" d="M1034.266,317.798c0,2.889,2.113,5.229,4.999,5.229c2.89,0,5.001-2.341,5.001-5.229v-8.354h-10V317.798z"/>
	<path fill="#FFFFFF" d="M1004.266,317.798c0,2.889,2.111,5.229,5,5.229s5-2.341,5-5.229v-8.354h-10V317.798z"/>
	<path fill="#FFFFFF" d="M1064.266,284.31v25.016l0,0v8.473c0,0.018,0,0.036,0,0.056v5.153l5.487,0.018
		c0.007,0,0.153,0.003,0.16,0.003s0.083-0.003,0.089-0.003l0.027,0.003c2.602,0,4.236-2.083,4.236-4.648v-17.946
		C1074.266,294.737,1069.266,284.31,1064.266,284.31z"/>
	<path fill="#83D3EA" d="M1006.689,115.444c-7.075,0-12.812,6.426-12.812,13.5c0,7.075,5.736,13.5,12.812,13.5h19.213h11.363
		v-13.483c0-7.073-4.285-13.517-11.363-13.517H1006.689z"/>
	<path fill="#83D3EA" d="M1082.879,142.444c7.074,0,12.811-6.425,12.811-13.5c0-7.074-5.736-13.5-12.811-13.5h-19.213
		c-7.078,0-13.4,6.443-13.4,13.517v13.483h13.4H1082.879z"/>
	<path fill="#FFFFFF" d="M927.326,116.15c1.334,0,2.413-1.083,2.413-2.416c0-1.336-1.079-2.418-2.413-2.418
		c-1.335,0-2.42,1.082-2.42,2.418C924.906,115.067,925.991,116.15,927.326,116.15z"/>
	<path fill="#FFFFFF" d="M904.488,127.065c-1.336,0-2.416,1.081-2.416,2.413c0,1.338,1.08,2.421,2.416,2.421
		c1.338,0,2.417-1.083,2.417-2.421C906.905,128.146,905.826,127.065,904.488,127.065z"/>
	<path fill="#FFFFFF" d="M926.629,145.92c-1.332,0-2.414,1.082-2.414,2.42c0,1.334,1.082,2.418,2.414,2.418
		c1.34,0,2.421-1.084,2.421-2.418C929.05,147.002,927.969,145.92,926.629,145.92z"/>
	<circle fill="#FFFFFF" cx="1168.156" cy="113.733" r="2.417"/>
	<path fill="#FFFFFF" d="M1190.989,127.065c-1.333,0-2.418,1.081-2.418,2.413c0,1.338,1.085,2.421,2.418,2.421
		c1.336,0,2.422-1.083,2.422-2.421C1193.411,128.146,1192.325,127.065,1190.989,127.065z"/>
	<circle fill="#FFFFFF" cx="1168.847" cy="148.339" r="2.419"/>
	<path fill="#FFFFFF" d="M1288.268-84.556h-30.505h-30.496h-74.129H936.432h-74.129h-30.497h-30.504h-31.036v30.15
		c0,16.721,14.318,29.85,31.036,29.85h29.964V9.572c0,33.893,16.389,64.015,41.375,83.136c-2.238,4.371-3.812,9.057-4.91,13.973
		l-46.357-11.854c-1.664-0.423-3.325,0.578-3.752,2.246c-0.427,1.664,0.599,3.361,2.264,3.785l46.352,11.985
		c-0.253,2.226-0.971,4.481-0.971,6.774v5.826h-45.545c-1.719,0-3.114,2.277-3.114,4c0,1.721,1.396,4,3.114,4h45.545v5.895
		c0,2.419,0.744,4.8,1.025,7.143l-46.68,11.993c-1.665,0.428-2.528,2.12-2.102,3.788c0.36,1.408,1.698,2.346,3.086,2.346
		c0.254,0,0.551-0.032,0.809-0.097l46.525-11.91c6.033,26.272,29.561,45.843,57.662,45.843h9.674v60.264
		c0,61.908,49.589,112.098,111.5,112.098c61.91,0,111.5-50.189,111.5-112.098v-60.264h5.712c28.101,0,51.609-19.57,57.644-45.843
		l46.508,11.888c0.259,0.072,0.518,0.11,0.77,0.11c1.39,0,2.656-0.932,3.018-2.341c0.425-1.668-0.585-3.357-2.249-3.785
		l-47.409-11.994c0.283-2.342,0.008-4.722,0.008-7.141v-5.895h47.583c1.719,0,3.114-2.283,3.114-4.002
		c0-1.721-1.396-3.998-3.114-3.998h-47.583v-5.826c0-2.293,0.293-4.549,0.039-6.773l47.145-11.986
		c1.664-0.424,2.782-2.121,2.358-3.785c-0.43-1.668-2.071-2.673-3.731-2.246l-46.4,11.854c-1.098-4.916-3.543-9.602-5.78-13.973
		c24.985-19.121,40.37-56.371,40.37-90.264v-27h32.002c16.719,0,28.998-13.129,28.998-29.85v-30.15H1288.268z M1037.266,128.961
		v13.483h-11.363h-19.213c-7.075,0-12.812-6.425-12.812-13.5c0-7.074,5.736-13.5,12.812-13.5h19.213
		C1032.98,115.444,1037.266,121.888,1037.266,128.961z M1050.266,128.961c0-7.073,6.322-13.517,13.4-13.517h19.213
		c7.074,0,12.811,6.426,12.811,13.5c0,7.075-5.736,13.5-12.811,13.5h-19.213h-13.4V128.961z M1091.428,6.444h8.467
		c1.554-15,13.857-25.863,28.806-25.863c14.953,0,27.255,10.863,28.808,25.863h8.465c1.722,0,3.112,1.279,3.112,3
		c0,1.717-1.391,3-3.112,3h-8.465c-1.554,15-13.854,25.861-28.808,25.861c-14.947,0-27.252-10.861-28.806-25.861h-8.467
		c-1.719,0-3.113-1.283-3.113-3C1088.314,7.724,1089.709,6.444,1091.428,6.444z M929.506,6.444h8.468
		c1.554-15,13.855-25.863,28.806-25.863c14.952,0,27.254,10.863,28.807,25.863h8.465c1.722,0,3.116,1.279,3.116,3
		c0,1.717-1.395,3-3.116,3h-8.465c-1.555,15-13.855,25.861-28.807,25.861c-14.95,0-27.252-10.861-28.806-25.861h-8.468
		c-1.72,0-3.112-1.283-3.112-3C926.394,7.724,927.786,6.444,929.506,6.444z M1127.266,258.708c0,44.643-35.857,80.963-80.5,80.963
		c-44.642,0-80.5-36.32-80.5-80.963v-60.264h161V258.708z"/>
</g>
<g>
	<text transform="matrix(1 0 0 1 893.8281 65.4443)"><tspan x="0" y="0" fill="#274FA3" font-family="'EuclidBPtestFont-Bold'" font-size="32">Like a White Russian</tspan><tspan x="41.439" y="42" fill="#274FA3" font-family="'EuclidBPtestFont-Bold'" font-size="32">only less classy</tspan></text>
</g>
<rect x="777.266" y="-258.556" fill="none" width="534" height="129"/>
<text transform="matrix(1 0 0 1 779.3105 -193.2363)" fill="#274FA3" font-family="'EuclidBPtestFont-Bold'" font-size="92">Panther Milk</text>
<rect x="1032.266" y="-386.556" fill="#274FA3" width="23" height="6"/>
<g>
	<rect x="1489.266" y="-1500.556" fill="#274FA3" width="640" height="678"/>
</g>
<rect x="2251.266" y="-1500.556" fill="#001623" width="640" height="3713"/>
<text transform="matrix(1 0 0 1 2398.668 -1409.5557)" fill="#FFFFFF" font-family="'EuclidBPtestFont-Bold'" font-size="44">Preparing the jar</text>
<rect x="2281.265" y="-1311.556" fill="none" width="574" height="3417"/>
<text transform="matrix(1 0 0 1 2281.2646 -1285.9961)"><tspan x="0" y="0" fill="#FFFFFF" font-family="'EuclidBPtestFont-Bold'" font-size="36">Boil your mason jars in water for </tspan><tspan x="0" y="52" fill="#FAD668" font-family="'Eagle-Book'" font-size="36">10</tspan><tspan x="35.999" y="52" fill="#FAD668" font-family="'EuclidBPtestFont-Bold'" font-size="36"> minutes</tspan><tspan x="178.521" y="52" fill="#FFFFFF" font-family="'EuclidBPtestFont-Bold'" font-size="36"> - if you have canning </tspan><tspan x="0" y="104" fill="#FFFFFF" font-family="'EuclidBPtestFont-Bold'" font-size="36">supplies, use these, otherwise, just </tspan><tspan x="0" y="156" fill="#FFFFFF" font-family="'EuclidBPtestFont-Bold'" font-size="36">boil the tips of the tongs you&apos;ll fish </tspan><tspan x="0" y="208" fill="#FFFFFF" font-family="'EuclidBPtestFont-Bold'" font-size="36">these out with and have a clean </tspan><tspan x="0" y="260" fill="#FFFFFF" font-family="'EuclidBPtestFont-Bold'" font-size="36">prep station ready. This will </tspan><tspan x="0" y="312" fill="#FFFFFF" font-family="'EuclidBPtestFont-Bold'" font-size="36">sterilize your equipment and give </tspan><tspan x="0" y="364" fill="#FFFFFF" font-family="'EuclidBPtestFont-Bold'" font-size="36">your pickles longer shelf life.</tspan><tspan x="89.993" y="468" fill="#FFFFFF" font-family="'EuclidBPtestFont-Bold'" font-size="44">Preparing the brine</tspan><tspan x="0" y="572" fill="#FFFFFF" font-family="'EuclidBPtestFont-Bold'" font-size="36">Bring the </tspan><tspan x="160.917" y="572" fill="#EFDC56" font-family="'EuclidBPtestFont-Bold'" font-size="36">water</tspan><tspan x="257.611" y="572" fill="#FFFFFF" font-family="'EuclidBPtestFont-Bold'" font-size="36"> to a boil with the </tspan><tspan x="0" y="624" fill="#EFDC56" font-family="'EuclidBPtestFont-Bold'" font-size="36">vinegar</tspan><tspan x="127.654" y="624" fill="#FFFFFF" font-family="'EuclidBPtestFont-Bold'" font-size="36"> and </tspan><tspan x="207.753" y="624" fill="#EFDC56" font-family="'EuclidBPtestFont-Bold'" font-size="36">salt</tspan><tspan x="268.628" y="624" fill="#FFFFFF" font-family="'EuclidBPtestFont-Bold'" font-size="36">. Once the salt </tspan><tspan x="0" y="676" fill="#FFFFFF" font-family="'EuclidBPtestFont-Bold'" font-size="36">has dissolved, wait for the brine to </tspan><tspan x="0" y="728" fill="#FFFFFF" font-family="'EuclidBPtestFont-Bold'" font-size="36">cool down so that it is warm </tspan><tspan x="0" y="780" fill="#FFFFFF" font-family="'EuclidBPtestFont-Bold'" font-size="36">enough to handle. Pour the brine </tspan><tspan x="0" y="832" fill="#FFFFFF" font-family="'EuclidBPtestFont-Bold'" font-size="36">into the sterilized mason jar.</tspan><tspan x="0" y="936" fill="#FFFFFF" font-family="'EuclidBPtestFont-Bold'" font-size="36">While the brine is cooling, slice the </tspan><tspan x="0" y="988" fill="#EFDC56" font-family="'EuclidBPtestFont-Bold'" font-size="36">chilli peppers</tspan><tspan x="220.46" y="988" fill="#FFFFFF" font-family="'EuclidBPtestFont-Bold'" font-size="36"> into thin rings </tspan><tspan x="0" y="1040" fill="#FFFFFF" font-family="'Eagle-Book'" font-size="36">(</tspan><tspan x="12.491" y="1040" fill="#FFFFFF" font-family="'EuclidBPtestFont-Bold'" font-size="36">careful with your hands - either </tspan><tspan x="0" y="1092" fill="#FFFFFF" font-family="'EuclidBPtestFont-Bold'" font-size="36">wear gloves or rinse your hands </tspan><tspan x="0" y="1144" fill="#FFFFFF" font-family="'EuclidBPtestFont-Bold'" font-size="36">with </tspan><tspan x="80.241" y="1144" fill="#EFDC56" font-family="'EuclidBPtestFont-Bold'" font-size="36">lemon juice</tspan><tspan x="272.19" y="1144" fill="#FFFFFF" font-family="'EuclidBPtestFont-Bold'" font-size="36"> if you do touch </tspan><tspan x="0" y="1196" fill="#FFFFFF" font-family="'EuclidBPtestFont-Bold'" font-size="36">the membrane</tspan><tspan x="246.957" y="1196" fill="#FFFFFF" font-family="'Eagle-Book'" font-size="36">!)</tspan><tspan x="271.544" y="1196" fill="#FFFFFF" font-family="'EuclidBPtestFont-Bold'" font-size="36">.</tspan><tspan x="0" y="1248" fill="#FFFFFF" font-family="'EuclidBPtestFont-Bold'" font-size="36">Press the whole </tspan><tspan x="262.759" y="1248" fill="#EFDC56" font-family="'EuclidBPtestFont-Bold'" font-size="36">garlic</tspan><tspan x="357.474" y="1248" fill="#FFFFFF" font-family="'EuclidBPtestFont-Bold'" font-size="36"> cloves with </tspan><tspan x="0" y="1300" fill="#FFFFFF" font-family="'EuclidBPtestFont-Bold'" font-size="36">the flat blade of the knife, not </tspan><tspan x="0" y="1352" fill="#FFFFFF" font-family="'EuclidBPtestFont-Bold'" font-size="36">enough to crack it, but enough to </tspan><tspan x="0" y="1404" fill="#FFFFFF" font-family="'EuclidBPtestFont-Bold'" font-size="36">smell the garlic.</tspan><tspan x="0" y="1456" fill="#FFFFFF" font-family="'EuclidBPtestFont-Bold'" font-size="36">Add the sliced </tspan><tspan x="242.059" y="1456" fill="#EFDC56" font-family="'EuclidBPtestFont-Bold'" font-size="36">peppers</tspan><tspan x="375.438" y="1456" fill="#FFFFFF" font-family="'EuclidBPtestFont-Bold'" font-size="36">, </tspan><tspan x="394.444" y="1456" fill="#EFDC56" font-family="'EuclidBPtestFont-Bold'" font-size="36">garlic </tspan><tspan x="0" y="1508" fill="#EFDC56" font-family="'EuclidBPtestFont-Bold'" font-size="36">cloves</tspan><tspan x="104.29" y="1508" fill="#FFFFFF" font-family="'EuclidBPtestFont-Bold'" font-size="36">, and the </tspan><tspan x="259.806" y="1508" fill="#EFDC56" font-family="'EuclidBPtestFont-Bold'" font-size="36">peppercorns</tspan><tspan x="468.46" y="1508" fill="#FFFFFF" font-family="'EuclidBPtestFont-Bold'" font-size="36"> into </tspan><tspan x="0" y="1560" fill="#FFFFFF" font-family="'EuclidBPtestFont-Bold'" font-size="36">the jar. Seal, and wait for it to </tspan><tspan x="0" y="1612" fill="#FFFFFF" font-family="'EuclidBPtestFont-Bold'" font-size="36">reach room temperature.</tspan><tspan x="84.669" y="1716" fill="#FFFFFF" font-family="'EuclidBPtestFont-Bold'" font-size="44">Preparing the cukes</tspan><tspan x="0" y="1820" fill="#FFFFFF" font-family="'EuclidBPtestFont-Bold'" font-size="36">The key to a crispy pickle is how </tspan><tspan x="0" y="1872" fill="#FFFFFF" font-family="'EuclidBPtestFont-Bold'" font-size="36">the cucumber is prepared. The </tspan><tspan x="0" y="1924" fill="#FFFFFF" font-family="'EuclidBPtestFont-Bold'" font-size="36">end where the stem is should be </tspan><tspan x="0" y="1976" fill="#FFFFFF" font-family="'EuclidBPtestFont-Bold'" font-size="36">cut off, as leaving these on will </tspan><tspan x="0" y="2028" fill="#FFFFFF" font-family="'EuclidBPtestFont-Bold'" font-size="36">lead to a softer pickle.</tspan><tspan x="0" y="2132" fill="#FFFFFF" font-family="'EuclidBPtestFont-Bold'" font-size="36">The more times you cut a </tspan><tspan x="0" y="2184" fill="#FFFFFF" font-family="'EuclidBPtestFont-Bold'" font-size="36">cucumber prior to pickling, the </tspan><tspan x="0" y="2236" fill="#FFFFFF" font-family="'EuclidBPtestFont-Bold'" font-size="36">less crispy it will be. I pickle my </tspan><tspan x="0" y="2288" fill="#FFFFFF" font-family="'EuclidBPtestFont-Bold'" font-size="36">cukes whole and slice them after </tspan><tspan x="0" y="2340" fill="#FFFFFF" font-family="'EuclidBPtestFont-Bold'" font-size="36">they&apos;ve been pickled.</tspan><tspan x="207.142" y="2444" fill="#FFFFFF" font-family="'EuclidBPtestFont-Bold'" font-size="44">Pickling</tspan><tspan x="0" y="2548" fill="#FFFFFF" font-family="'EuclidBPtestFont-Bold'" font-size="36">Once the brine is room </tspan><tspan x="0" y="2600" fill="#FFFFFF" font-family="'EuclidBPtestFont-Bold'" font-size="36">temperature, add the </tspan><tspan x="369.858" y="2600" fill="#EFDC56" font-family="'EuclidBPtestFont-Bold'" font-size="36">cukes</tspan><tspan x="465.364" y="2600" fill="#FFFFFF" font-family="'EuclidBPtestFont-Bold'" font-size="36">. Pour </tspan><tspan x="0" y="2652" fill="#FFFFFF" font-family="'EuclidBPtestFont-Bold'" font-size="36">out any brine as needed to ensure </tspan><tspan x="0" y="2704" fill="#FFFFFF" font-family="'EuclidBPtestFont-Bold'" font-size="36">they all fit. Store in the </tspan><tspan x="0" y="2756" fill="#FFFFFF" font-family="'EuclidBPtestFont-Bold'" font-size="36">refrigerator for at least </tspan><tspan x="394.336" y="2756" fill="#FFFFFF" font-family="'Eagle-Book'" font-size="36">24</tspan><tspan x="437.428" y="2756" fill="#FFFFFF" font-family="'EuclidBPtestFont-Bold'" font-size="36"> hours.</tspan><tspan x="0" y="2808" fill="#FFFFFF" font-family="'EuclidBPtestFont-Bold'" font-size="36"> </tspan><tspan x="108.319" y="2860" fill="#FFFFFF" font-family="'EuclidBPtestFont-Bold'" font-size="44">Choose a whiskey</tspan><tspan x="0" y="2964" fill="#FFFFFF" font-family="'EuclidBPtestFont-Bold'" font-size="36">Select a whiskey of your choice. </tspan><tspan x="0" y="3016" fill="#FFFFFF" font-family="'EuclidBPtestFont-Bold'" font-size="36">We personally like Bulleit.</tspan><tspan x="178.015" y="3120" fill="#FFFFFF" font-family="'EuclidBPtestFont-Bold'" font-size="44">Shoot &apos;em</tspan><tspan x="381.202" y="3120" fill="#FFFFFF" font-family="'Eagle-Book'" font-size="44">!</tspan><tspan x="0" y="3224" fill="#FFFFFF" font-family="'EuclidBPtestFont-Bold'" font-size="36">Pour a shot of </tspan><tspan x="235.649" y="3224" fill="#EFDC56" font-family="'EuclidBPtestFont-Bold'" font-size="36">whiskey</tspan><tspan x="367.012" y="3224" fill="#FFFFFF" font-family="'EuclidBPtestFont-Bold'" font-size="36">, and a shot </tspan><tspan x="0" y="3276" fill="#FFFFFF" font-family="'EuclidBPtestFont-Bold'" font-size="36">of </tspan><tspan x="41.831" y="3276" fill="#EFDC56" font-family="'EuclidBPtestFont-Bold'" font-size="36">pickle juice</tspan><tspan x="229.458" y="3276" fill="#FFFFFF" font-family="'EuclidBPtestFont-Bold'" font-size="36">. Take the whiskey </tspan><tspan x="0" y="3328" fill="#FFFFFF" font-family="'EuclidBPtestFont-Bold'" font-size="36">first, and chase it with the pickle </tspan><tspan x="0" y="3380" fill="#FFFFFF" font-family="'EuclidBPtestFont-Bold'" font-size="36">juice.</tspan></text>
<rect x="2374.266" y="-795.556" fill="#FFFFFF" width="390" height="5"/>
<rect x="2400.266" y="-1389.556" fill="#FFFFFF" width="341" height="5"/>
<rect x="2366.266" y="451.444" fill="#FFFFFF" width="409" height="5"/>
<rect x="2490.266" y="1178.444" fill="#FFFFFF" width="161" height="5"/>
<rect x="2392.266" y="1594.444" fill="#FFFFFF" width="357" height="5"/>
<rect x="2460.266" y="1854.444" fill="#FFFFFF" width="221" height="5"/>
<g>
	<g>
		<g>
			<path fill="#F04E55" d="M3073.266-1419.484v525.769l20.662-13.404l20.564,13.332l20.522-13.332l20.504,13.332l20.491-13.332
				l20.485,13.332l20.484-13.332l20.482,13.332l20.48-13.332l20.483,13.332l20.479-13.332l20.481,13.332l20.479-13.332
				l20.482,13.615l20.479-13.051h0.09l20.481,13.051l20.48-13.473l20.48,13.26l20.48-13.367l20.481,13.314l20.48-13.341
				l20.481,13.329l20.603-13.335l20.379,13.401v-525.84L3073.266-1419.484z"/>
		</g>
	</g>
	<text transform="matrix(1 0 0 1 3234.5479 -1349.3154)"><tspan x="0" y="0" fill="#FFFFFF" font-family="'Eagle-Book'" font-size="28">4</tspan><tspan x="17.164" y="0" fill="#FFFFFF" font-family="'EuclidBPtestFont-Bold'" font-size="28"> cups water  </tspan><tspan x="-38.177" y="46" fill="#FFFFFF" font-family="'Eagle-Book'" font-size="28">1</tspan><tspan x="-28.993" y="46" fill="#FFFFFF" font-family="'EuclidBPtestFont-Bold'" font-size="28"> cup white vinegar</tspan><tspan x="-41.578" y="92" fill="#FFFFFF" font-family="'Eagle-Book'" font-size="28">1/3</tspan><tspan x="-4.451" y="92" fill="#FFFFFF" font-family="'EuclidBPtestFont-Bold'" font-size="28"> cup pickling salt</tspan><tspan x="-7.041" y="138" fill="#FFFFFF" font-family="'Eagle-Book'" font-size="28">6</tspan><tspan x="10.375" y="138" fill="#FFFFFF" font-family="'EuclidBPtestFont-Bold'" font-size="28"> cloves garlic</tspan><tspan x="-32.689" y="184" fill="#FFFFFF" font-family="'Eagle-Book'" font-size="28">2</tspan><tspan x="-16.338" y="184" fill="#FFFFFF" font-family="'EuclidBPtestFont-Bold'" font-size="28"> red chili peppers</tspan><tspan x="-79.434" y="230" fill="#FFFFFF" font-family="'Eagle-Book'" font-size="28">1</tspan><tspan x="-70.25" y="230" fill="#FFFFFF" font-family="'EuclidBPtestFont-Bold'" font-size="28"> small palm-full of whole  </tspan><tspan x="4.074" y="266" fill="#FFFFFF" font-family="'EuclidBPtestFont-Bold'" font-size="28">peppercorns</tspan><tspan x="-21.209" y="312" fill="#FFFFFF" font-family="'Eagle-Book'" font-size="28">6</tspan><tspan x="-3.793" y="312" fill="#FFFFFF" font-family="'EuclidBPtestFont-Bold'" font-size="28"> pickling cukes  </tspan><tspan x="-119.641" y="348" fill="#FFFFFF" font-family="'Eagle-Book'" font-size="28">(</tspan><tspan x="-109.925" y="348" fill="#FFFFFF" font-family="'EuclidBPtestFont-Bold'" font-size="28">or whatever you wish to pickle</tspan><tspan x="280.358" y="348" fill="#FFFFFF" font-family="'Eagle-Book'" font-size="28">) </tspan><tspan x="-27.033" y="394" fill="#FFFFFF" font-family="'Eagle-Book'" font-size="28">1</tspan><tspan x="-17.85" y="394" fill="#FFFFFF" font-family="'EuclidBPtestFont-Bold'" font-size="28">-</tspan><tspan x="-7.489" y="394" fill="#FFFFFF" font-family="'Eagle-Book'" font-size="28">64</tspan><tspan x="27.09" y="394" fill="#FFFFFF" font-family="'EuclidBPtestFont-Bold'" font-size="28"> oz mason jar</tspan></text>
</g>
<g>
	<g>
		<circle fill="#001623" cx="3565.265" cy="-1419.556" r="36.334"/>
		<path fill="#FFFFFF" d="M3565.265-1379.222c-22.24,0-40.334-18.094-40.334-40.334s18.094-40.334,40.334-40.334
			s40.334,18.094,40.334,40.334S3587.505-1379.222,3565.265-1379.222z M3565.265-1451.89c-17.829,0-32.334,14.505-32.334,32.334
			s14.505,32.334,32.334,32.334s32.334-14.505,32.334-32.334S3583.094-1451.89,3565.265-1451.89z"/>
	</g>
	<g>
		
			<line fill="none" stroke="#FFFFFF" stroke-width="8" stroke-miterlimit="10" x1="3549.661" y1="-1434.744" x2="3580.575" y2="-1403.829"/>
		
			<line fill="none" stroke="#FFFFFF" stroke-width="8" stroke-miterlimit="10" x1="3549.661" y1="-1403.367" x2="3580.575" y2="-1434.282"/>
	</g>
</g>
<g>
	<rect x="1519.266" y="-822.556" fill="#274FA3" width="83" height="88"/>
	<polygon fill="#274FA3" points="1519.266,-693.556 1519.266,-734.556 1560.889,-734.556 	"/>
	<polygon fill="#274FA3" points="1560.889,-734.556 1602.266,-734.556 1602.266,-693.556 	"/>
</g>
<rect x="1529.266" y="-440.556" fill="none" width="557" height="855"/>
<text transform="matrix(1 0 0 1 1529.2656 -417.8359)"><tspan x="0" y="0" fill="#FFFFFF" font-family="'EuclidBPtestFont-Bold'" font-size="32">Since a pickle back really only </tspan><tspan x="0" y="44" fill="#FFFFFF" font-family="'EuclidBPtestFont-Bold'" font-size="32">consists of </tspan><tspan x="158.332" y="44" fill="#FFFFFF" font-family="'Eagle-Book'" font-size="32">2</tspan><tspan x="176.859" y="44" fill="#FFFFFF" font-family="'EuclidBPtestFont-Bold'" font-size="32"> ingredients </tspan><tspan x="356.727" y="44" fill="#FFFFFF" font-family="'Eagle-Book'" font-size="32">(</tspan><tspan x="367.67" y="44" fill="#FFFFFF" font-family="'EuclidBPtestFont-Bold'" font-size="32">whiskey, </tspan><tspan x="0" y="88" fill="#FFFFFF" font-family="'EuclidBPtestFont-Bold'" font-size="32">pickle juice</tspan><tspan x="164.859" y="88" fill="#FFFFFF" font-family="'Eagle-Book'" font-size="32">)</tspan><tspan x="175.803" y="88" fill="#FFFFFF" font-family="'EuclidBPtestFont-Bold'" font-size="32">, those </tspan><tspan x="280.438" y="88" fill="#FFFFFF" font-family="'Eagle-Book'" font-size="32">2</tspan><tspan x="298.967" y="88" fill="#FFFFFF" font-family="'EuclidBPtestFont-Bold'" font-size="32"> ingredients </tspan><tspan x="0" y="132" fill="#FFFFFF" font-family="'EuclidBPtestFont-Bold'" font-size="32">make the drink.</tspan><tspan x="0" y="198" fill="#FFFFFF" font-family="'EuclidBPtestFont-Bold'" font-size="32">We&apos;re not going to teach you how to </tspan><tspan x="0" y="242" fill="#FFFFFF" font-family="'EuclidBPtestFont-Bold'" font-size="32">distill your own whiskey, but we can </tspan><tspan x="0" y="286" fill="#FFFFFF" font-family="'EuclidBPtestFont-Bold'" font-size="32">make sure the pickle juice you&apos;re </tspan><tspan x="0" y="330" fill="#FFFFFF" font-family="'EuclidBPtestFont-Bold'" font-size="32">drinking really finishes off your </tspan><tspan x="0" y="374" fill="#FFFFFF" font-family="'EuclidBPtestFont-Bold'" font-size="32">whiskey the right way</tspan><tspan x="315.735" y="374" fill="#FFFFFF" font-family="'Eagle-Book'" font-size="32">!</tspan><tspan x="0" y="440" fill="#FFFFFF" font-family="'EuclidBPtestFont-Bold'" font-size="32">Since I&apos;m often just finding out we </tspan><tspan x="0" y="484" fill="#FFFFFF" font-family="'EuclidBPtestFont-Bold'" font-size="32">need pickle juice last minute, this </tspan><tspan x="0" y="528" fill="#FFFFFF" font-family="'EuclidBPtestFont-Bold'" font-size="32">recipe makes great pickles in just </tspan><tspan x="491.094" y="528" fill="#FFFFFF" font-family="'Eagle-Book'" font-size="32">24</tspan><tspan x="529.076" y="528" fill="#FFFFFF" font-family="'EuclidBPtestFont-Bold'" font-size="32"> </tspan><tspan x="0" y="572" fill="#FFFFFF" font-family="'EuclidBPtestFont-Bold'" font-size="32">hours. This recipe is for a spicy pickle </tspan><tspan x="0" y="616" fill="#FFFFFF" font-family="'EuclidBPtestFont-Bold'" font-size="32">juice, to add an extra kick</tspan><tspan x="379.988" y="616" fill="#FFFFFF" font-family="'Eagle-Book'" font-size="32">!</tspan></text>
<rect x="-82.734" y="-1502.556" fill="#231F20" width="640" height="962"/>
<text transform="matrix(1 0 0 1 82.2656 -1234.5557)"><tspan x="0" y="0" fill="#FAD668" font-family="'EuclidBPtestFont-Bold'" font-size="28">Appetizers </tspan><tspan x="145.766" y="0" fill="#FAD668" font-family="'Eagle-Book'" font-size="28">&amp;</tspan><tspan x="164.582" y="0" fill="#FAD668" font-family="'EuclidBPtestFont-Bold'" font-size="28"> Beverages</tspan></text>
<path fill="#FFFFFF" d="M264.956-1109.556c6.502,0,11.938-4.99,13.335-11.068l10.757,2.517c0.062,0.018,0.12-0.091,0.179-0.091
	c0.32,0,0.615-0.271,0.697-0.597c0.1-0.387-0.135-0.808-0.519-0.903l-12.055-2.791c0.065-0.541-1.085-1.106-1.085-1.665v-1.401
	h13.181c0.398,0,0.72-1.104,0.72-1.5c0-0.398-0.321-1.5-0.72-1.5h-13.181v-0.159c0-0.531,1.154-1.052,1.095-1.568l11.449-2.771
	c0.387-0.099,0.917-0.492,0.819-0.876c-0.102-0.386-0.345-0.619-0.729-0.52l-10.666,2.742c-0.252-1.138-0.729-2.223-1.244-3.231
	c5.778-4.424,11.031-13.284,11.031-21.124l-1.602-6.492h7.286c3.868,0,6.56-2.547,6.56-6.414v-7.586h-6.56h-7.054h-7.057h-17.146
	h-50.127h-17.148h-7.053h-7.057h-7.799v7.586c0,3.867,3.932,6.414,7.799,6.414h6.201v8.385c0,7.84,4.156,14.808,9.936,19.231
	c-0.518,1.009-0.699,2.094-0.955,3.231l-10.633-2.742c-0.384-0.1-0.724,0.134-0.821,0.52c-0.098,0.384,0.163,0.777,0.548,0.876
	l11.437,2.771c-0.059,0.517,0.489,1.037,0.489,1.568v0.159h-11.939c-0.398,0-0.723,1.102-0.723,1.5s0.324,1.5,0.723,1.5h11.939
	v1.401c0,0.559-0.531,1.109-0.466,1.653l-11.15,2.773c-0.383,0.098-0.761,0.491-0.661,0.875c0.086,0.327,0.306,0.544,0.626,0.544
	c0.06,0,0.085-0.009,0.144-0.023l10.741-2.292c1.394,6.078,6.815,11.068,13.315,11.068H264.956z M236.266-1126.554v2.998h-3.248
	h-4.443c-1.636,0-2.963-1.864-2.963-3.5c0-1.638,1.327-3.5,2.963-3.5h4.443C234.654-1130.556,236.266-1128.191,236.266-1126.554z
	 M237.266-1126.554c0-1.638,2.852-4.002,4.488-4.002h4.443c1.637,0,2.965,1.862,2.965,3.5c0,1.636-1.328,3.5-2.965,3.5h-4.443
	h-4.488V-1126.554z M248.176-1154.556h1.957c0.359-3,3.206-5.982,6.664-5.982c3.457,0,6.304,2.982,6.664,5.982h1.957
	c0.398,0,0.721,0.604,0.721,1c0,0.397-0.322,1-0.721,1h-1.957c-0.36,4-3.207,5.983-6.664,5.983c-3.458,0-6.305-1.983-6.664-5.983
	h-1.957c-0.398,0-0.721-0.603-0.721-1C247.455-1153.952,247.777-1154.556,248.176-1154.556z M210.72-1154.556h1.958
	c0.358-3,3.205-5.982,6.664-5.982c3.457,0,6.304,2.982,6.664,5.982h1.957c0.398,0,0.721,0.604,0.721,1c0,0.397-0.322,1-0.721,1
	h-1.957c-0.36,4-3.207,5.983-6.664,5.983c-3.459,0-6.306-1.983-6.664-5.983h-1.958c-0.397,0-0.72-0.603-0.72-1
	C210-1153.952,210.322-1154.556,210.72-1154.556z M210.215-1130.637c0.312,0,0.56,0.251,0.56,0.559c0,0.312-0.248,0.56-0.56,0.56
	c-0.307,0-0.559-0.248-0.559-0.56C209.656-1130.386,209.908-1130.637,210.215-1130.637z M204.932-1125.874
	c-0.307,0-0.559-0.252-0.559-0.561c0-0.31,0.252-0.56,0.559-0.56c0.311,0,0.559,0.25,0.559,0.56
	C205.49-1126.126,205.242-1125.874,204.932-1125.874z M210.053-1121.512c-0.307,0-0.555-0.252-0.555-0.56
	c0-0.309,0.248-0.562,0.555-0.562c0.312,0,0.562,0.253,0.562,0.562C210.615-1121.764,210.364-1121.512,210.053-1121.512z
	 M266.082-1121.512c-0.308,0-0.559-0.252-0.559-0.56c0-0.309,0.251-0.562,0.559-0.562c0.311,0,0.562,0.253,0.562,0.562
	C266.645-1121.764,266.393-1121.512,266.082-1121.512z M271.207-1125.874c-0.31,0-0.561-0.252-0.561-0.561
	c0-0.31,0.251-0.56,0.561-0.56c0.306,0,0.559,0.25,0.559,0.56C271.766-1126.126,271.513-1125.874,271.207-1125.874z
	 M266.482-1130.078c0,0.312-0.252,0.56-0.559,0.56c-0.31,0-0.56-0.248-0.56-0.56c0-0.308,0.25-0.559,0.56-0.559
	C266.23-1130.637,266.482-1130.386,266.482-1130.078z"/>
<rect x="-82.734" y="-870.556" width="640" height="148"/>
<line fill="none" stroke="#231F20" stroke-width="20" stroke-linecap="round" stroke-linejoin="round" stroke-miterlimit="10" x1="-24.734" y1="-796.556" x2="498.266" y2="-796.556"/>
<g>
	<path d="M-17.735-457.556c-21.229,0-38.5,17.271-38.5,38.5s17.271,38.5,38.5,38.5s38.5-17.271,38.5-38.5
		S3.493-457.556-17.735-457.556z"/>
	<path fill="#FFFFFF" d="M-17.735-477.556c-32.257,0-58.5,26.243-58.5,58.5s26.243,58.5,58.5,58.5s58.5-26.243,58.5-58.5
		S14.521-477.556-17.735-477.556z M-17.735-380.556c-21.229,0-38.5-17.271-38.5-38.5s17.271-38.5,38.5-38.5s38.5,17.271,38.5,38.5
		S3.493-380.556-17.735-380.556z"/>
</g>
<g>
	<path d="M15.265-834.556c-21.229,0-38.5,17.271-38.5,38.5s17.271,38.5,38.5,38.5s38.5-17.271,38.5-38.5
		S36.493-834.556,15.265-834.556z"/>
	<path fill="#FFFFFF" d="M15.265-854.556c-32.257,0-58.5,26.243-58.5,58.5s26.243,58.5,58.5,58.5s58.5-26.243,58.5-58.5
		S47.521-854.556,15.265-854.556z M15.265-757.556c-21.229,0-38.5-17.271-38.5-38.5s17.271-38.5,38.5-38.5s38.5,17.271,38.5,38.5
		S36.493-757.556,15.265-757.556z"/>
</g>
<g>
	<path d="M524.266-962.556c0,27.614-22.386,50-50,50h-474c-27.614,0-50-22.386-50-50v-63c0-27.614,22.386-50,50-50h474
		c27.614,0,50,22.386,50,50V-962.556z"/>
</g>
<polygon points="31.812,-916.556 14.932,-887.317 -1.948,-916.556 "/>
<g>
	<path d="M642.266-364.556c0,27.614-22.386,50-50,50h-474c-27.614,0-50-22.386-50-50v-63c0-27.614,22.386-50,50-50h474
		c27.614,0,50,22.386,50,50V-364.556z"/>
</g>
<polygon points="149.812,-289.556 132.932,-260.317 116.052,-289.556 "/>
<text transform="matrix(1 0 0 1 3.4248 -971.5557)" fill="#FFFFFF" font-family="'EuclidBPtestFont-Bold'" font-size="81.0274">Panther Milk</text>
<text transform="matrix(1 0 0 1 3.4248 -123.5557)" fill="#FFFFFF" font-family="'EuclidBPtestFont-Bold'" font-size="81.0274">Panther Milk</text>
<text transform="matrix(1 0 0 1 -3.4932 50.4443)" fill="#FFFFFF" font-family="'EuclidBPtestFont-Bold'" font-size="59">Spicy Pickle Backs</text>
</svg>
