<?xml version="1.0" encoding="utf-8"?>
<!-- Generator: Adobe Illustrator 15.1.0, SVG Export Plug-In . SVG Version: 6.00 Build 0)  -->
<!DOCTYPE svg PUBLIC "-//W3C//DTD SVG 1.1//EN" "http://www.w3.org/Graphics/SVG/1.1/DTD/svg11.dtd">
<svg version="1.1" id="Layer_1" xmlns="http://www.w3.org/2000/svg" xmlns:xlink="http://www.w3.org/1999/xlink" x="0px" y="0px"
	 width="640px" height="959px" viewBox="0 0 640 959" enable-background="new 0 0 640 959" xml:space="preserve">
<rect x="-1979" y="-1013" fill="#274FA3" width="960" height="640"/>
<g>
	<defs>
		<rect id="SVGID_1_" x="-1979" y="-1013" width="960" height="640"/>
	</defs>
	<clipPath id="SVGID_2_">
		<use xlink:href="#SVGID_1_"  overflow="visible"/>
	</clipPath>
	<path clip-path="url(#SVGID_2_)" fill="none" d="M-1424.756-581.885c10.58-12.034,36.3-20.76,66.292-21.199
		c31.363-0.458,89.087,16.226,115.534,24.442c-1.119-0.646-2.306-1.327-3.547-2.034c-27.289-13.008-82.666-37.477-112.202-37.043
		C-1393.05-617.214-1417.884-600.241-1424.756-581.885z"/>
	<path clip-path="url(#SVGID_2_)" fill="none" d="M-1838.445-810.143c0.949-1.3,2.466-1.857,4.264-1.857c0.002,0,0.182,0,0.182,0
		v-0.705C-1836-812.703-1837.518-811.538-1838.445-810.143z"/>
	<path clip-path="url(#SVGID_2_)" fill="none" d="M-1426.188-573.051c1.03,0.473,2.576,0.974,4.609,1.478
		c-1.349-1.322-2.53-2.688-3.576-4.079C-1425.598-574.787-1425.943-573.919-1426.188-573.051z"/>
	<path clip-path="url(#SVGID_2_)" fill="none" d="M-1358.511-563.835c-18.795,0.274-36.407-0.493-49.808-2.16
		c0.238,0.13,0.466,0.265,0.708,0.394c13.233,7.022,30.938,10.736,49.85,10.457c29.104-0.423,82.483-10.146,110.129-15.564
		C-1275.594-568.403-1329.199-564.263-1358.511-563.835z"/>
	<path clip-path="url(#SVGID_2_)" fill="none" d="M-1253.826-578.505c-28.966-8.631-77.509-21.702-104.59-21.308
		c-30.696,0.451-53.81,9.232-63.386,19.488c14.962-4.379,44.829-6.076,62.956-6.344
		C-1331.527-587.066-1283.043-581.951-1253.826-578.505z"/>
	<path clip-path="url(#SVGID_2_)" fill="none" d="M-1633.266-820.713c-0.24,0-0.466-0.062-0.668-0.16l-9.652,14.109l-0.227-0.169
		l-0.013,0.019l0.239,0.166l9.652-14.116c0.202,0.098,0.428,0.159,0.668,0.159c0.848,0,1.539-0.682,1.543-1.531l7.182-7.174
		l-0.009-0.009l-7.173,7.173C-1631.727-821.397-1632.418-820.713-1633.266-820.713z"/>
	<path clip-path="url(#SVGID_2_)" fill="none" d="M-1838.949-805.216c0.758,1.929,1.949,3.045,4.949,3.048V-802c0,0-0.18,0-0.182,0
		C-1836.352-802-1838.146-803.414-1838.949-805.216z"/>
	<path clip-path="url(#SVGID_2_)" fill="none" d="M-1814.07-782.181c-1.274,0.966-2.325,2.437-2.325,4.086
		c0,1.259,0.612,2.413,1.468,3.319c-0.651-0.923-1.042-2.044-1.042-3.22C-1815.97-779.623-1815.23-781.15-1814.07-782.181z"/>
	<path clip-path="url(#SVGID_2_)" fill="none" d="M-1408.814-547.437c-5.1-2.253-9.365-4.841-12.705-7.641
		c3.343,5.308,8.229,10.267,14.432,14.504c13.228,9.037,30.891,13.861,49.739,13.585c25.405-0.372,69.372-19.715,98.293-33.901
		c-29.133,9.436-72.592,22.001-98.461,22.379C-1376.931-538.228-1395.147-541.398-1408.814-547.437z"/>
	<path clip-path="url(#SVGID_2_)" fill="none" d="M-1358.727-620.987c18.359-0.269,45.734,8.493,70.627,18.386
		c-25.031-12.003-52.688-22.813-70.688-22.549c-40.764,0.596-68.146,18.981-68.146,35.777c0.017,1.153,0.161,2.304,0.414,3.447
		C-1417.748-604.275-1392.691-620.489-1358.727-620.987z"/>
	<path clip-path="url(#SVGID_2_)" fill="none" d="M-1358.559-567.105c30.173-0.441,86.234-4.831,113.294-7.081
		c-27.08-3.308-83.367-9.65-113.532-9.21c-32.066,0.469-53.573,3.659-63.191,6.499c1.854,2.329,4.211,4.562,7.018,6.659
		C-1403.477-568.315-1384.417-566.726-1358.559-567.105z"/>
	<path clip-path="url(#SVGID_2_)" fill="none" d="M-1825.358-836.994c0-0.116,0.01-0.23,0.018-0.346
		c-0.02,0.187-0.055,0.369-0.055,0.561c0,2.376,1.521,4.357,3.706,5.016C-1823.816-832.497-1825.358-834.641-1825.358-836.994z"/>
	<path clip-path="url(#SVGID_2_)" fill="none" d="M-1409.145-562.715c-2.633-1.397-5.036-2.9-7.213-4.484
		c-4.846-0.879-8.078-1.809-10.236-2.706c0.056,0.825,0.142,1.649,0.271,2.472c1.498,6.252,8.18,12.299,18.83,17.006
		c13.247,5.852,30.977,8.925,49.926,8.646c27.24-0.396,75.79-15.057,104.428-24.529c-28.939,5.557-77.271,14.037-104.575,14.436
		C-1377.168-551.59-1395.43-555.437-1409.145-562.715z"/>
	<path clip-path="url(#SVGID_2_)" fill="#231F20" d="M-1447.143-391.057c-13.561-8.864-27.178-17.656-40.453-26.886
		c-6.636-4.613-13.222-9.288-19.967-13.766c-3.393-2.217-6.664-4.579-9.709-7.229c-0.708-0.737-1.646-1.174-2.154-2.16
		c-0.057-0.748,0.272-1.981,0.266-2.783c-0.059-0.741-0.479-0.954-0.752-1.423c-1.287-1.623-2.743-2.992-4.812-3.597l-1.11,1.414
		l-157.817-124.129c0,0-2.427-1.649-4.06,0.424c-1.631,2.073-3.254,6.984-1.585,12.214c1.669,5.227,16.73,40.61,63.631,77.5
		c46.896,36.887,64.294,50.572,64.294,50.572s4.383,2.322,11.061-1.187c6.682-3.515,11.143-1.678,12.713-0.443l-1.447,1.843
		c1.076,1.868,2.744,2.966,4.627,3.832c0.52,0.158,0.844,0.529,1.576,0.411c0.783-0.185,1.894-0.799,2.634-0.919
		c1.077,0.262,1.72,1.063,2.603,1.575c3.294,2.336,6.358,4.961,9.311,7.733c5.943,5.5,12.037,10.797,18.082,16.164
		c12.098,10.725,23.849,21.889,35.657,32.977c11.788,11.116,23.714,22.057,36.237,32.233c6.229,5.135,12.648,10.024,19.113,14.86
		c3.265,2.379,6.521,4.762,9.832,7.076c1.721,1.072,4.228,1.507,7.182,1.012c3.066-0.635,6.781-1.719,11.975-5.086l1.631-2.075
		c2.053-5.842,2.229-9.705,2.123-12.832c-0.217-2.993-1.141-5.257-2.592-6.677c-3.031-2.672-6.156-5.309-9.236-7.922
		c-6.225-5.142-12.508-10.247-18.964-15.089C-1420.094-373.196-1433.562-382.221-1447.143-391.057z"/>
	<path clip-path="url(#SVGID_2_)" fill="#231F20" d="M-1848.239-683.135c-0.651-0.473-1.011-1.26-2.092-1.275
		c-0.997-0.106-2.084-0.111-3.131-0.17l-6.309-0.275c-4.178-0.219-8.477-0.309-12.579-0.608l-3.075-0.225
		c-0.993-0.106-2.155-0.036-2.888-0.424c-1.289-0.962-2.358-2.155-3.551-3.224l-13.94-13.156
		c-9.312-8.757-18.394-17.759-27.053-27.208c-8.781-9.323-17.205-19.022-25.612-28.739c-16.751-19.512-32.959-39.592-50.201-58.574
		c-8.63-9.481-17.603-18.601-26.84-27.434c-4.585-4.451-9.325-8.741-14.065-13.034c-2.495-2.01-5.865-3.403-9.998-3.67
		c-4.241-0.154-8.663,0.749-16.304,3.046l-2.41,2.566c-1.805,7.77-2.423,12.237-2.007,16.465c0.535,4.102,2.057,7.306,4.223,9.665
		c4.576,4.466,9.205,8.956,13.938,13.251c9.396,8.661,19.089,17.055,29.094,25.07c20.039,16,41.117,30.915,61.648,46.398
		c10.23,7.773,20.452,15.57,30.309,23.744c9.979,8.043,19.542,16.538,28.873,25.272l14.011,13.086
		c1.14,1.122,2.407,2.109,3.446,3.335c0.431,0.711,0.438,1.873,0.604,2.858l0.418,3.059c0.561,4.072,0.928,8.351,1.404,12.512
		l0.678,6.278c0.127,1.036,0.201,2.122,0.365,3.115c0.083,1.077,0.895,1.387,1.406,2.004l6.863,6.695
		c4.574,4.391,9.199,8.729,13.973,12.908c0.035,0.036,0.064,0.078,0.103,0.113l64.22,58.062c0.409,0.365,1.037,0.352,1.428-0.05
		c0.394-0.402,0.383-1.05-0.022-1.448l-57.899-56.408c-1.642-1.642-1.699-4.297-0.102-6.002c1.536-1.636,4.029-1.791,5.769-0.456
		l60.175,54.402c0.406,0.37,1.039,0.353,1.424-0.046c0.399-0.406,0.387-1.054-0.021-1.445l-58.445-56.942
		c-1.143-1.639-1.023-3.905,0.4-5.421c1.633-1.741,4.367-1.827,6.105-0.194l0.03-0.025l59.853,54.114
		c0.41,0.369,1.04,0.354,1.427-0.045c0.397-0.406,0.385-1.053-0.022-1.449l-58.034-56.54c-1.509-1.651-1.534-4.199,0.024-5.858
		c1.572-1.674,4.159-1.803,5.902-0.352l60.051,54.287c0.408,0.368,1.039,0.354,1.427-0.047c0.394-0.403,0.419-1.022,0.013-1.418
		l-61.978-60.382l0.038-0.041c-4.223-4.273-9.199-8.948-13.909-13.267L-1848.239-683.135z"/>
	<g clip-path="url(#SVGID_2_)">
		<path fill="#231F20" d="M-2009.416-289.786c2.326-0.55,4.223-1.393,5.737-3.062l289.498-317.579
			c0.397-0.439,0.421-1.165-0.005-1.584c-0.443-0.437-1.229-0.545-1.662-0.105l-301.386,306.133c-0.068,0.07-0.17,0.179-0.244,0.257
			c-1.464,1.545-1.971,3.687-2.452,5.986L-2009.416-289.786z"/>
		<path fill="#231F20" d="M-2001.297-282.095l10.515,9.958c2.324-0.555,4.22-1.397,5.738-3.062l289.494-317.584
			c0.396-0.44,0.426-1.16-0.005-1.584c-0.439-0.432-1.126-0.449-1.562-0.01l-301.291,306.24c-0.068,0.07-0.316,0.331-0.389,0.411
			C-2000.229-286.152-2000.817-284.396-2001.297-282.095z"/>
	</g>
	<path clip-path="url(#SVGID_2_)" fill="#231F20" d="M-1587.255-924.059c0.855-7.433,0.685-15.18-0.885-23.379l-0.294-1.539
		l-0.352-1.549c-0.223-1.038-0.516-2.095-0.789-3.14c-0.604-2.117-1.26-4.255-2.064-6.437c-0.815-2.184-1.709-4.394-2.822-6.672
		l-0.793-1.629c-0.704-0.496-3.737-2.279-3.846,3.371c-0.115,6.396-0.438,12.036-2.271,11.108c-1.835-0.935-2.306-1.084-2.306-1.084
		s-1.58-0.503-1.379-3.307c0.193-2.812-0.327-14.03-0.852-17.851c-0.529-3.824-3.466-3.1-4.277-1.36
		c-0.816,1.747-5.548,15.815-6.449,16.748c-0.906,0.925-2.275,0.583-3.463,0.205c-1.184-0.376-2.501-0.889-2.707-2.167
		c-0.2-1.282,4.062-15.501,4.402-17.398c0.349-1.887-1.629-4.174-4.264-1.356c-2.641,2.814-9.547,11.671-11.003,14.081
		c-1.464,2.403-3.042,1.901-3.042,1.901s-0.471-0.149-2.512-0.448c-2.025-0.299,0.965-5.092,4.564-10.379
		c3.171-4.676-0.333-4.972-1.198-4.975l-1.583,0.873c-2.223,1.218-4.228,2.506-6.158,3.816c-1.918,1.315-3.686,2.684-5.394,4.065
		c-0.827,0.694-1.681,1.388-2.46,2.106l-1.186,1.061l-1.136,1.084c-6.015,5.788-10.625,12.015-14.218,18.577
		c-3.571,6.562-6.127,13.443-7.73,20.64c-1.549,7.202-1.584,14.893-0.217,23.024c0.652,4.06,1.625,8.214,2.779,12.431
		c0.53,2.093,1.165,4.222,1.757,6.335l1.761,6.333c2.358,8.446,4.643,16.875,4.326,24.471l-47.297,148.741
		c-1.924,6.052,1.427,12.51,7.478,14.435c6.05,1.923,12.518-1.413,14.442-7.465l47.296-148.74
		c5.081-6.082,10.913-11.93,17.716-17.463l5.145-4.137c1.691-1.388,3.44-2.758,5.089-4.158c3.38-2.775,6.575-5.605,9.459-8.539
		c5.81-5.851,10.22-12.149,13.12-18.922C-1590.023-909.546-1588.132-916.64-1587.255-924.059z"/>
	<path clip-path="url(#SVGID_2_)" fill="#231F20" d="M-1626.916-635.473c5.856,24.168,30.194,39.011,54.362,33.154
		c15.253-3.696,26.783-14.758,31.747-28.487l0.03,0.055c6.016-18.042,19.093-20.5,19.093-20.5l64.508-15.632l22.353-1.3
		l132.959-32.22c0,0,5.672-14.751-6.595-27.212l-132.959,32.219l-20.232,10.047l-64.254,15.632c0,0-13.096,3.853-26.096-9.437v0.066
		c-11-9.934-26.262-14.467-41.514-10.771C-1617.682-684.002-1632.771-659.638-1626.916-635.473z M-1308.787-712.563
		c0.428,1.764-0.656,3.541-2.418,3.968c-1.765,0.428-3.537-0.657-3.965-2.421c-0.428-1.762,0.653-3.537,2.418-3.965
		C-1310.99-715.408-1309.215-714.325-1308.787-712.563z"/>
	<g clip-path="url(#SVGID_2_)">
		<path fill="#231F20" d="M-1868.872-770.324c7.373-0.859,12.712-7.541,11.853-14.91l-9.297-79.752l1.987-0.232l12.016,103.07
			c0.858,7.367,7.589,12.641,14.963,11.78c7.374-0.859,12.714-7.539,11.855-14.906l-12.016-103.071l2.979-0.347l13.646,117.057
			c0.858,7.369,7.095,12.7,14.47,11.841c7.372-0.859,12.214-7.482,11.354-14.852l-13.646-117.057l2.979-0.348l10.928,93.744
			c0.859,7.369,7.592,12.64,14.966,11.779c7.372-0.859,12.712-7.537,11.853-14.906l-10.894-93.449l-1.355-10.207l2.15-0.251
			l3.113,26.702c0.858,7.365,7.505,12.33,14.879,11.471l4.078-0.475c2.34-0.273,4.229-2.098,3.956-4.441l-5.541-47.525
			c0,0-4.013-34.422-25.042-33.459l-0.008-0.066l-2.98,0.348l-0.556-4.764l-1.876-16.095l-36.478,4.253
			c-3.474,7.452-10.671,13.195-19.517,14.227s-17.172-2.902-22.267-9.355l-35.966,4.191l3.049,26.156l0.469,4.02l5.664,48.588
			l9.263,79.459C-1882.979-774.74-1876.243-769.465-1868.872-770.324z M-1760.892-892.379l2.583-0.301
			c0.323-0.037,0.603,0.107,0.641,0.432c0.037,0.318-0.202,0.523-0.525,0.562l-2.583,0.302c-0.319,0.037-0.603-0.107-0.64-0.428
			C-1761.454-892.137-1761.211-892.342-1760.892-892.379z M-1760.66-890.393l2.583-0.301c0.323-0.037,0.603,0.104,0.641,0.428
			c0.037,0.322-0.202,0.527-0.525,0.565l-2.583,0.302c-0.319,0.037-0.603-0.107-0.64-0.43
			C-1761.223-890.152-1760.979-890.355-1760.66-890.393z M-1758.763-866.451l3.284-0.383l1.485,14.055
			c0.192,1.646-0.779,3.273-2.767,3.504L-1758.763-866.451z M-1797.861-844.777c-0.319,0.037-0.602-0.109-0.639-0.432
			c-0.038-0.319,0.203-0.525,0.523-0.562l17.371-2.024c0.322-0.038,0.604,0.106,0.642,0.427c0.037,0.322-0.203,0.529-0.525,0.566
			 M-1797.745-843.785l17.372-2.024c0.322-0.038,0.661,0.604,0.698,0.925s-0.145,1.023-0.467,1.062l-17.372,2.024
			c-0.319,0.037-0.66-0.604-0.697-0.925S-1798.064-843.748-1797.745-843.785z M-1790.816-814.389
			c-0.323,0.037-0.662-0.605-0.699-0.928c-0.037-0.317,0.145-1.021,0.468-1.059l10.465-1.221c0.323-0.037,0.66,0.605,0.697,0.924
			c0.037,0.322-0.143,1.025-0.466,1.062 M-1790.585-812.402c-0.323,0.038-0.604-0.106-0.641-0.427
			c-0.038-0.324,0.201-0.528,0.524-0.565l10.465-1.221c0.323-0.037,0.603,0.105,0.641,0.43c0.037,0.32-0.201,0.525-0.524,0.563
			 M-1792.601-785.365c-0.136-1.165,0.857-1.733,2.101-1.879l2.678-0.312l0.023-0.003l0.108-0.012l10.465-1.221l0.307-0.035
			l0.022-0.004l2.402-0.279c1.441-0.168,2.724,0.689,2.839,1.684l-0.043,0.005l0.739,6.335c0.68,5.833-3.36,11.117-9.198,11.798
			c-5.835,0.681-10.98-3.533-11.661-9.366L-1792.601-785.365z M-1825.5-828.469l17.368-2.023c0.324-0.039,0.605,0.109,0.643,0.428
			c0.037,0.322-0.202,0.527-0.526,0.566l-17.368,2.023c-0.317,0.037-0.602-0.107-0.639-0.43
			C-1826.06-828.223-1825.817-828.432-1825.5-828.469z M-1825.268-826.48l17.368-2.025c0.324-0.037,0.662,0.605,0.7,0.928
			c0.037,0.32-0.145,1.021-0.469,1.059l-17.368,2.025c-0.317,0.037-0.659-0.603-0.696-0.923
			C-1825.771-825.739-1825.585-826.443-1825.268-826.48z M-1806.833-789.366l-10.467,1.22c-0.32,0.038-0.601-0.107-0.638-0.428
			c-0.038-0.322,0.201-0.527,0.521-0.564l10.467-1.221c0.322-0.037,0.602,0.107,0.64,0.43
			C-1806.272-789.609-1806.511-789.404-1806.833-789.366z M-1805.963-786.951c0.037,0.32-0.2,0.527-0.522,0.564l-10.467,1.221
			c-0.32,0.037-0.602-0.109-0.639-0.43s0.202-0.526,0.522-0.564l10.467-1.22C-1806.279-787.418-1806-787.271-1805.963-786.951z
			 M-1819.682-758.58c0.857-1.277,1.46-2.275,2.7-2.42l2.808-0.328l0.21-0.023l9.933-1.158l0.324-0.038l2.731-0.318
			c1.442-0.168,2.728,0.688,2.959,2.675l0.293-0.033l0.677,5.811c0.681,5.832-3.858,11.176-9.693,11.855
			c-5.84,0.681-11.479-3.476-12.158-9.309L-1819.682-758.58z M-1855.222-830.037l17.369-2.023c0.322-0.039,0.603,0.107,0.64,0.426
			c0.037,0.322-0.202,0.529-0.524,0.566l-17.369,2.025c-0.318,0.037-0.603-0.109-0.64-0.432
			C-1855.783-829.792-1855.54-830-1855.222-830.037z M-1854.875-827.057l17.369-2.025c0.322-0.037,0.603,0.109,0.641,0.43
			c0.037,0.322-0.202,0.525-0.524,0.564l-17.369,2.023c-0.318,0.037-0.603-0.104-0.64-0.427
			C-1855.437-826.812-1855.193-827.02-1854.875-827.057z M-1837.601-799.875l-10.464,1.221c-0.32,0.037-0.6-0.109-0.637-0.43
			c-0.038-0.32,0.2-0.527,0.521-0.564l10.464-1.219c0.325-0.039,0.604,0.107,0.643,0.428
			C-1837.037-800.119-1837.275-799.912-1837.601-799.875z M-1836.728-797.459c0.037,0.318-0.2,0.527-0.525,0.564l-10.464,1.221
			c-0.32,0.037-0.601-0.111-0.638-0.43c-0.037-0.324,0.201-0.527,0.521-0.564l10.464-1.219
			C-1837.044-797.926-1836.765-797.783-1836.728-797.459z M-1850.117-769.213c-0.136-1.16,1.133-1.76,2.372-1.904l2.362,0.117h0.002
			l0.442-0.443l10.464-1.387l0.016-0.169h0.002l2.717-0.346c1.444-0.168,2.727,0.674,2.958,2.661l-0.361,0.036l0.668,5.725
			c0.68,5.83-3.361,11.115-9.2,11.795c-5.838,0.681-10.979-3.536-11.658-9.366L-1850.117-769.213z M-1880.911-827.041l10.463-1.221
			c0.322-0.037,0.602,0.107,0.64,0.426c0.037,0.324-0.202,0.529-0.524,0.568l-10.463,1.219c-0.321,0.037-0.604-0.106-0.641-0.431
			C-1881.475-826.799-1881.232-827.004-1880.911-827.041z M-1880.564-824.062l10.463-1.219c0.322-0.039,0.603,0.105,0.64,0.426
			c0.038,0.324-0.201,0.529-0.523,0.566l-10.463,1.221c-0.321,0.037-0.604-0.107-0.642-0.431
			C-1881.127-823.819-1880.886-824.025-1880.564-824.062z M-1881.638-789.152c-0.137-1.172,0.721-2.652,1.969-2.797l2.702-0.315
			l0.109-0.013l10.461-1.219l0.356-0.042l2.378-0.277c1.443-0.169,2.84,1.683,2.955,2.675l-0.021,0.003l0.729,6.251
			c0.681,5.832-3.357,11.118-9.197,11.799c-5.839,0.682-10.98-3.535-11.661-9.367L-1881.638-789.152z"/>
		<path fill="#231F20" d="M-1849.818-984.643c7.566-0.883,14.798,2.242,19.859,6.686l38.546-4.493l-12.043-103.301l-114.227,13.315
			l12.043,103.301l38.036-4.434C-1863.701-979.057-1857.385-983.761-1849.818-984.643z"/>
		<path fill="#231F20" d="M-1822.516-962.752c0.421,3.605,0.022,7.08-1.04,10.225l35.152-4.098l-2.663-22.846l-36.729,4.281
			C-1824.942-971.494-1823.073-967.537-1822.516-962.752z"/>
		<path fill="#231F20" d="M-1871.352-957.06c-0.558-4.785,0.353-9.065,2.276-13.317l-36.218,4.223l2.663,22.846l34.643-4.039
			C-1869.744-950.164-1870.931-953.453-1871.352-957.06z"/>
		<path fill="#231F20" d="M-1844.361-937.834c12.075-1.407,20.757-12.379,19.349-24.457c-1.407-12.077-12.38-20.757-24.455-19.35
			c-12.077,1.408-20.758,12.379-19.351,24.456C-1867.41-945.106-1856.438-936.426-1844.361-937.834z M-1855.052-967.572l0.01,0.008
			l0.007-0.01l7.957,6.301c0.845-0.094,1.603,0.514,1.7,1.356c0.028,0.238-0.007,0.47-0.08,0.682l15.138,7.952l-0.137,0.258
			l-0.02-0.011l-0.008,0.015l-15.154-7.94c-0.084,0.147-0.387,0.306-0.375,0.401l1.921,16.482l-0.993,0.115l-1.9-16.303
			c-1.018-0.096-1.252-0.639-1.33-1.309c-0.002-0.021-0.131-0.027-0.132-0.051l-7.929-6.273L-1855.052-967.572z"/>
	</g>
	<path clip-path="url(#SVGID_2_)" fill="#231F20" d="M-1180.955-929.122c-2.543,3.029-4.773,6.498-6.708,10.398
		c-1.897,3.953-3.542,8.273-4.335,13.816c-0.549,3.918,2.002,7.686,5.93,8.546c5.467,1.194,10.092,1.169,14.458,0.774
		c4.333-0.443,8.363-1.318,12.089-2.643c3.736-1.301,7.199-2.999,10.439-5.018c1.596-1.041,3.23-2.029,4.635-3.355
		c1.393-1.332,2.447-3.158,3.268-5.318c1.66-4.293,2.084-10.367,3.48-15.049c0.695-2.339,1.582-4.411,2.762-6.052
		c1.195-1.62,2.662-2.847,4.023-4.237c6.25-4.977,11.839-9.679,18.393-13.613c13.262-7.642,25.777-16.348,39.68-23.07
		c6.895-3.437,13.829-6.818,20.354-10.787c3.266-1.983,6.468-4.062,9.562-6.291c3.258-1.99,6.006-4.713,5.258-12.479
		c-0.116-1.208-0.846-2.333-2.018-2.908c-7.012-3.419-10.525-1.799-13.53,0.556c-3.17,2.119-6.238,4.391-9.239,6.754
		c-6.002,4.726-11.6,10.034-17.23,15.291c-11.162,10.672-23.701,19.346-35.502,29.092c-5.981,4.761-12.504,8.442-19.191,12.463
		c-1.782,0.785-3.443,1.73-5.377,2.287c-1.952,0.527-4.201,0.635-6.637,0.466c-4.873-0.329-10.715-2.062-15.314-2.007
		c-2.312,0.01-4.391,0.359-6.126,1.197c-1.733,0.854-3.233,2.035-4.765,3.168C-1175.625-934.816-1178.426-932.162-1180.955-929.122z
		"/>
	<path clip-path="url(#SVGID_2_)" fill="#231F20" d="M-1922.021-499.913c2.58,2.998,5.645,5.758,9.184,8.295
		c3.596,2.51,7.594,4.828,12.938,6.503c3.779,1.173,7.908-0.738,9.389-4.477c2.06-5.203,2.779-9.771,3.093-14.145
		c0.261-4.348,0.045-8.466-0.661-12.356c-0.682-3.897-1.802-7.588-3.271-11.111c-0.771-1.742-1.483-3.515-2.566-5.114
		c-1.09-1.589-2.723-2.924-4.723-4.081c-3.97-2.33-9.896-3.727-14.292-5.858c-2.196-1.062-4.099-2.271-5.528-3.7
		c-1.406-1.44-2.381-3.085-3.533-4.653c-3.906-6.97-7.646-13.242-10.476-20.345c-5.405-14.318-11.983-28.072-16.38-42.876
		c-2.281-7.357-4.502-14.746-7.369-21.825c-1.432-3.543-2.969-7.038-4.67-10.449c-1.439-3.537-3.684-6.688-11.469-7.199
		c-1.211-0.08-2.439,0.458-3.196,1.523c-4.503,6.369-3.47,10.098-1.63,13.442c1.582,3.47,3.328,6.864,5.179,10.207
		c3.697,6.684,8.036,13.063,12.316,19.467c8.736,12.734,15.278,26.507,22.997,39.723c3.734,6.67,6.318,13.7,9.209,20.947
		c0.489,1.886,1.154,3.678,1.393,5.676c0.206,2.012-0.051,4.249-0.608,6.625c-1.11,4.757-3.761,10.243-4.447,14.791
		c-0.362,2.284-0.352,4.392,0.195,6.239c0.563,1.848,1.488,3.519,2.36,5.213C-1926.783-506.091-1924.615-502.898-1922.021-499.913z"
		/>
	<polygon clip-path="url(#SVGID_2_)" fill="#231F20" points="-1298.866,-940.839 -1298.11,-940.6 -1296.093,-941.311 
		-1296.07,-941.344 -1199.477,-972.465 -1203.956,-986.369 -1301.561,-954.925 -1301.544,-954.877 -1302.989,-954.367 
		-1304.269,-952.423 -1306.765,-952.666 -1308.589,-951.538 -1309.427,-949.381 -1311.916,-949.094 -1313.467,-947.611 
		-1313.832,-945.32 -1316.208,-944.518 -1317.412,-942.737 -1317.288,-940.421 -1319.446,-939.134 -1320.241,-937.152 
		-1319.636,-934.909 -1321.472,-933.204 -1321.841,-931.089 -1320.771,-929.033 -1322.212,-926.975 -1322.125,-924.834 
		-1320.652,-923.034 -1321.626,-920.726 -1321.099,-918.648 -1319.276,-917.205 -1319.739,-914.745 -1318.792,-912.827 
		-1316.71,-911.795 -1316.644,-909.287 -1315.31,-907.615 -1313.056,-907.043 -1312.472,-904.61 -1310.814,-903.249 
		-1308.534,-903.086 -1307.481,-900.75 -1306.081,-900.032 -1305.579,-899.774 -1003.636,-744.984 -996.792,-758.332 
		-1298.736,-913.122 -1299.239,-913.38 -1300.639,-914.098 -1301.327,-913.886 -1301.539,-914.612 -1303.212,-915.938 
		-1303.868,-915.951 -1303.894,-916.74 -1305.228,-918.413 -1305.858,-918.568 -1305.713,-919.343 -1306.669,-921.256 
		-1307.251,-921.545 -1306.942,-922.278 -1307.474,-924.356 -1307.981,-924.76 -1307.53,-925.407 -1307.618,-927.545 
		-1308.03,-928.049 -1307.449,-928.59 -1307.082,-930.694 -1307.38,-931.271 -1306.696,-931.679 -1305.896,-933.664 
		-1306.067,-934.296 -1305.317,-934.549 -1304.115,-936.322 -1304.149,-936.971 -1303.358,-937.062 -1301.812,-938.542 
		-1301.71,-939.184 -1300.925,-939.108 -1299.103,-940.229 	"/>
	<polygon clip-path="url(#SVGID_2_)" fill="#231F20" points="-1046.844,-499.154 -1042.863,-570.695 -1042.896,-570.697 
		-1042.866,-571.768 -1043.812,-573.093 -1043.029,-574.66 -1043.304,-576.131 -1044.504,-577.22 -1044.066,-578.914 
		-1044.645,-580.299 -1046.045,-581.111 -1045.973,-582.863 -1046.832,-584.092 -1048.374,-584.594 -1048.674,-586.323 
		-1049.768,-587.34 -1051.379,-587.51 -1052.031,-589.133 -1053.318,-589.903 -1054.927,-589.724 -1055.906,-591.178 
		-1057.326,-591.659 -1058.867,-591.15 -1060.131,-592.365 -1061.617,-592.541 -1063.015,-591.717 -1064.503,-592.635 
		-1065.992,-592.496 -1067.188,-591.398 -1068.84,-591.986 -1070.266,-591.535 -1071.205,-590.207 -1072.939,-590.436 
		-1074.238,-589.696 -1074.744,-588.052 -1076.355,-587.758 -1077.174,-587.025 -1077.467,-586.761 -1266.515,-417.65 
		-1259.848,-410.197 -1070.8,-579.308 -1070.506,-579.572 -1069.688,-580.304 -1069.669,-580.824 -1069.15,-580.789 
		-1067.87,-581.551 -1067.699,-581.979 -1067.179,-581.8 -1065.752,-582.252 -1065.492,-582.625 -1065.023,-582.336 
		-1063.537,-582.476 -1063.203,-582.784 -1062.801,-582.397 -1061.312,-582.223 -1060.922,-582.453 -1060.614,-581.998 
		-1059.197,-581.517 -1058.767,-581.658 -1058.561,-581.144 -1057.279,-580.376 -1056.826,-580.426 -1056.731,-579.881 
		-1055.639,-578.857 -1055.184,-578.811 -1055.207,-578.26 -1054.353,-577.032 -1053.922,-576.89 -1054.059,-576.353 
		-1053.482,-574.97 -1053.089,-574.744 -1053.334,-574.254 -1053.062,-572.783 -1052.723,-572.474 -1053.07,-572.042 
		-1053.113,-570.548 -1053.094,-570.52 -1057.039,-499.72 	"/>
	<path clip-path="url(#SVGID_2_)" fill="#231F20" d="M-1517.436-987.311c-10.835,10.375-22.259,25.07-27.806,33.533
		c-5.547,8.462-14.467,24.802-19.66,38.876c-5.19,14.074,7.022,20.738,7.022,20.738s98.894,33.721,114.004,38.698
		c15.113,4.978,18.06-0.889,18.06-0.889l221.928,145.479l2.813-1.188l7.384-11.265l7.385-11.266l-0.039-3.045l-221.926-145.479
		c0,0,4.203-5.045-6.387-16.918c-10.592-11.874-80.901-89.2-80.901-89.2S-1506.601-997.685-1517.436-987.311z M-1455.268-875.742
		c0.63,0.878,0.621,2.018,0.065,2.866c-0.166,0.252-0.38,0.48-0.641,0.663c-1.133,0.82-2.717,0.56-3.531-0.575
		c-0.057-0.078-6.078-8.264-20.473-17.701c-7.578-4.968-14.439-6.838-21.075-8.647c-6.306-1.722-12.265-3.347-18.396-7.366
		c-12.359-8.102-23.879-20.908-24.362-21.451c-0.932-1.038-0.843-2.639,0.195-3.569c1.044-0.932,2.642-0.843,3.576,0.197
		c0.113,0.128,11.568,12.86,23.363,20.593c5.463,3.58,11.045,5.104,16.954,6.717c6.69,1.823,14.271,3.89,22.52,9.296
		C-1461.808-884.716-1455.526-876.101-1455.268-875.742z M-1203.661-737.033c2.729,1.788,3.436,5.526,1.648,8.253
		s-5.499,3.57-8.226,1.783l-35.263-23.115c-2.728-1.788-3.435-5.53-1.647-8.256c1.787-2.727,5.499-3.568,8.226-1.78
		L-1203.661-737.033z M-1260.317-774.173c2.728,1.787,3.436,5.526,1.648,8.254c-1.787,2.725-5.5,3.57-8.227,1.782l-35.264-23.116
		c-2.727-1.787-3.434-5.53-1.646-8.256s5.499-3.567,8.225-1.779L-1260.317-774.173z M-1445.031-891.357
		c0.63,0.876,0.621,2.017,0.066,2.864c-0.168,0.257-0.382,0.483-0.644,0.67c-1.133,0.816-2.716,0.555-3.529-0.58
		c-0.057-0.076-6.078-8.265-20.473-17.701c-7.578-4.969-14.439-6.839-21.074-8.646c-6.309-1.722-12.267-3.348-18.396-7.366
		c-12.359-8.103-23.88-20.909-24.363-21.452c-0.932-1.038-0.843-2.638,0.197-3.57c1.043-0.93,2.64-0.842,3.573,0.199
		c0.115,0.127,11.569,12.861,23.366,20.594c5.461,3.58,11.044,5.1,16.955,6.712c6.689,1.825,14.27,3.894,22.517,9.3
		C-1451.572-900.329-1445.289-891.718-1445.031-891.357z M-1434.794-906.974c0.628,0.877,0.62,2.018,0.064,2.867
		c-0.166,0.252-0.381,0.482-0.641,0.665c-1.133,0.818-2.717,0.558-3.532-0.576c-0.055-0.08-6.078-8.264-20.474-17.701
		c-7.577-4.968-14.438-6.839-21.073-8.648c-6.307-1.72-12.268-3.346-18.397-7.364c-12.359-8.102-23.879-20.908-24.361-21.451
		c-0.932-1.037-0.844-2.639,0.196-3.572c1.044-0.932,2.643-0.844,3.576,0.197c0.114,0.128,11.567,12.861,23.364,20.593
		c5.461,3.58,11.044,5.103,16.954,6.714c6.689,1.826,14.27,3.895,22.516,9.302C-1441.338-915.944-1435.055-907.331-1434.794-906.974
		z"/>
	<path clip-path="url(#SVGID_2_)" fill="#231F20" d="M-1676.198-448.651c-14.23-4.744-32.557-7.994-42.632-8.955
		c-10.071-0.957-28.685-1.227-43.558,0.744c-14.87,1.974-15.067,15.886-15.067,15.886s16.3,103.205,18.944,118.893
		c2.647,15.69,9.211,15.559,9.211,15.559l-25.167,264.164l2.361,1.935l13.409,1.277l13.41,1.279l2.673-1.457l25.172-264.161
		c0,0,6.42,1.365,11.985-13.54c5.561-14.908,41.165-113.168,41.165-113.168S-1661.966-443.905-1676.198-448.651z M-1745.888-341.62
		c-0.483,0.967-1.494,1.489-2.505,1.396c-0.301-0.028-0.603-0.112-0.886-0.258c-1.254-0.619-1.762-2.142-1.137-3.393
		c0.042-0.086,4.475-9.229,6.106-26.365c0.859-9.021-0.685-15.962-2.181-22.676c-1.417-6.381-2.76-12.409-2.063-19.706
		c1.4-14.714,7.354-30.875,7.61-31.557c0.484-1.31,1.941-1.977,3.248-1.492c1.312,0.487,1.979,1.943,1.492,3.255
		c-0.059,0.159-5.979,16.232-7.315,30.273c-0.62,6.501,0.638,12.148,1.966,18.128c1.508,6.769,3.216,14.438,2.282,24.257
		C-1741-351.589-1745.69-342.014-1745.888-341.62z M-1751.224-54.361c-0.309,3.25-3.285,5.617-6.531,5.308
		c-3.246-0.309-5.724-3.198-5.415-6.445l4.001-41.973c0.309-3.247,3.289-5.617,6.534-5.309c3.244,0.31,5.721,3.2,5.411,6.445
		L-1751.224-54.361z M-1744.8-121.801c-0.307,3.246-3.285,5.617-6.531,5.31c-3.243-0.311-5.723-3.2-5.413-6.445l3.999-41.977
		c0.31-3.245,3.29-5.617,6.535-5.309c3.244,0.312,5.72,3.203,5.41,6.447L-1744.8-121.801z M-1727.3-339.848
		c-0.482,0.965-1.494,1.49-2.503,1.395c-0.307-0.028-0.606-0.113-0.894-0.257c-1.25-0.621-1.758-2.144-1.133-3.392
		c0.041-0.088,4.475-9.232,6.109-26.367c0.86-9.021-0.688-15.963-2.182-22.674c-1.421-6.383-2.762-12.413-2.065-19.707
		c1.4-14.713,7.356-30.877,7.61-31.558c0.484-1.31,1.941-1.976,3.252-1.492c1.307,0.49,1.975,1.941,1.489,3.255
		c-0.06,0.161-5.979,16.232-7.317,30.272c-0.619,6.503,0.641,12.149,1.971,18.13c1.507,6.769,3.212,14.438,2.276,24.254
		C-1722.416-349.818-1727.102-340.246-1727.3-339.848z M-1708.712-338.079c-0.483,0.966-1.496,1.492-2.506,1.396
		c-0.3-0.03-0.605-0.113-0.888-0.257c-1.253-0.62-1.76-2.143-1.138-3.394c0.045-0.085,4.475-9.231,6.109-26.366
		c0.858-9.02-0.687-15.962-2.18-22.675c-1.422-6.381-2.764-12.411-2.068-19.708c1.401-14.712,7.356-30.875,7.611-31.556
		c0.482-1.307,1.939-1.976,3.25-1.492c1.312,0.488,1.981,1.944,1.496,3.255c-0.061,0.161-5.982,16.232-7.318,30.272
		c-0.619,6.501,0.639,12.149,1.97,18.128c1.505,6.77,3.21,14.439,2.274,24.255C-1703.829-348.052-1708.517-338.475-1708.712-338.079
		z"/>
	<path clip-path="url(#SVGID_2_)" fill="#231F20" d="M-1242.915-580.891c-2.054,0.45-3.257,0.359-4.927,0.495
		c-31.681,0.271-94.973,3.014-121.228,18.861c-33.692,20.344-52.507,51.615-41.797,69.952c1.378,2.28,3.255,4.259,5.536,5.933
		c0.333,1.482,0.758,2.918,1.271,4.3c-0.402,1.181-0.408,2.197,0.066,3.009c0.263,0.438,0.688,1.133,2.021,1.47
		c0.026,0.046,0.049,0.095,0.075,0.142l0.226,0.381c0.176,0.293,0.376,0.572,0.562,0.857c0.084,0.156,0.152,0.32,0.242,0.475
		c0.553,0.914,1.215,1.761,1.975,2.541c6.911,8.237,18.363,13.412,32.215,14.395c16.65,1.186,35.234-3.846,51.941-13.937
		c27.609-16.665,63.588-71.407,79.393-95.901l0.008,0.012l17.573-10.262l9.952,3.453l126.877-74.082
		c7.753-4.526,10.498-14.261,5.971-22.013c-4.527-7.755-14.354-10.147-22.105-5.621l-126.877,74.082l-1.381,11.228l-17.573,10.261
		L-1242.915-580.891z M-1408.187-493.476c-8.469-14.504,5.907-44.189,40.81-65.257c15.41-9.304,44.745-13.915,72.414-16.171
		c-26.485,4.01-54.543,10.246-70.263,19.735c-29.08,17.556-42.543,44.192-40.865,64.462
		C-1406.886-491.568-1407.591-492.488-1408.187-493.476z M-1354.28-537.039c23.188-13.996,71.698-27.186,101.064-34.337
		c-26.968,11.756-71.417,31.785-94.808,45.904c-15.52,9.371-40.455,25.896-51.168,37.223
		C-1396.094-501.934-1380.562-521.172-1354.28-537.039z M-1399.312-479.756c-0.227-0.873-0.365-1.797-0.42-2.768
		c1.605,0.674,3.314,1.258,5.145,1.719C-1396.598-480.215-1398.185-479.867-1399.312-479.756z M-1397.625-485.195
		c6.874-7.303,23.838-20.902,51.293-37.477c25.828-15.59,77.634-38.494,102.688-49.291c-22.234,15.586-68.434,47.645-94.268,63.24
		c-22.139,13.365-39.399,21.604-50.295,25.739C-1391.688-483.38-1394.85-484.12-1397.625-485.195z M-1316.64-474.689
		c-16.138,9.742-33.823,14.482-49.803,13.348c-7.493-0.531-14.214-2.35-19.776-5.248c4.296,0.734,9.285,0.818,14.824,0.191
		c14.848-1.676,32.178-8.123,48.801-18.157c22.148-13.37,53.344-46.135,73.744-68.972
		C-1266.672-526.694-1294.888-487.821-1316.64-474.689z M-1324.286-487.353c-16.224,9.795-33.083,16.08-47.474,17.707
		c-11.57,1.305-20.391-0.548-24.836-5.191c-0.527-0.645-1.018-1.312-1.48-1.998c2.316-0.312,5.576-1.14,10.203-2.824
		c2.68,0.271,5.512,0.356,8.49,0.235c15.514-0.63,33.224-6.517,49.881-16.571c23.377-14.111,60.839-45.805,83.028-65.195
		C-1266.428-538.572-1300.962-501.431-1324.286-487.353z M-1331.191-498.797c-16.19,9.777-33.354,15.498-48.322,16.105
		c-0.273,0.012-0.538,0.01-0.809,0.018c12.412-5.317,28.009-13.535,44.101-23.249c25.097-15.149,69.302-45.754,92.286-61.845
		C-1265.078-549.148-1306.271-513.837-1331.191-498.797z M-1083.864-665.797c1.536,2.631,0.647,6.012-1.983,7.547
		c-2.63,1.535-6.013,0.65-7.549-1.98s-0.646-6.014,1.984-7.549C-1088.781-669.315-1085.4-668.427-1083.864-665.797z
		 M-1247.963-576.957c1.428-0.016,2.797-0.024,4.088-0.031c-26.982,6.239-85.242,20.938-112.096,37.148
		c-25.68,15.502-43.49,36.006-46.559,51.732c-3.322-19.316,9.566-46.496,38.993-64.264
		C-1338.248-567.637-1278.088-574.429-1247.963-576.957z"/>
</g>
<text transform="matrix(1 0 0 1 -1593.6133 -783.6846)"><tspan x="0" y="0" fill="#FFFFFF" font-family="'EuclidBPtestFont-Bold'" font-size="113.7852" letter-spacing="-1">Too </tspan><tspan x="-47.902" y="107.796" fill="#FFFFFF" font-family="'EuclidBPtestFont-Bold'" font-size="113.7852" letter-spacing="-1">Many </tspan><tspan x="-64.061" y="215.593" fill="#FFFFFF" font-family="'EuclidBPtestFont-Bold'" font-size="113.7852" letter-spacing="-1">Cooks</tspan></text>
<text transform="matrix(1 0 0 1 -1663.0977 -467)"><tspan x="0" y="0" fill="#FFFFFF" font-family="'EuclidBPtestFont-Bold'" font-size="40">A culinary journey </tspan><tspan x="41.699" y="46" fill="#FFFFFF" font-family="'EuclidBPtestFont-Bold'" font-size="40">from Method </tspan></text>
<text transform="matrix(1 0 0 1 -1910.8984 -702.4941)"><tspan x="0" y="0" fill="#FFFFFF" font-family="'EuclidBPtestFont-Bold'" font-size="40">Slot  </tspan><tspan x="-39.16" y="46" fill="#FFFFFF" font-family="'EuclidBPtestFont-Bold'" font-size="40">Machine</tspan></text>
<text transform="matrix(1 0 0 1 -1180.1992 -702.4941)"><tspan x="0" y="0" fill="#FFFFFF" font-family="'EuclidBPtestFont-Bold'" font-size="40">Recipe </tspan><tspan x="10.459" y="46" fill="#FFFFFF" font-family="'EuclidBPtestFont-Bold'" font-size="40">Index</tspan></text>
<g>
	<path fill="none" stroke="#FFFFFF" stroke-width="10" stroke-miterlimit="10" d="M-1869.641-784.697
		c-7.14-7.14-18.709-7-25.85,0.141l-33.075,33.075"/>
	<polygon fill="none" stroke="#FFFFFF" stroke-width="10" stroke-miterlimit="10" points="-1889.011,-751.523 -1929.609,-751.292 
		-1929.378,-791.891 	"/>
</g>
<g>
	<path fill="none" stroke="#FFFFFF" stroke-width="10" stroke-miterlimit="10" d="M-1127.609-784.697
		c7.14-7.14,18.709-7,25.85,0.141l33.075,33.075"/>
	<polygon fill="none" stroke="#FFFFFF" stroke-width="10" stroke-miterlimit="10" points="-1108.239,-751.523 -1067.641,-751.292 
		-1067.872,-791.891 	"/>
</g>
<g>
	<rect y="-1012" fill="#EFDC56" width="640" height="960"/>
	<g>
		<path fill="#FFFFFF" d="M471.546-439c-0.002,0-0.002,0-0.003,0c-70.713,0-112.686-16.801-192.582-16.801
			c-79.893,0-111.001,16.707-111.001,16.707l0.007-0.181L191.535-192H447.97L471.546-439z"/>
		<polygon fill="#EA6867" points="167.96,-439.124 191.535,-191.604 167.967,-439.127 		"/>
		<path fill="#EA6867" d="M128.128-615l45.856,481h291.541l45.853-481h-23.29c0,0-16.544,175.473-16.542,175.473L447.97-192H191.535
			L167.96-439.321c0,0,0.005,0.175,0.007,0.175L152.072-615H128.128z"/>
		<g>
			<g>
				<polygon fill="#EA6867" points="317.896,-466.983 317.897,-466.984 317.896,-466.984 				"/>
				<path fill="#EA6867" d="M279.637-360.197c-0.82-3.372-1.334-6.843-1.56-10.456c-0.397-6.314,0.103-13.093,1.43-20.13
					c0.993-5.273,2.445-10.676,4.257-16.041c2.713-8.052,6.231-16.013,10.02-23.34c3.784-7.33,7.83-14.027,11.513-19.625
					c3.712-5.646,7.054-10.174,9.364-13.164c1.155-1.496,2.053-2.605,2.608-3.281c0.278-0.339,0.472-0.527,0.569-0.643
					c0.033-0.04,0.047-0.026,0.059-0.026c0,0,0,0,0.001,0c13.895-16.052,11.989-40.534-4.126-54.515
					C297.629-535.425,273-533.849,259-517.535v-0.011c-1,0.86-8.607,10.155-18.554,25.267c-5.011,7.619-10.435,16.717-15.776,27.104
					c-4.004,7.792-7.865,16.291-11.356,25.446c-5.227,13.735-9.533,28.938-11.579,45.414c-1.019,8.235-1.443,16.782-1.072,25.562
					c0.369,8.778,1.555,17.788,3.76,26.85c5.051,20.769,25.986,33.509,46.754,28.457
					C271.944-318.497,284.688-339.429,279.637-360.197z"/>
			</g>
			<circle fill="#EA6867" cx="240.597" cy="-482.199" r="9.289"/>
			<circle fill="#EA6867" cx="271.891" cy="-360.402" r="9.288"/>
			<circle fill="#EA6867" cx="273.22" cy="-370.875" r="9.289"/>
			<circle fill="#EA6867" cx="286.897" cy="-424.416" r="9.29"/>
			<circle fill="#EA6867" cx="278.89" cy="-411.093" r="9.289"/>
			<circle fill="#EA6867" cx="216.44" cy="-423.613" r="9.29"/>
			<circle fill="#EA6867" cx="227.052" cy="-451.224" r="9.289"/>
			<circle fill="#EA6867" cx="212.15" cy="-341.621" r="9.29"/>
			<circle fill="#EA6867" cx="210.604" cy="-348.29" r="9.29"/>
			<circle fill="#EA6867" cx="313.013" cy="-471.163" r="9.289"/>
			<circle fill="#EA6867" cx="206.812" cy="-391.395" r="9.288"/>
			<circle fill="#EA6867" cx="249.857" cy="-494.868" r="9.29"/>
		</g>
		<g>
			<g>
				<polygon fill="#EA6867" points="367.005,-395.776 367.004,-395.775 367.006,-395.775 				"/>
				<path fill="#EA6867" d="M351.697-508.172c2.283,2.613,4.34,5.456,6.207,8.559c3.265,5.418,5.947,11.664,8.016,18.52
					c1.551,5.137,2.755,10.6,3.622,16.195c1.307,8.396,1.856,17.083,1.875,25.331c0.023,8.249-0.478,16.058-1.163,22.723
					c-0.689,6.722-1.565,12.28-2.236,15.999c-0.335,1.861-0.62,3.26-0.802,4.115c-0.09,0.429-0.175,0.686-0.208,0.832
					c-0.012,0.051-0.029,0.045-0.04,0.051c0,0,0,0-0.001,0c-4.924,20.651,8.182,41.432,28.929,46.403
					c20.783,4.981,42.032-7.841,46.929-28.772l0.006,0.01c0.49-1.225,2.83-12.917,4.686-30.912
					c0.931-9.072,1.485-19.613,1.435-31.295c-0.042-8.76-0.566-18.066-1.692-27.799c-1.698-14.598-4.904-30.066-10.688-45.628
					c-2.895-7.776-6.469-15.552-10.848-23.171c-4.376-7.619-9.589-15.064-15.725-22.088c-14.061-16.098-38.514-17.744-54.61-3.683
					C339.29-548.721,337.637-524.27,351.697-508.172z"/>
			</g>
			<circle fill="#EA6867" cx="442.609" cy="-417.93" r="9.289"/>
			<circle fill="#EA6867" cx="358.664" cy="-511.562" r="9.289"/>
			<circle fill="#EA6867" cx="362.316" cy="-501.658" r="9.289"/>
			<circle fill="#EA6867" cx="374.876" cy="-447.844" r="9.29"/>
			<circle fill="#EA6867" cx="375.835" cy="-463.358" r="9.289"/>
			<circle fill="#EA6867" cx="437.02" cy="-481.054" r="9.289"/>
			<circle fill="#EA6867" cx="440.34" cy="-451.661" r="9.289"/>
			<circle fill="#EA6867" cx="403.008" cy="-555.782" r="9.29"/>
			<circle fill="#EA6867" cx="407.456" cy="-550.579" r="9.29"/>
			<circle fill="#EA6867" cx="373.266" cy="-394.32" r="9.289"/>
			<circle fill="#EA6867" cx="430.702" cy="-514.081" r="9.288"/>
			<circle fill="#EA6867" cx="440.235" cy="-402.418" r="9.29"/>
		</g>
		<g>
			<g>
				<polygon fill="#EA6867" points="254.442,-299.372 254.441,-299.373 254.441,-299.371 				"/>
				<path fill="#EA6867" d="M366.838-314.68c-2.613,2.283-5.456,4.34-8.559,6.207c-5.418,3.265-11.664,5.947-18.52,8.016
					c-5.137,1.551-10.6,2.755-16.195,3.622c-8.396,1.307-17.083,1.856-25.331,1.875c-8.249,0.023-16.058-0.478-22.723-1.163
					c-6.722-0.689-12.28-1.565-15.999-2.236c-1.861-0.335-3.26-0.62-4.115-0.802c-0.429-0.09-0.686-0.175-0.832-0.208
					c-0.051-0.012-0.045-0.029-0.051-0.04c0,0,0,0,0-0.001c-20.651-4.924-41.432,8.182-46.403,28.929
					c-4.981,20.783,7.841,42.032,28.772,46.929l-0.01,0.006c1.225,0.49,12.917,2.83,30.912,4.686
					c9.072,0.931,19.613,1.485,31.295,1.435c8.76-0.042,18.066-0.566,27.799-1.692c14.598-1.698,30.066-4.904,45.628-10.688
					c7.776-2.895,15.552-6.469,23.171-10.848c7.619-4.376,15.064-9.589,22.088-15.725c16.098-14.061,17.744-38.514,3.683-54.61
					C407.387-327.087,382.936-328.74,366.838-314.68z"/>
			</g>
			<circle fill="#EA6867" cx="276.596" cy="-223.768" r="9.289"/>
			<circle fill="#EA6867" cx="370.229" cy="-307.713" r="9.289"/>
			<circle fill="#EA6867" cx="360.324" cy="-304.061" r="9.289"/>
			<circle fill="#EA6867" cx="306.51" cy="-291.501" r="9.29"/>
			<circle fill="#EA6867" cx="322.024" cy="-290.542" r="9.289"/>
			<circle fill="#EA6867" cx="339.72" cy="-229.357" r="9.289"/>
			<circle fill="#EA6867" cx="310.327" cy="-226.037" r="9.289"/>
			<circle fill="#EA6867" cx="414.448" cy="-263.369" r="9.29"/>
			<circle fill="#EA6867" cx="409.245" cy="-258.921" r="9.29"/>
			<circle fill="#EA6867" cx="252.986" cy="-293.111" r="9.289"/>
			<circle fill="#EA6867" cx="372.747" cy="-235.675" r="9.288"/>
			<circle fill="#EA6867" cx="261.084" cy="-226.142" r="9.29"/>
		</g>
	</g>
	<text transform="matrix(1 0 0 1 159.752 -936.0898)"><tspan x="0" y="0" fill="#274FA3" font-family="'EuclidBPtestFont-Bold'" font-size="28">Appetizers </tspan><tspan x="145.766" y="0" fill="#274FA3" font-family="'Eagle-Book'" font-size="28">&amp;</tspan><tspan x="164.582" y="0" fill="#274FA3" font-family="'EuclidBPtestFont-Bold'" font-size="28"> Beverages</tspan></text>
	<g>
		<text transform="matrix(1 0 0 1 177.4023 -458)"><tspan x="0" y="0" fill="#274FA3" font-family="'EuclidBPtestFont-Bold'" font-size="32">A New York classic. </tspan><tspan x="-40.926" y="42" fill="#274FA3" font-family="'EuclidBPtestFont-Bold'" font-size="32">Not for the faint hearted</tspan></text>
	</g>
	<rect x="47.752" y="-834" fill="none" width="534" height="181"/>
	<text transform="matrix(1 0 0 1 205.0898 -768.6807)"><tspan x="0" y="0" fill="#274FA3" font-family="'EuclidBPtestFont-Bold'" font-size="92">Spicy  </tspan><tspan x="-146.139" y="104" fill="#274FA3" font-family="'EuclidBPtestFont-Bold'" font-size="92">Pickle Backs</tspan></text>
	<rect x="308" y="-910" fill="#274FA3" width="23" height="6"/>
</g>
<rect fill="#83D3EA" width="640" height="960"/>
<text transform="matrix(1 0 0 1 159.752 75.9102)"><tspan x="0" y="0" fill="#274FA3" font-family="'EuclidBPtestFont-Bold'" font-size="28">Appetizers </tspan><tspan x="145.766" y="0" fill="#274FA3" font-family="'Eagle-Book'" font-size="28">&amp;</tspan><tspan x="164.582" y="0" fill="#274FA3" font-family="'EuclidBPtestFont-Bold'" font-size="28"> Beverages</tspan></text>
<g>
	<path fill="#83D3EA" d="M205.24,501h8.468c1.554,15,13.855,25.861,28.806,25.861c14.951,0,27.252-10.861,28.807-25.861h8.465
		c1.722,0,3.116-1.283,3.116-3c0-1.721-1.395-3-3.116-3h-8.465c-1.553-15-13.854-25.863-28.807-25.863
		c-14.95,0-27.252,10.863-28.806,25.863h-8.468c-1.72,0-3.112,1.279-3.112,3C202.128,499.717,203.521,501,205.24,501z
		 M242.514,478.511c10.837,0,19.617,8.782,19.617,19.617c0,10.839-8.78,19.619-19.617,19.619c-10.835,0-19.619-8.78-19.619-19.619
		C222.895,487.293,231.679,478.511,242.514,478.511z"/>
	<path fill="#FFFFFF" d="M242.514,517.747c10.837,0,19.617-8.78,19.617-19.619c0-10.835-8.78-19.617-19.617-19.617
		c-10.835,0-19.619,8.782-19.619,19.617C222.895,508.967,231.679,517.747,242.514,517.747z"/>
	<path fill="#83D3EA" d="M367.162,501h8.467c1.554,15,13.858,25.861,28.806,25.861c14.953,0,27.254-10.861,28.808-25.861h8.465
		c1.722,0,3.112-1.283,3.112-3c0-1.721-1.391-3-3.112-3h-8.465c-1.553-15-13.854-25.863-28.808-25.863
		c-14.948,0-27.252,10.863-28.806,25.863h-8.467c-1.719,0-3.113,1.279-3.113,3C364.049,499.717,365.443,501,367.162,501z
		 M404.435,478.511c10.837,0,19.618,8.782,19.618,19.617c0,10.839-8.781,19.619-19.618,19.619c-10.834,0-19.617-8.78-19.617-19.619
		C384.817,487.293,393.601,478.511,404.435,478.511z"/>
	<path fill="#FFFFFF" d="M404.435,517.747c10.837,0,19.618-8.78,19.618-19.619c0-10.835-8.781-19.617-19.618-19.617
		c-10.834,0-19.617,8.782-19.617,19.617C384.817,508.967,393.601,517.747,404.435,517.747z"/>
	<path fill="#83D3EA" d="M242,747.264c0,44.643,35.858,80.963,80.5,80.963c44.643,0,80.5-36.32,80.5-80.963V687H242V747.264z
		 M365,806.354c0,2.889-2.609,5.229-5.5,5.229c-2.886,0-5.5-2.341-5.5-5.229V798h11V806.354z M380,701.729
		c0-5.154,3.84-9.344,9.002-9.344c5.156,0,8.998,4.189,8.998,9.344V717h-18V701.729z M353,701.729c0-0.945,0-1.857,0-2.718v-6.587
		c2,0,6.238-0.085,8.645,0.015c0.324-0.034,1.004-0.054,1.338-0.054c1.032,0,1.785,0.173,2.713,0.482
		c3.998,0.82,6.305,2.994,6.305,8.638v31.246c0,10.174-8,28.802-19,28.802V717.27l0,0V701.729z M350,806.935
		c0,2.565-1.6,4.648-4.201,4.648l-0.249-0.003c-0.007,0,0.116,0.003,0.11,0.003c-0.007,0-0.23-0.003-0.236-0.003L340,811.562v-5.153
		c0-0.02,0-0.038,0-0.056v-8.473l0,0v-25.016c5,0,10,10.428,10,16.123V806.935z M326,701.729c0-5.154,4.339-9.344,9.498-9.344
		c5.16,0,9.502,4.189,9.502,9.344V717h-19V701.729z M324,798h11v8.354c0,2.889-2.612,5.229-5.501,5.229
		c-2.892,0-5.499-2.341-5.499-5.229V798z M290,806.354c0,2.889-2.111,5.229-5,5.229s-5-2.341-5-5.229V798h10V806.354z M320,806.354
		c0,2.889-2.111,5.229-5.001,5.229c-2.886,0-4.999-2.341-4.999-5.229V798h10V806.354z M299,701.729c0-5.154,4.84-9.344,10.001-9.344
		c5.158,0,9.999,4.189,9.999,9.344V717h-20V701.729z M295,788.988c0-5.695,4-16.123,10-16.123v25.016l0,0v8.473
		c0,0.504,0,0.982,0,1.443v3.766c-1,0-2.645,0.05-4.034-0.019c-0.131,0.009,0.037,0.039-0.096,0.039
		c-0.511,0-1.275-0.098-1.742-0.233c-2.345-0.429-4.128-1.623-4.128-4.871V788.988z M273,700.691c0-4.583,4.401-8.307,9.05-8.307
		l1.187,0.004c0.022,0,0.201-0.004,0.223-0.004c0.026,0-0.34,0.004-0.313,0.005l8.854,0.034v8.904c0,0.134,0,0.266,0,0.4v15.541l0,0
		v44.283c-10,0-19-18.628-19-28.802V700.691z M255.499,692.385c5.159,0,9.501,4.189,9.501,9.344V717h-19v-15.271
		C246,696.574,250.342,692.385,255.499,692.385z"/>
	<path fill="#FFFFFF" d="M353,761.553c11,0,19-18.628,19-28.802v-31.246c0-5.644-2.132-7.817-6.13-8.638
		c-0.929-0.31-1.712-0.482-2.743-0.482c-0.334,0-1.261,0.02-1.586,0.054c-2.405-0.1-6.541-0.015-8.541-0.015v6.587
		c0,0.86,0,1.772,0,2.718v15.541l0,0V761.553z"/>
	<path fill="#FFFFFF" d="M265,717v-15.271c0-5.154-4.342-9.344-9.501-9.344c-5.157,0-9.499,4.189-9.499,9.344V717H265z"/>
	<path fill="#FFFFFF" d="M319,701.729c0-5.154-4.841-9.344-9.999-9.344c-5.161,0-10.001,4.189-10.001,9.344V717h20V701.729z"/>
	<path fill="#FFFFFF" d="M345,701.729c0-5.154-4.342-9.344-9.502-9.344c-5.159,0-9.498,4.189-9.498,9.344V717h19V701.729z"/>
	<path fill="#FFFFFF" d="M398,701.729c0-5.154-3.842-9.344-8.998-9.344c-5.162,0-9.002,4.189-9.002,9.344V717h18V701.729z"/>
	<path fill="#FFFFFF" d="M292,761.553V717.27l0,0v-15.541c0-0.135,0-0.267,0-0.4v-8.904l-8.776-0.034
		c-0.024-0.001,0.185-0.005,0.158-0.005c-0.022,0,0.073,0.004,0.051,0.004l-1.441-0.004c-4.649,0-8.991,3.724-8.991,8.307v32.06
		C273,742.925,282,761.553,292,761.553z"/>
	<path fill="#FFFFFF" d="M299.273,811.35c0.467,0.136,1.164,0.233,1.675,0.233c0.133,0-0.22-0.03-0.089-0.039
		c1.391,0.068,3.141,0.019,4.141,0.019v-3.766c0-0.461,0-0.939,0-1.443v-8.473l0,0v-25.016c-6,0-10,10.428-10,16.123v17.49
		C295,809.727,296.929,810.921,299.273,811.35z"/>
	<path fill="#FFFFFF" d="M354,806.354c0,2.889,2.614,5.229,5.5,5.229c2.891,0,5.5-2.341,5.5-5.229V798h-11V806.354z"/>
	<path fill="#FFFFFF" d="M329.499,811.583c2.889,0,5.501-2.341,5.501-5.229V798h-11v8.354
		C324,809.242,326.607,811.583,329.499,811.583z"/>
	<path fill="#FFFFFF" d="M310,806.354c0,2.889,2.113,5.229,4.999,5.229c2.89,0,5.001-2.341,5.001-5.229V798h-10V806.354z"/>
	<path fill="#FFFFFF" d="M280,806.354c0,2.889,2.111,5.229,5,5.229s5-2.341,5-5.229V798h-10V806.354z"/>
	<path fill="#FFFFFF" d="M340,772.865v25.016l0,0v8.473c0,0.018,0,0.036,0,0.056v5.153l5.487,0.018c0.007,0,0.153,0.003,0.16,0.003
		s0.083-0.003,0.089-0.003l0.027,0.003c2.602,0,4.236-2.083,4.236-4.648v-17.946C350,783.293,345,772.865,340,772.865z"/>
	<path fill="#83D3EA" d="M282.424,604c-7.075,0-12.812,6.426-12.812,13.5c0,7.075,5.736,13.5,12.812,13.5h19.213H313v-13.483
		c0-7.073-4.285-13.517-11.363-13.517H282.424z"/>
	<path fill="#83D3EA" d="M358.613,631c7.074,0,12.811-6.425,12.811-13.5c0-7.074-5.736-13.5-12.811-13.5H339.4
		c-7.078,0-13.4,6.443-13.4,13.517V631h13.4H358.613z"/>
	<path fill="#FFFFFF" d="M203.061,604.706c1.334,0,2.413-1.083,2.413-2.416c0-1.336-1.079-2.418-2.413-2.418
		c-1.335,0-2.42,1.082-2.42,2.418C200.641,603.623,201.726,604.706,203.061,604.706z"/>
	<path fill="#FFFFFF" d="M180.223,615.621c-1.336,0-2.416,1.081-2.416,2.413c0,1.338,1.08,2.421,2.416,2.421
		c1.338,0,2.417-1.083,2.417-2.421C182.64,616.702,181.561,615.621,180.223,615.621z"/>
	<path fill="#FFFFFF" d="M202.363,634.476c-1.332,0-2.414,1.082-2.414,2.42c0,1.334,1.082,2.418,2.414,2.418
		c1.34,0,2.421-1.084,2.421-2.418C204.784,635.558,203.703,634.476,202.363,634.476z"/>
	<circle fill="#FFFFFF" cx="443.891" cy="602.289" r="2.417"/>
	<path fill="#FFFFFF" d="M466.724,615.621c-1.333,0-2.418,1.081-2.418,2.413c0,1.338,1.085,2.421,2.418,2.421
		c1.336,0,2.422-1.083,2.422-2.421C469.146,616.702,468.06,615.621,466.724,615.621z"/>
	<circle fill="#FFFFFF" cx="444.581" cy="636.895" r="2.419"/>
	<path fill="#FFFFFF" d="M564.002,404h-30.505h-30.496h-74.129H212.166h-74.129H107.54H77.036H46v30.15
		C46,450.871,60.318,464,77.036,464H107v34.128c0,33.893,16.389,64.015,41.375,83.136c-2.238,4.371-3.812,9.057-4.91,13.973
		l-46.357-11.854c-1.664-0.423-3.325,0.578-3.752,2.246c-0.427,1.664,0.599,3.361,2.264,3.785l46.352,11.985
		c-0.253,2.226-0.971,4.481-0.971,6.774V614H95.455c-1.719,0-3.114,2.277-3.114,4c0,1.721,1.396,4,3.114,4H141v5.895
		c0,2.419,0.744,4.8,1.025,7.143l-46.68,11.993c-1.665,0.428-2.528,2.12-2.102,3.788c0.36,1.408,1.698,2.346,3.086,2.346
		c0.254,0,0.551-0.032,0.809-0.097l46.525-11.91C149.697,667.43,173.225,687,201.326,687H211v60.264
		c0,61.908,49.589,112.098,111.5,112.098c61.91,0,111.5-50.189,111.5-112.098V687h5.712c28.101,0,51.609-19.57,57.644-45.843
		l46.508,11.888c0.259,0.072,0.518,0.11,0.77,0.11c1.39,0,2.656-0.932,3.018-2.341c0.425-1.668-0.585-3.357-2.249-3.785
		l-47.409-11.994c0.283-2.342,0.008-4.722,0.008-7.141V622h47.583c1.719,0,3.114-2.283,3.114-4.002c0-1.721-1.396-3.998-3.114-3.998
		H498v-5.826c0-2.293,0.293-4.549,0.039-6.773l47.145-11.986c1.664-0.424,2.782-2.121,2.358-3.785
		c-0.43-1.668-2.071-2.673-3.731-2.246l-46.4,11.854c-1.098-4.916-3.543-9.602-5.78-13.973C516.615,562.143,532,524.893,532,491v-27
		h32.002C580.721,464,593,450.871,593,434.15V404H564.002z M313,617.517V631h-11.363h-19.213c-7.075,0-12.812-6.425-12.812-13.5
		c0-7.074,5.736-13.5,12.812-13.5h19.213C308.715,604,313,610.443,313,617.517z M326,617.517c0-7.073,6.322-13.517,13.4-13.517
		h19.213c7.074,0,12.811,6.426,12.811,13.5c0,7.075-5.736,13.5-12.811,13.5H339.4H326V617.517z M367.162,495h8.467
		c1.554-15,13.857-25.863,28.806-25.863c14.953,0,27.255,10.863,28.808,25.863h8.465c1.722,0,3.112,1.279,3.112,3
		c0,1.717-1.391,3-3.112,3h-8.465c-1.554,15-13.854,25.861-28.808,25.861c-14.947,0-27.252-10.861-28.806-25.861h-8.467
		c-1.719,0-3.113-1.283-3.113-3C364.049,496.279,365.443,495,367.162,495z M205.24,495h8.468c1.554-15,13.855-25.863,28.806-25.863
		c14.952,0,27.254,10.863,28.807,25.863h8.465c1.722,0,3.116,1.279,3.116,3c0,1.717-1.395,3-3.116,3h-8.465
		c-1.555,15-13.855,25.861-28.807,25.861c-14.95,0-27.252-10.861-28.806-25.861h-8.468c-1.72,0-3.112-1.283-3.112-3
		C202.128,496.279,203.521,495,205.24,495z M403,747.264c0,44.643-35.857,80.963-80.5,80.963c-44.642,0-80.5-36.32-80.5-80.963V687
		h161V747.264z"/>
</g>
<g>
	<text transform="matrix(1 0 0 1 169.5625 554)"><tspan x="0" y="0" fill="#274FA3" font-family="'EuclidBPtestFont-Bold'" font-size="32">Like a White Russian</tspan><tspan x="41.439" y="42" fill="#274FA3" font-family="'EuclidBPtestFont-Bold'" font-size="32">only less classy</tspan></text>
</g>
<rect x="53" y="230" fill="none" width="534" height="129"/>
<text transform="matrix(1 0 0 1 55.0449 295.3193)" fill="#274FA3" font-family="'EuclidBPtestFont-Bold'" font-size="92">Panther Milk</text>
<rect x="308" y="102" fill="#274FA3" width="23" height="6"/>
<g>
	<rect x="765" y="-1012" fill="#274FA3" width="640" height="678"/>
</g>
<rect x="1527" y="-1012" fill="#001623" width="640" height="3713"/>
<text transform="matrix(1 0 0 1 1674.4023 -921)" fill="#FFFFFF" font-family="'EuclidBPtestFont-Bold'" font-size="44">Preparing the jar</text>
<rect x="1556.999" y="-823" fill="none" width="574" height="3417"/>
<text transform="matrix(1 0 0 1 1556.999 -797.4404)"><tspan x="0" y="0" fill="#FFFFFF" font-family="'EuclidBPtestFont-Bold'" font-size="36">Boil your mason jars in water for </tspan><tspan x="0" y="52" fill="#FAD668" font-family="'Eagle-Book'" font-size="36">10</tspan><tspan x="35.999" y="52" fill="#FAD668" font-family="'EuclidBPtestFont-Bold'" font-size="36"> minutes</tspan><tspan x="178.521" y="52" fill="#FFFFFF" font-family="'EuclidBPtestFont-Bold'" font-size="36"> - if you have canning </tspan><tspan x="0" y="104" fill="#FFFFFF" font-family="'EuclidBPtestFont-Bold'" font-size="36">supplies, use these, otherwise, just </tspan><tspan x="0" y="156" fill="#FFFFFF" font-family="'EuclidBPtestFont-Bold'" font-size="36">boil the tips of the tongs you&apos;ll fish </tspan><tspan x="0" y="208" fill="#FFFFFF" font-family="'EuclidBPtestFont-Bold'" font-size="36">these out with and have a clean </tspan><tspan x="0" y="260" fill="#FFFFFF" font-family="'EuclidBPtestFont-Bold'" font-size="36">prep station ready. This will </tspan><tspan x="0" y="312" fill="#FFFFFF" font-family="'EuclidBPtestFont-Bold'" font-size="36">sterilize your equipment and give </tspan><tspan x="0" y="364" fill="#FFFFFF" font-family="'EuclidBPtestFont-Bold'" font-size="36">your pickles longer shelf life.</tspan><tspan x="89.993" y="468" fill="#FFFFFF" font-family="'EuclidBPtestFont-Bold'" font-size="44">Preparing the brine</tspan><tspan x="0" y="572" fill="#FFFFFF" font-family="'EuclidBPtestFont-Bold'" font-size="36">Bring the </tspan><tspan x="160.917" y="572" fill="#EFDC56" font-family="'EuclidBPtestFont-Bold'" font-size="36">water</tspan><tspan x="257.611" y="572" fill="#FFFFFF" font-family="'EuclidBPtestFont-Bold'" font-size="36"> to a boil with the </tspan><tspan x="0" y="624" fill="#EFDC56" font-family="'EuclidBPtestFont-Bold'" font-size="36">vinegar</tspan><tspan x="127.654" y="624" fill="#FFFFFF" font-family="'EuclidBPtestFont-Bold'" font-size="36"> and </tspan><tspan x="207.753" y="624" fill="#EFDC56" font-family="'EuclidBPtestFont-Bold'" font-size="36">salt</tspan><tspan x="268.628" y="624" fill="#FFFFFF" font-family="'EuclidBPtestFont-Bold'" font-size="36">. Once the salt </tspan><tspan x="0" y="676" fill="#FFFFFF" font-family="'EuclidBPtestFont-Bold'" font-size="36">has dissolved, wait for the brine to </tspan><tspan x="0" y="728" fill="#FFFFFF" font-family="'EuclidBPtestFont-Bold'" font-size="36">cool down so that it is warm </tspan><tspan x="0" y="780" fill="#FFFFFF" font-family="'EuclidBPtestFont-Bold'" font-size="36">enough to handle. Pour the brine </tspan><tspan x="0" y="832" fill="#FFFFFF" font-family="'EuclidBPtestFont-Bold'" font-size="36">into the sterilized mason jar.</tspan><tspan x="0" y="936" fill="#FFFFFF" font-family="'EuclidBPtestFont-Bold'" font-size="36">While the brine is cooling, slice the </tspan><tspan x="0" y="988" fill="#EFDC56" font-family="'EuclidBPtestFont-Bold'" font-size="36">chilli peppers</tspan><tspan x="220.46" y="988" fill="#FFFFFF" font-family="'EuclidBPtestFont-Bold'" font-size="36"> into thin rings </tspan><tspan x="0" y="1040" fill="#FFFFFF" font-family="'Eagle-Book'" font-size="36">(</tspan><tspan x="12.491" y="1040" fill="#FFFFFF" font-family="'EuclidBPtestFont-Bold'" font-size="36">careful with your hands - either </tspan><tspan x="0" y="1092" fill="#FFFFFF" font-family="'EuclidBPtestFont-Bold'" font-size="36">wear gloves or rinse your hands </tspan><tspan x="0" y="1144" fill="#FFFFFF" font-family="'EuclidBPtestFont-Bold'" font-size="36">with </tspan><tspan x="80.241" y="1144" fill="#EFDC56" font-family="'EuclidBPtestFont-Bold'" font-size="36">lemon juice</tspan><tspan x="272.19" y="1144" fill="#FFFFFF" font-family="'EuclidBPtestFont-Bold'" font-size="36"> if you do touch </tspan><tspan x="0" y="1196" fill="#FFFFFF" font-family="'EuclidBPtestFont-Bold'" font-size="36">the membrane</tspan><tspan x="246.957" y="1196" fill="#FFFFFF" font-family="'Eagle-Book'" font-size="36">!)</tspan><tspan x="271.544" y="1196" fill="#FFFFFF" font-family="'EuclidBPtestFont-Bold'" font-size="36">.</tspan><tspan x="0" y="1248" fill="#FFFFFF" font-family="'EuclidBPtestFont-Bold'" font-size="36">Press the whole </tspan><tspan x="262.759" y="1248" fill="#EFDC56" font-family="'EuclidBPtestFont-Bold'" font-size="36">garlic</tspan><tspan x="357.474" y="1248" fill="#FFFFFF" font-family="'EuclidBPtestFont-Bold'" font-size="36"> cloves with </tspan><tspan x="0" y="1300" fill="#FFFFFF" font-family="'EuclidBPtestFont-Bold'" font-size="36">the flat blade of the knife, not </tspan><tspan x="0" y="1352" fill="#FFFFFF" font-family="'EuclidBPtestFont-Bold'" font-size="36">enough to crack it, but enough to </tspan><tspan x="0" y="1404" fill="#FFFFFF" font-family="'EuclidBPtestFont-Bold'" font-size="36">smell the garlic.</tspan><tspan x="0" y="1456" fill="#FFFFFF" font-family="'EuclidBPtestFont-Bold'" font-size="36">Add the sliced </tspan><tspan x="242.059" y="1456" fill="#EFDC56" font-family="'EuclidBPtestFont-Bold'" font-size="36">peppers</tspan><tspan x="375.438" y="1456" fill="#FFFFFF" font-family="'EuclidBPtestFont-Bold'" font-size="36">, </tspan><tspan x="394.444" y="1456" fill="#EFDC56" font-family="'EuclidBPtestFont-Bold'" font-size="36">garlic </tspan><tspan x="0" y="1508" fill="#EFDC56" font-family="'EuclidBPtestFont-Bold'" font-size="36">cloves</tspan><tspan x="104.29" y="1508" fill="#FFFFFF" font-family="'EuclidBPtestFont-Bold'" font-size="36">, and the </tspan><tspan x="259.806" y="1508" fill="#EFDC56" font-family="'EuclidBPtestFont-Bold'" font-size="36">peppercorns</tspan><tspan x="468.46" y="1508" fill="#FFFFFF" font-family="'EuclidBPtestFont-Bold'" font-size="36"> into </tspan><tspan x="0" y="1560" fill="#FFFFFF" font-family="'EuclidBPtestFont-Bold'" font-size="36">the jar. Seal, and wait for it to </tspan><tspan x="0" y="1612" fill="#FFFFFF" font-family="'EuclidBPtestFont-Bold'" font-size="36">reach room temperature.</tspan><tspan x="84.669" y="1716" fill="#FFFFFF" font-family="'EuclidBPtestFont-Bold'" font-size="44">Preparing the cukes</tspan><tspan x="0" y="1820" fill="#FFFFFF" font-family="'EuclidBPtestFont-Bold'" font-size="36">The key to a crispy pickle is how </tspan><tspan x="0" y="1872" fill="#FFFFFF" font-family="'EuclidBPtestFont-Bold'" font-size="36">the cucumber is prepared. The </tspan><tspan x="0" y="1924" fill="#FFFFFF" font-family="'EuclidBPtestFont-Bold'" font-size="36">end where the stem is should be </tspan><tspan x="0" y="1976" fill="#FFFFFF" font-family="'EuclidBPtestFont-Bold'" font-size="36">cut off, as leaving these on will </tspan><tspan x="0" y="2028" fill="#FFFFFF" font-family="'EuclidBPtestFont-Bold'" font-size="36">lead to a softer pickle.</tspan><tspan x="0" y="2132" fill="#FFFFFF" font-family="'EuclidBPtestFont-Bold'" font-size="36">The more times you cut a </tspan><tspan x="0" y="2184" fill="#FFFFFF" font-family="'EuclidBPtestFont-Bold'" font-size="36">cucumber prior to pickling, the </tspan><tspan x="0" y="2236" fill="#FFFFFF" font-family="'EuclidBPtestFont-Bold'" font-size="36">less crispy it will be. I pickle my </tspan><tspan x="0" y="2288" fill="#FFFFFF" font-family="'EuclidBPtestFont-Bold'" font-size="36">cukes whole and slice them after </tspan><tspan x="0" y="2340" fill="#FFFFFF" font-family="'EuclidBPtestFont-Bold'" font-size="36">they&apos;ve been pickled.</tspan><tspan x="207.142" y="2444" fill="#FFFFFF" font-family="'EuclidBPtestFont-Bold'" font-size="44">Pickling</tspan><tspan x="0" y="2548" fill="#FFFFFF" font-family="'EuclidBPtestFont-Bold'" font-size="36">Once the brine is room </tspan><tspan x="0" y="2600" fill="#FFFFFF" font-family="'EuclidBPtestFont-Bold'" font-size="36">temperature, add the </tspan><tspan x="369.858" y="2600" fill="#EFDC56" font-family="'EuclidBPtestFont-Bold'" font-size="36">cukes</tspan><tspan x="465.364" y="2600" fill="#FFFFFF" font-family="'EuclidBPtestFont-Bold'" font-size="36">. Pour </tspan><tspan x="0" y="2652" fill="#FFFFFF" font-family="'EuclidBPtestFont-Bold'" font-size="36">out any brine as needed to ensure </tspan><tspan x="0" y="2704" fill="#FFFFFF" font-family="'EuclidBPtestFont-Bold'" font-size="36">they all fit. Store in the </tspan><tspan x="0" y="2756" fill="#FFFFFF" font-family="'EuclidBPtestFont-Bold'" font-size="36">refrigerator for at least </tspan><tspan x="394.336" y="2756" fill="#FFFFFF" font-family="'Eagle-Book'" font-size="36">24</tspan><tspan x="437.428" y="2756" fill="#FFFFFF" font-family="'EuclidBPtestFont-Bold'" font-size="36"> hours.</tspan><tspan x="0" y="2808" fill="#FFFFFF" font-family="'EuclidBPtestFont-Bold'" font-size="36"> </tspan><tspan x="108.319" y="2860" fill="#FFFFFF" font-family="'EuclidBPtestFont-Bold'" font-size="44">Choose a whiskey</tspan><tspan x="0" y="2964" fill="#FFFFFF" font-family="'EuclidBPtestFont-Bold'" font-size="36">Select a whiskey of your choice. </tspan><tspan x="0" y="3016" fill="#FFFFFF" font-family="'EuclidBPtestFont-Bold'" font-size="36">We personally like Bulleit.</tspan><tspan x="178.015" y="3120" fill="#FFFFFF" font-family="'EuclidBPtestFont-Bold'" font-size="44">Shoot &apos;em</tspan><tspan x="381.202" y="3120" fill="#FFFFFF" font-family="'Eagle-Book'" font-size="44">!</tspan><tspan x="0" y="3224" fill="#FFFFFF" font-family="'EuclidBPtestFont-Bold'" font-size="36">Pour a shot of </tspan><tspan x="235.649" y="3224" fill="#EFDC56" font-family="'EuclidBPtestFont-Bold'" font-size="36">whiskey</tspan><tspan x="367.012" y="3224" fill="#FFFFFF" font-family="'EuclidBPtestFont-Bold'" font-size="36">, and a shot </tspan><tspan x="0" y="3276" fill="#FFFFFF" font-family="'EuclidBPtestFont-Bold'" font-size="36">of </tspan><tspan x="41.831" y="3276" fill="#EFDC56" font-family="'EuclidBPtestFont-Bold'" font-size="36">pickle juice</tspan><tspan x="229.458" y="3276" fill="#FFFFFF" font-family="'EuclidBPtestFont-Bold'" font-size="36">. Take the whiskey </tspan><tspan x="0" y="3328" fill="#FFFFFF" font-family="'EuclidBPtestFont-Bold'" font-size="36">first, and chase it with the pickle </tspan><tspan x="0" y="3380" fill="#FFFFFF" font-family="'EuclidBPtestFont-Bold'" font-size="36">juice.</tspan></text>
<rect x="1650" y="-307" fill="#FFFFFF" width="390" height="5"/>
<rect x="1676" y="-901" fill="#FFFFFF" width="341" height="5"/>
<rect x="1642" y="940" fill="#FFFFFF" width="409" height="5"/>
<rect x="1766" y="1667" fill="#FFFFFF" width="161" height="5"/>
<rect x="1668" y="2083" fill="#FFFFFF" width="357" height="5"/>
<rect x="1736" y="2343" fill="#FFFFFF" width="221" height="5"/>
<g>
	<g>
		<g>
			<path fill="#F04E55" d="M2349-930.929v525.769l20.662-13.404l20.564,13.332l20.522-13.332l20.504,13.332l20.491-13.332
				l20.485,13.332l20.484-13.332l20.482,13.332l20.48-13.332l20.483,13.332l20.479-13.332l20.481,13.332l20.479-13.332
				l20.482,13.615L2656.562-418h0.09l20.481,13.051l20.48-13.473l20.48,13.26l20.48-13.367l20.481,13.314l20.48-13.341
				l20.481,13.329l20.603-13.335L2841-405.16V-931L2349-930.929z"/>
		</g>
	</g>
	<text transform="matrix(1 0 0 1 2510.2822 -860.7598)"><tspan x="0" y="0" fill="#FFFFFF" font-family="'Eagle-Book'" font-size="28">4</tspan><tspan x="17.164" y="0" fill="#FFFFFF" font-family="'EuclidBPtestFont-Bold'" font-size="28"> cups water  </tspan><tspan x="-38.177" y="46" fill="#FFFFFF" font-family="'Eagle-Book'" font-size="28">1</tspan><tspan x="-28.993" y="46" fill="#FFFFFF" font-family="'EuclidBPtestFont-Bold'" font-size="28"> cup white vinegar</tspan><tspan x="-41.578" y="92" fill="#FFFFFF" font-family="'Eagle-Book'" font-size="28">1/3</tspan><tspan x="-4.451" y="92" fill="#FFFFFF" font-family="'EuclidBPtestFont-Bold'" font-size="28"> cup pickling salt</tspan><tspan x="-7.041" y="138" fill="#FFFFFF" font-family="'Eagle-Book'" font-size="28">6</tspan><tspan x="10.375" y="138" fill="#FFFFFF" font-family="'EuclidBPtestFont-Bold'" font-size="28"> cloves garlic</tspan><tspan x="-32.689" y="184" fill="#FFFFFF" font-family="'Eagle-Book'" font-size="28">2</tspan><tspan x="-16.338" y="184" fill="#FFFFFF" font-family="'EuclidBPtestFont-Bold'" font-size="28"> red chili peppers</tspan><tspan x="-79.434" y="230" fill="#FFFFFF" font-family="'Eagle-Book'" font-size="28">1</tspan><tspan x="-70.25" y="230" fill="#FFFFFF" font-family="'EuclidBPtestFont-Bold'" font-size="28"> small palm-full of whole  </tspan><tspan x="4.074" y="266" fill="#FFFFFF" font-family="'EuclidBPtestFont-Bold'" font-size="28">peppercorns</tspan><tspan x="-21.209" y="312" fill="#FFFFFF" font-family="'Eagle-Book'" font-size="28">6</tspan><tspan x="-3.793" y="312" fill="#FFFFFF" font-family="'EuclidBPtestFont-Bold'" font-size="28"> pickling cukes  </tspan><tspan x="-119.641" y="348" fill="#FFFFFF" font-family="'Eagle-Book'" font-size="28">(</tspan><tspan x="-109.925" y="348" fill="#FFFFFF" font-family="'EuclidBPtestFont-Bold'" font-size="28">or whatever you wish to pickle</tspan><tspan x="280.358" y="348" fill="#FFFFFF" font-family="'Eagle-Book'" font-size="28">) </tspan><tspan x="-27.033" y="394" fill="#FFFFFF" font-family="'Eagle-Book'" font-size="28">1</tspan><tspan x="-17.85" y="394" fill="#FFFFFF" font-family="'EuclidBPtestFont-Bold'" font-size="28">-</tspan><tspan x="-7.489" y="394" fill="#FFFFFF" font-family="'Eagle-Book'" font-size="28">64</tspan><tspan x="27.09" y="394" fill="#FFFFFF" font-family="'EuclidBPtestFont-Bold'" font-size="28"> oz mason jar</tspan></text>
</g>
<g>
	<g>
		<circle fill="#001623" cx="2840.999" cy="-931" r="36.334"/>
		<path fill="#FFFFFF" d="M2840.999-890.666c-22.24,0-40.334-18.094-40.334-40.334s18.094-40.334,40.334-40.334
			s40.334,18.094,40.334,40.334S2863.239-890.666,2840.999-890.666z M2840.999-963.334c-17.829,0-32.334,14.505-32.334,32.334
			s14.505,32.334,32.334,32.334s32.334-14.505,32.334-32.334S2858.828-963.334,2840.999-963.334z"/>
	</g>
	<g>
		
			<line fill="none" stroke="#FFFFFF" stroke-width="8" stroke-miterlimit="10" x1="2825.396" y1="-946.188" x2="2856.31" y2="-915.273"/>
		
			<line fill="none" stroke="#FFFFFF" stroke-width="8" stroke-miterlimit="10" x1="2825.396" y1="-914.812" x2="2856.31" y2="-945.727"/>
	</g>
</g>
<g>
	<rect x="795" y="-334" fill="#274FA3" width="83" height="88"/>
	<polygon fill="#274FA3" points="795,-205 795,-246 836.623,-246 	"/>
	<polygon fill="#274FA3" points="836.623,-246 878,-246 878,-205 	"/>
</g>
<rect x="805" y="48" fill="none" width="557" height="855"/>
<text transform="matrix(1 0 0 1 805 70.7197)"><tspan x="0" y="0" fill="#FFFFFF" font-family="'EuclidBPtestFont-Bold'" font-size="32">Since a pickle back really only </tspan><tspan x="0" y="44" fill="#FFFFFF" font-family="'EuclidBPtestFont-Bold'" font-size="32">consists of </tspan><tspan x="158.332" y="44" fill="#FFFFFF" font-family="'Eagle-Book'" font-size="32">2</tspan><tspan x="176.859" y="44" fill="#FFFFFF" font-family="'EuclidBPtestFont-Bold'" font-size="32"> ingredients </tspan><tspan x="356.727" y="44" fill="#FFFFFF" font-family="'Eagle-Book'" font-size="32">(</tspan><tspan x="367.67" y="44" fill="#FFFFFF" font-family="'EuclidBPtestFont-Bold'" font-size="32">whiskey, </tspan><tspan x="0" y="88" fill="#FFFFFF" font-family="'EuclidBPtestFont-Bold'" font-size="32">pickle juice</tspan><tspan x="164.859" y="88" fill="#FFFFFF" font-family="'Eagle-Book'" font-size="32">)</tspan><tspan x="175.803" y="88" fill="#FFFFFF" font-family="'EuclidBPtestFont-Bold'" font-size="32">, those </tspan><tspan x="280.438" y="88" fill="#FFFFFF" font-family="'Eagle-Book'" font-size="32">2</tspan><tspan x="298.967" y="88" fill="#FFFFFF" font-family="'EuclidBPtestFont-Bold'" font-size="32"> ingredients </tspan><tspan x="0" y="132" fill="#FFFFFF" font-family="'EuclidBPtestFont-Bold'" font-size="32">make the drink.</tspan><tspan x="0" y="198" fill="#FFFFFF" font-family="'EuclidBPtestFont-Bold'" font-size="32">We&apos;re not going to teach you how to </tspan><tspan x="0" y="242" fill="#FFFFFF" font-family="'EuclidBPtestFont-Bold'" font-size="32">distill your own whiskey, but we can </tspan><tspan x="0" y="286" fill="#FFFFFF" font-family="'EuclidBPtestFont-Bold'" font-size="32">make sure the pickle juice you&apos;re </tspan><tspan x="0" y="330" fill="#FFFFFF" font-family="'EuclidBPtestFont-Bold'" font-size="32">drinking really finishes off your </tspan><tspan x="0" y="374" fill="#FFFFFF" font-family="'EuclidBPtestFont-Bold'" font-size="32">whiskey the right way</tspan><tspan x="315.735" y="374" fill="#FFFFFF" font-family="'Eagle-Book'" font-size="32">!</tspan><tspan x="0" y="440" fill="#FFFFFF" font-family="'EuclidBPtestFont-Bold'" font-size="32">Since I&apos;m often just finding out we </tspan><tspan x="0" y="484" fill="#FFFFFF" font-family="'EuclidBPtestFont-Bold'" font-size="32">need pickle juice last minute, this </tspan><tspan x="0" y="528" fill="#FFFFFF" font-family="'EuclidBPtestFont-Bold'" font-size="32">recipe makes great pickles in just </tspan><tspan x="491.094" y="528" fill="#FFFFFF" font-family="'Eagle-Book'" font-size="32">24</tspan><tspan x="529.076" y="528" fill="#FFFFFF" font-family="'EuclidBPtestFont-Bold'" font-size="32"> </tspan><tspan x="0" y="572" fill="#FFFFFF" font-family="'EuclidBPtestFont-Bold'" font-size="32">hours. This recipe is for a spicy pickle </tspan><tspan x="0" y="616" fill="#FFFFFF" font-family="'EuclidBPtestFont-Bold'" font-size="32">juice, to add an extra kick</tspan><tspan x="379.988" y="616" fill="#FFFFFF" font-family="'Eagle-Book'" font-size="32">!</tspan></text>
<rect x="-807" y="-1014" fill="#231F20" width="640" height="962"/>
<text transform="matrix(1 0 0 1 -642 -746)"><tspan x="0" y="0" fill="#FAD668" font-family="'EuclidBPtestFont-Bold'" font-size="28">Appetizers </tspan><tspan x="145.766" y="0" fill="#FAD668" font-family="'Eagle-Book'" font-size="28">&amp;</tspan><tspan x="164.582" y="0" fill="#FAD668" font-family="'EuclidBPtestFont-Bold'" font-size="28"> Beverages</tspan></text>
<path fill="#FFFFFF" d="M-459.31-621c6.502,0,11.938-4.99,13.335-11.068l10.757,2.517c0.062,0.018,0.12-0.091,0.179-0.091
	c0.32,0,0.615-0.271,0.697-0.597c0.1-0.387-0.135-0.808-0.519-0.903l-12.055-2.791c0.065-0.541-1.085-1.106-1.085-1.665V-637h13.181
	c0.398,0,0.72-1.104,0.72-1.5c0-0.398-0.321-1.5-0.72-1.5H-448v-0.159c0-0.531,1.154-1.052,1.095-1.568l11.449-2.771
	c0.387-0.099,0.917-0.492,0.819-0.876c-0.102-0.386-0.345-0.619-0.729-0.52l-10.666,2.742c-0.252-1.138-0.729-2.223-1.244-3.231
	c5.778-4.424,11.031-13.284,11.031-21.124l-1.602-6.492h7.286c3.868,0,6.56-2.547,6.56-6.414V-688h-6.56h-7.054h-7.057h-17.146
	h-50.127h-17.148h-7.053h-7.057H-551v7.586c0,3.867,3.932,6.414,7.799,6.414H-537v8.385c0,7.84,4.156,14.808,9.936,19.231
	c-0.518,1.009-0.699,2.094-0.955,3.231l-10.633-2.742c-0.384-0.1-0.724,0.134-0.821,0.52c-0.098,0.384,0.163,0.777,0.548,0.876
	l11.437,2.771c-0.059,0.517,0.489,1.037,0.489,1.568V-640h-11.939c-0.398,0-0.723,1.102-0.723,1.5s0.324,1.5,0.723,1.5H-527v1.401
	c0,0.559-0.531,1.109-0.466,1.653l-11.15,2.773c-0.383,0.098-0.761,0.491-0.661,0.875c0.086,0.327,0.306,0.544,0.626,0.544
	c0.06,0,0.085-0.009,0.144-0.023l10.741-2.292c1.394,6.078,6.815,11.068,13.315,11.068H-459.31z M-488-637.998V-635h-3.248h-4.443
	c-1.636,0-2.963-1.864-2.963-3.5c0-1.638,1.327-3.5,2.963-3.5h4.443C-489.611-642-488-639.636-488-637.998z M-487-637.998
	c0-1.638,2.852-4.002,4.488-4.002h4.443c1.637,0,2.965,1.862,2.965,3.5c0,1.636-1.328,3.5-2.965,3.5h-4.443H-487V-637.998z
	 M-476.09-666h1.957c0.359-3,3.206-5.982,6.664-5.982c3.457,0,6.304,2.982,6.664,5.982h1.957c0.398,0,0.721,0.604,0.721,1
	c0,0.397-0.322,1-0.721,1h-1.957c-0.36,4-3.207,5.983-6.664,5.983c-3.458,0-6.305-1.983-6.664-5.983h-1.957
	c-0.398,0-0.721-0.603-0.721-1C-476.811-665.396-476.488-666-476.09-666z M-513.546-666h1.958c0.358-3,3.205-5.982,6.664-5.982
	c3.457,0,6.304,2.982,6.664,5.982h1.957c0.398,0,0.721,0.604,0.721,1c0,0.397-0.322,1-0.721,1h-1.957
	c-0.36,4-3.207,5.983-6.664,5.983c-3.459,0-6.306-1.983-6.664-5.983h-1.958c-0.397,0-0.72-0.603-0.72-1
	C-514.266-665.396-513.943-666-513.546-666z M-514.051-642.081c0.312,0,0.56,0.251,0.56,0.559c0,0.312-0.248,0.56-0.56,0.56
	c-0.307,0-0.559-0.248-0.559-0.56C-514.609-641.83-514.357-642.081-514.051-642.081z M-519.334-637.318
	c-0.307,0-0.559-0.252-0.559-0.561c0-0.31,0.252-0.56,0.559-0.56c0.311,0,0.559,0.25,0.559,0.56
	C-518.775-637.57-519.023-637.318-519.334-637.318z M-514.213-632.956c-0.307,0-0.555-0.252-0.555-0.56
	c0-0.309,0.248-0.562,0.555-0.562c0.312,0,0.562,0.253,0.562,0.562C-513.65-633.208-513.901-632.956-514.213-632.956z
	 M-458.184-632.956c-0.308,0-0.559-0.252-0.559-0.56c0-0.309,0.251-0.562,0.559-0.562c0.311,0,0.562,0.253,0.562,0.562
	C-457.621-633.208-457.873-632.956-458.184-632.956z M-453.059-637.318c-0.31,0-0.561-0.252-0.561-0.561
	c0-0.31,0.251-0.56,0.561-0.56c0.306,0,0.559,0.25,0.559,0.56C-452.5-637.57-452.753-637.318-453.059-637.318z M-457.783-641.522
	c0,0.312-0.252,0.56-0.559,0.56c-0.31,0-0.56-0.248-0.56-0.56c0-0.308,0.25-0.559,0.56-0.559
	C-458.035-642.081-457.783-641.83-457.783-641.522z"/>
<rect x="-807" y="-382" width="640" height="148"/>
<line fill="none" stroke="#231F20" stroke-width="20" stroke-linecap="round" stroke-linejoin="round" stroke-miterlimit="10" x1="-749" y1="-308" x2="-226" y2="-308"/>
<g>
	<path d="M-742.001,31c-21.229,0-38.5,17.271-38.5,38.5s17.271,38.5,38.5,38.5s38.5-17.271,38.5-38.5S-720.772,31-742.001,31z"/>
	<path fill="#FFFFFF" d="M-742.001,11c-32.257,0-58.5,26.243-58.5,58.5s26.243,58.5,58.5,58.5s58.5-26.243,58.5-58.5
		S-709.744,11-742.001,11z M-742.001,108c-21.229,0-38.5-17.271-38.5-38.5s17.271-38.5,38.5-38.5s38.5,17.271,38.5,38.5
		S-720.772,108-742.001,108z"/>
</g>
<g>
	<path d="M-709.001-346c-21.229,0-38.5,17.271-38.5,38.5s17.271,38.5,38.5,38.5s38.5-17.271,38.5-38.5S-687.772-346-709.001-346z"/>
	<path fill="#FFFFFF" d="M-709.001-366c-32.257,0-58.5,26.243-58.5,58.5s26.243,58.5,58.5,58.5s58.5-26.243,58.5-58.5
		S-676.744-366-709.001-366z M-709.001-269c-21.229,0-38.5-17.271-38.5-38.5s17.271-38.5,38.5-38.5s38.5,17.271,38.5,38.5
		S-687.772-269-709.001-269z"/>
</g>
<g>
	<path d="M-200-474c0,27.614-22.386,50-50,50h-474c-27.614,0-50-22.386-50-50v-63c0-27.614,22.386-50,50-50h474
		c27.614,0,50,22.386,50,50V-474z"/>
</g>
<polygon points="-692.453,-428 -709.334,-398.762 -726.214,-428 "/>
<g>
	<path d="M-82,124c0,27.614-22.386,50-50,50h-474c-27.614,0-50-22.386-50-50V61c0-27.614,22.386-50,50-50h474
		c27.614,0,50,22.386,50,50V124z"/>
</g>
<polygon points="-574.453,199 -591.334,228.238 -608.214,199 "/>
<text transform="matrix(1 0 0 1 -720.8408 -483)" fill="#FFFFFF" font-family="'EuclidBPtestFont-Bold'" font-size="81.0274">Panther Milk</text>
<text transform="matrix(1 0 0 1 -720.8408 365)" fill="#FFFFFF" font-family="'EuclidBPtestFont-Bold'" font-size="81.0274">Panther Milk</text>
<text transform="matrix(1 0 0 1 -727.7588 539)" fill="#FFFFFF" font-family="'EuclidBPtestFont-Bold'" font-size="59">Spicy Pickle Backs</text>
</svg>
